<?xml version="1.0" encoding="utf-8"?><svg xmlns="http://www.w3.org/2000/svg" xmlns:xlink="http://www.w3.org/1999/xlink"><symbol viewBox="0 0 22 24" id="basket" xmlns="http://www.w3.org/2000/svg"><g clip-path="url(#aa)"><path d="M10.363 18.443a2.046 2.046 0 0 0-2.045 2.042 2.046 2.046 0 0 0 4.09 0 2.046 2.046 0 0 0-2.045-2.042Zm6.134 0a2.046 2.046 0 0 0-2.045 2.042 2.046 2.046 0 0 0 4.089 0 2.046 2.046 0 0 0-2.044-2.042Zm3.978-8.199L7.413 6.891a.614.614 0 0 0-.75.73L8.67 16.4h-.786L5.482 5.895a.613.613 0 0 0-.474-.464l-4.27-.882A.614.614 0 0 0 .489 5.75l3.885.802L6.797 17.15a.613.613 0 0 0 .598.477h12.07a.615.615 0 0 0 .607-.53l.858-6.175a.613.613 0 0 0-.455-.678Zm-8.14 3.91a.613.613 0 0 1-1.227 0v-2.696a.613.613 0 0 1 1.227 0v2.696Zm2.625 0a.613.613 0 0 1-1.227 0v-1.88a.613.613 0 0 1 1.227 0v1.88Zm2.625 0a.613.613 0 0 1-1.227 0v-1.226a.613.613 0 0 1 1.227 0v1.226Z"/></g><path fill-rule="evenodd" clip-rule="evenodd" d="M16.268 4.568a2.996 2.996 0 0 0-1.693-.523c-.627 0-1.21.193-1.693.523-.28-.843-.492-1.752-.492-2.383C12.39.98 13.37 0 14.575 0s2.185.98 2.185 2.185c0 .631-.212 1.54-.492 2.383Zm-4.722 2.274.024.006v-.011l-.024.005Zm4.972 1.217c-1.333-.33-2.766-.681-4.129-1.013a2.185 2.185 0 1 1 4.129 1.013Zm4.436 1.103c-.866-.217-2.155-.538-3.618-.9a2.995 2.995 0 0 0 .243-1.425c.87.18 1.762.45 2.308.765.596.344.969.928 1.067 1.56ZM9.869 6.439c-.36-.086-.706-.167-1.03-.243a2.19 2.19 0 0 1-.376-2.667 2.188 2.188 0 0 1 3.147-.7c.098.738.338 1.599.61 2.353a3.01 3.01 0 0 0-.449.774c-.628.113-1.305.278-1.902.483Zm10.124.075a3.43 3.43 0 0 1-.217.114c-.696-.295-1.587-.526-2.397-.672a3.01 3.01 0 0 0-.449-.774c.262-.727.494-1.553.599-2.273.095-.067.189-.128.278-.18a2.188 2.188 0 0 1 2.986.8 2.188 2.188 0 0 1-.8 2.985Z"/><defs><clipPath id="aa"><path transform="translate(0 3.064)" d="M0 0h20.936v20.936H0z"/></clipPath></defs></symbol><symbol viewBox="0 0 128 128" id="bone" xmlns="http://www.w3.org/2000/svg"><path fill-rule="evenodd" clip-rule="evenodd" d="M14 54.996a19.488 19.488 0 0 1 8.586-32.839 19.474 19.474 0 0 1 38.118 5.59l.02 1.123-.011 3.923L95.23 67.31l3.851.01h1.135A19.494 19.494 0 0 1 114 73.03a19.487 19.487 0 0 1 5.708 13.785v.047a19.628 19.628 0 0 1-5.721 13.722l-.006.006-.007.007a19.511 19.511 0 0 1-8.287 4.916 19.474 19.474 0 0 1-38.164-5.437l-.02-1.122.011-3.923-34.536-34.537-3.89-.01h-1.031A19.489 19.489 0 0 1 14 54.995Z"/><path fill-rule="evenodd" clip-rule="evenodd" d="M17.187 51.69a14.908 14.908 0 0 1 9.244-25.57 14.887 14.887 0 0 1 9.147-12.14 14.89 14.89 0 0 1 20.545 13.793l.02 1.116-.017 5.781 37.201 37.2 5.755.017h1.133a14.911 14.911 0 0 1 13.778 9.204 14.92 14.92 0 0 1 1.134 5.707v.018a15.049 15.049 0 0 1-4.385 10.519l-.005.005a14.938 14.938 0 0 1-8.935 4.28 14.893 14.893 0 0 1-25.37 8.913 14.89 14.89 0 0 1-4.328-10.513l-.02-1.116.017-5.781-37.22-37.22-5.802-.017h-1.084a14.906 14.906 0 0 1-10.808-4.195Zm83.104 44.486a9.405 9.405 0 0 0 6.534-2.747 9.513 9.513 0 0 0 2.77-6.64 9.38 9.38 0 0 0-5.789-8.657 9.377 9.377 0 0 0-3.589-.714h-1.143l-8.32-.023-.827-1.102-39.339-39.338.023-8.026-.02-1.115v-.029a9.361 9.361 0 0 0-15.956-6.67 9.36 9.36 0 0 0-2.762 6.584l.067 3.985-4.038-.069h-.023a9.379 9.379 0 0 0-9.694 9.363 9.375 9.375 0 0 0 9.679 9.378l.044-.001h1.187l8.084.023 40.46 40.46-.023 8.025.02 1.116v.029a9.36 9.36 0 0 0 18.719.064v-4.031l3.936.135Z"/></symbol><symbol viewBox="0 0 344.96 344.96" id="check" xmlns="http://www.w3.org/2000/svg"><g data-name="Слой 2"><path class="ccls-1" d="m321.85 86.24-40-23.11-23.1-40H212.5L172.48 0l-40 23.11H86.24l-23.11 40-40 23.1v46.21L0 172.48l23.11 40v46.21l40 23.11 23.11 40h46.21l40 23.1 40-23.11h46.21l23.11-40 40-23.11V212.5l23.11-40-23.11-40V86.24ZM156.91 243.07a16.79 16.79 0 0 1-23.34 0l-50.45-50.44a16.19 16.19 0 0 1 0-22.89l13.35-13.35a16.19 16.19 0 0 1 22.89 0l25.87 25.87 80.34-80.35a16.19 16.19 0 0 1 22.89 0l13.35 13.35a16.19 16.19 0 0 1 0 22.89Z" data-name="Capa 1"/></g></symbol><symbol viewBox="0 0 94 90" id="cup" xmlns="http://www.w3.org/2000/svg"><path d="m20.851 23.431.003.021c.2 1.512 1.869 2.736 3.374 2.474 1.505-.263 2.659-1.98 2.335-3.47l-.004-.019-.003-.02c-.187-1.057-.261-1.762-.19-2.32.07-.548.285-.923.444-1.198l.06-.107.028-.05.033-.045c2.523-3.517 4.289-7.674 2.331-11.364-.514-.92-1.068-1.664-1.617-2.34-.177-.22-.363-.441-.55-.665-.367-.438-.738-.88-1.05-1.307l-.008-.01a2.975 2.975 0 0 0-2.502-1.208c-1.023.068-2.007.742-2.44 1.672l-.244 19.956Zm0 0-.004-.021m.004.021-.004-.021m0 0c-.55-3.12.05-5.742.984-7.417.35-.62.656-1.107.94-1.56.172-.274.336-.535.497-.806.39-.655.75-1.343.84-2.11.098-.817-.12-1.588-.589-2.403-.449-.78-1.162-1.658-2.151-2.732m-.52 17.028.52-17.028m0 0c-.587-.824-.698-1.99-.272-2.907l.272 2.907Zm12.486 17.07-.003-.021-.004-.021c-.55-3.12.05-5.742.984-7.417.35-.62.656-1.107.94-1.56.172-.274.336-.535.497-.806.39-.655.75-1.343.84-2.11.098-.817-.12-1.588-.589-2.403-.449-.78-1.162-1.658-2.151-2.732-.587-.824-.698-1.99-.272-2.907.432-.93 1.416-1.604 2.44-1.672a2.975 2.975 0 0 1 2.501 1.208l.007.01c.313.426.684.869 1.051 1.307.187.224.373.446.55.664.549.677 1.103 1.42 1.617 2.341 1.958 3.69.192 7.847-2.33 11.364l-.034.046-.028.05-.06.106c-.159.275-.375.65-.444 1.199-.071.557.003 1.262.19 2.32l.003.019.004.02c.324 1.49-.83 3.206-2.335 3.469-1.505.262-3.173-.962-3.374-2.474Zm13 0-.003-.021-.004-.021c-.55-3.12.05-5.742.984-7.417.35-.62.656-1.107.94-1.56.172-.274.336-.535.497-.806.39-.655.75-1.343.84-2.11.098-.817-.12-1.588-.589-2.403-.449-.78-1.162-1.658-2.151-2.732-.587-.824-.698-1.99-.272-2.907.432-.93 1.416-1.604 2.44-1.672a2.975 2.975 0 0 1 2.501 1.208l.007.01c.313.426.684.869 1.051 1.307.187.224.373.446.55.664.549.677 1.103 1.42 1.617 2.341 1.958 3.69.192 7.847-2.33 11.364l-.034.046-.028.05-.06.106c-.159.275-.375.65-.444 1.199-.071.557.003 1.262.19 2.32l.003.019.004.02c.324 1.49-.83 3.206-2.335 3.469-1.505.262-3.173-.962-3.374-2.474ZM7.337 30.471h.014c5.68-.004 11.398.009 17.127.02 15.65.034 31.393.068 46.765-.22 1.305.27 2.161.71 2.752 1.343.6.645 1.032 1.607 1.255 3.127 0 1.388-.008 2.727-.04 4.046l-.027 1.11 1.107-.089c4.455-.36 9.207.216 12.99 2.995 1.64 1.396 2.876 3.68 2.87 6.116v.002c0 8.904-4.445 15.948-9.997 20.547l.638.77-.638-.77c-5.202 4.31-11.208 6.658-16.482 6.96l-.495.027-.277.41c-2.383 3.53-5.238 6.97-8.692 10.409a2.96 2.96 0 0 1-2.057.845h-.003l-31.194.081a2.949 2.949 0 0 1-2.05-.875l-.009-.01C13.54 79.965 8.797 72.695 5.881 64.35 2.96 55.995 1.85 46.506 1.85 34.684c.057-1.779.501-2.735 1.21-3.296.76-.603 2.059-.945 4.277-.917Zm61.991 6.77.013-1.015h-1.014l-59.556.04-1.013.001.014 1.013c.14 10.234 1.062 18.238 3.524 25.295 2.469 7.076 6.461 13.135 12.642 19.524l.295.306.426-.001 27.788-.08.42-.002.294-.302c6.181-6.368 10.176-12.411 12.645-19.48 2.463-7.05 3.385-15.053 3.522-25.3Zm17.017 11.54-.018-.185-.084-.165c-.561-1.116-1.294-1.914-2.178-2.439-.875-.52-1.832-.73-2.784-.782-.945-.052-1.924.053-2.866.194-.45.067-.905.145-1.35.22l-.066.012c-.47.08-.927.158-1.38.224l-.783.114-.07.788c-.708 8.044-2.242 14.921-4.959 21.212l-.944 2.185 2.222-.856c2.48-.956 5.098-2.407 7.387-4.305l.01-.008c4.018-3.414 8.563-9.191 7.863-16.209Z"/></symbol><symbol viewBox="0 0 24 24" id="fb" xmlns="http://www.w3.org/2000/svg"><path d="M13.397 20.997v-8.196h2.765l.411-3.209h-3.176V7.548c0-.926.258-1.56 1.587-1.56h1.684v-2.86A22.108 22.108 0 0 0 14.201 3c-2.444 0-4.122 1.492-4.122 4.231v2.355H7.332v3.21h2.753v8.201h3.312Z"/></symbol><symbol viewBox="0 0 24 24" id="instagram" xmlns="http://www.w3.org/2000/svg"><path d="M11.999 7.377a4.624 4.624 0 1 0 0 9.248 4.624 4.624 0 0 0 0-9.248Zm0 7.627a3.004 3.004 0 1 1 0-6.008 3.004 3.004 0 0 1 0 6.008Zm4.807-6.719a1.078 1.078 0 1 0 0-2.156 1.078 1.078 0 0 0 0 2.156Z"/><path d="M20.533 6.11A4.605 4.605 0 0 0 17.9 3.48a6.607 6.607 0 0 0-2.186-.42c-.963-.042-1.268-.054-3.71-.054s-2.755 0-3.71.054a6.554 6.554 0 0 0-2.184.42 4.6 4.6 0 0 0-2.633 2.63 6.585 6.585 0 0 0-.419 2.186c-.043.962-.056 1.267-.056 3.71 0 2.442 0 2.753.056 3.71.015.748.156 1.486.419 2.187a4.61 4.61 0 0 0 2.634 2.632 6.583 6.583 0 0 0 2.185.45c.963.042 1.268.055 3.71.055s2.755 0 3.71-.055a6.616 6.616 0 0 0 2.186-.42 4.613 4.613 0 0 0 2.633-2.632c.263-.7.404-1.438.419-2.186.043-.962.056-1.267.056-3.71s0-2.753-.056-3.71a6.583 6.583 0 0 0-.421-2.217Zm-1.218 9.533a5.046 5.046 0 0 1-.311 1.688 2.987 2.987 0 0 1-1.712 1.71c-.535.2-1.1.305-1.67.312-.95.044-1.218.055-3.654.055-2.438 0-2.687 0-3.655-.055a4.961 4.961 0 0 1-1.67-.311 2.984 2.984 0 0 1-1.718-1.711 5.08 5.08 0 0 1-.311-1.67c-.043-.95-.053-1.217-.053-3.653 0-2.437 0-2.686.053-3.655a5.038 5.038 0 0 1 .311-1.687c.305-.79.93-1.41 1.719-1.712a5.01 5.01 0 0 1 1.669-.311c.95-.043 1.218-.055 3.655-.055s2.687 0 3.654.055a4.96 4.96 0 0 1 1.67.31 2.99 2.99 0 0 1 1.712 1.713 5.06 5.06 0 0 1 .311 1.669c.043.95.054 1.218.054 3.655 0 2.436 0 2.698-.043 3.654h-.011v-.001Z"/></symbol><symbol viewBox="0 0 114 49" id="logo" xmlns="http://www.w3.org/2000/svg"><path d="M8.669 5.013v2.325H5.862v12.199H3.224v-12.2H.417V5.014H8.67Zm5.268 0c2.868 0 4.421 1.375 4.421 3.739 0 1.414-.836 2.537-2.013 2.926v.27c1.342.406 2.178 1.586 2.178 3.368 0 2.673-1.55 4.22-4.693 4.22h-3.812V5.014h3.92Zm-1.3 5.905h1.446c1.173 0 1.76-.58 1.76-1.684v-.349c0-1.065-.606-1.587-1.76-1.587h-1.446v3.62Zm0 6.334h1.384c1.3 0 1.948-.659 1.948-1.821v-.601c0-1.238-.606-2.073-1.948-2.073h-1.384v4.495ZM27.756 4.761c4.482 0 8.128 3.178 8.128 7.514 0 4.145-3.435 7.513-8.128 7.513-4.483 0-8.129-3.177-8.129-7.513.004-4.146 3.44-7.514 8.129-7.514Zm0 12.703c3.29 0 5.487-2.343 5.487-5.19 0-3.04-2.408-5.188-5.487-5.188-3.29 0-5.487 2.342-5.487 5.189 0 3.04 2.408 5.189 5.487 5.189ZM40.198 5.013v1.335l-.253 2.925h.337l4.168-4.26h1.488v14.523H43.3V16.65L43.634 9H43.3l-3.14 2.983v7.553h-2.596V5.012h2.634Zm.92-2.692h-.145c-.483 0-.713.155-.713.446 0 .292.253.446.713.446h1.549c.46 0 .713-.154.713-.446 0-.291-.23-.446-.713-.446h-.146V.5h.357c1.36 0 2.473.698 2.473 1.86 0 1.317-1.131 2.016-3.455 2.016s-3.455-.699-3.455-2.016c0-1.162 1.108-1.86 2.473-1.86h.357v1.82h-.008Zm18.075 2.692v2.325h-4.022v12.199h-2.638V5.013h6.66Zm8.305-.252c4.482 0 8.129 3.178 8.129 7.514 0 4.145-3.436 7.513-8.129 7.513-4.482 0-8.129-3.177-8.129-7.513 0-4.146 3.436-7.514 8.129-7.514Zm0 12.703c3.29 0 5.487-2.343 5.487-5.19 0-3.04-2.408-5.188-5.487-5.188-3.29 0-5.487 2.342-5.487 5.189-.004 3.04 2.404 5.189 5.487 5.189ZM80.983 5.013c2.872 0 4.693 1.781 4.693 5.171 0 3.117-1.802 4.977-4.693 4.977h-1.028v4.376h-2.66V5.013h3.688Zm-1.028 8.212h1.005c1.277 0 2.094-.986 2.094-2.674v-.795c0-1.627-.817-2.422-2.094-2.422h-1.004v5.89Zm14.847-8.464c4.482 0 8.129 3.178 8.129 7.514 0 4.145-3.436 7.513-8.13 7.513-4.481 0-8.128-3.177-8.128-7.513.004-4.146 3.44-7.514 8.129-7.514Zm0 12.703c3.29 0 5.487-2.343 5.487-5.19 0-3.04-2.408-5.188-5.487-5.188-3.29 0-5.487 2.342-5.487 5.189 0 3.04 2.408 5.189 5.487 5.189Zm17.25-12.451v12.2H114v.91l-1.886 4.937h-.859v-3.523h-7.899v-.447l2.281-11.85V5.014h6.415Zm-4.421 2.325-1.277 9.878h3.06V7.338h-1.783ZM8.669 30.109v2.325H5.862v12.198H3.224V32.434H.417v-2.325H8.67Zm5.268 0c2.868 0 4.421 1.374 4.421 3.739 0 1.414-.836 2.537-2.013 2.925v.27c1.342.407 2.178 1.587 2.178 3.368 0 2.674-1.55 4.221-4.693 4.221h-3.812V30.11h3.92Zm-1.3 5.905h1.446c1.173 0 1.76-.58 1.76-1.684v-.35c0-1.064-.606-1.586-1.76-1.586h-1.446v3.62Zm0 6.333h1.384c1.3 0 1.948-.658 1.948-1.82v-.601c0-1.238-.606-2.073-1.948-2.073h-1.384v4.494Zm15.119-12.49c4.482 0 8.128 3.177 8.128 7.514 0 4.145-3.435 7.513-8.128 7.513-4.483 0-8.129-3.177-8.129-7.513.004-4.146 3.44-7.514 8.129-7.514Zm0 12.703c3.29 0 5.487-2.343 5.487-5.19 0-3.04-2.408-5.188-5.487-5.188-3.29 0-5.487 2.342-5.487 5.189 0 3.04 2.408 5.189 5.487 5.189Zm15.414-5.517h-2.976v5.268h4.923v2.325h-7.56V30.109h7.142v2.324h-4.505v3.117l2.638-.64.338 2.133Zm-5.3-10.612h2.516v2.325h-2.515V26.43Zm4.192 0h2.511v2.325h-2.511V26.43Zm16.755 3.678v12.199h1.948v.91l-1.886 4.937h-.86v-3.523h-7.898v-.446l2.281-11.85V30.11h6.415Zm-4.42 2.325-1.278 9.877h3.06v-9.877h-1.783Zm13.036 4.609h-2.976v5.268h4.924v2.325h-7.562V30.109h7.144v2.325h-4.506v3.116l2.638-.64.338 2.133Zm12.887-6.934v14.523h-2.638V32.434h-2.304l-.211 6.545c-.146 4.743-1.258 5.772-2.933 5.772-.775 0-1.446-.252-1.968-.813v-2.616h.63c0 .619.252.986.774.986.629 0 .943-.486 1.07-1.764l.836-8.132v-2.303h6.744Zm9.781-.252c4.483 0 8.129 3.177 8.129 7.514 0 4.145-3.436 7.513-8.129 7.513-4.482 0-8.129-3.177-8.129-7.513 0-4.146 3.436-7.514 8.13-7.514Zm0 12.703c3.29 0 5.487-2.343 5.487-5.19 0-3.04-2.408-5.188-5.487-5.188-3.29 0-5.487 2.342-5.487 5.189-.004 3.04 2.408 5.189 5.487 5.189ZM28.243 23.606H.475v2.18h27.768v-2.18Z"/></symbol><symbol viewBox="0 0 46 52" id="logo-img" xmlns="http://www.w3.org/2000/svg"><path d="M8.195 26.788c.133-.21.194-.066.173.134-.285.401-.509.612-.702.717.091-.306.305-.478.53-.85Zm.295.134c.072-1.318.5-2.455 1.253-3.582-.285.086-.5.354-.764.774.448-1.252 1.181-2.57 2.698-2.885.804-.162 1.883.325 2.972 1.232-.885.077-1.639.24-2.137.545l-.031-.096c.255-.22.672-.382 1.11-.525l-.102-.02c-.652.144-1.313.45-1.985 1.128l-.102.019c.55-.783 1.262-1.127 2.016-1.318l-.326.019c-.499.114-1.028.43-1.476.87-.804.754-1.436 1.92-1.741 3.59-.03.077-.082-.066-.102.03.082-.707.244-1.395.53-2.026.274-.659.834-1.432 1.425-1.939.356-.325.661-.4 1.13-.688h-.082a2.288 2.288 0 0 0-.906.469c-.63.496-1.19 1.232-1.557 1.91-.336.602-.54 1.3-.642 2.235a2.417 2.417 0 0 1-.458 1.032c-.275.325-.499.115-.875 1.06l-.092.02c.051-.192.153-.469.255-.612.122-.162.244-.239.397-.42.274-.325.529-.707.63-1.347.082-.497.194-1.137.347-1.557.173-.487.326-.736.53-.994.6-.773.834-1.27 2.219-1.958l-.123.02c-1.007.372-1.639 1.03-2.463 2.292-.631.965-.458 2.168-.957 3.066-.153.306-.56.755-.774.946l-.081.019c.122-.373.55-.66.753-1.022.132-.239.183-.64.234-.936.275-1.72.804-2.522 1.588-3.372h-.112c-1.639 1.68-1.405 2.875-1.76 4.03-.255.755-.53.66-1.13 1.72-.021-.162.05-.305.08-.382.051-.162.225-.306.5-.64.254-.334.478-.898.58-1.767.03-.401.173-.755.305-1.06.132-.335.234-.564.397-.803.631-.945 1.201-1.557 1.985-1.958v-.067c-.804.325-1.506 1.09-2.056 1.94a5.47 5.47 0 0 0-.652 1.394c-.112.42-.173.984-.325 1.547-.102.42-.347.679-.55.917-.153.172-.275.383-.377.45.082-.268.051-.545.53-.88a.909.909 0 0 0 .274-.42Zm7.748 1.71-.072.21-.071-.028.03-.182h.113Zm-.174-5.932-.05.143c-1.487.85-2.108 2.484-2.118 4.72-.02.496-.071 1.012 0 1.556l.051-.114c.05-1.319.05-2.436.224-3.21.193-.85.478-1.366.774-1.729.101-.124.193-.287.295-.382.132-.134.285-.162.407-.277l-.02.115c-.57.525-1.049 1.203-1.263 2.082-.244 1.012-.254 2.178-.173 3.4a1.23 1.23 0 0 1-.122.45l.071-.03c.102-.19.153-.42.153-.687-.122-1.47 0-2.97.57-4.012.397-.726.631-.993 1.73-1.576l-.03.115c-.926.592-1.791 1.28-1.964 3.63l.05-.048c.174-1.777.856-3.095 2.118-3.573.448-.172.977-.143 1.558-.143l-.102.076c-.886-.076-1.66.21-2.321.87l.101.028c.632-.611 1.365-.945 2.291-.754l-.071.133c-.652-.095-1.202.125-1.71.497v.067c.58-.373 1.11-.544 1.628-.449.173.02.224.143.173.334l-.102.88c-.02.85-.07 1.68-.285 2.435l-.091.067.091-1.471-.356 1.824c-.03.21-.193.172-.152-.019.08-.382.223-.917.305-1.47-.082.018-.153.066-.173.171-.102.783-.234 1.423-.428 1.653.122-.497.194-.994.204-1.49l-.102.076-.255 1.395c.194.095-.05.238-.122.066l.082-.773-.071-.02-.357 1.233.122-.85-.335.85h-.123l.153-.726-.509 1.318c-.153.029-.173-.02-.05-.239l.325-.898-.102.02c-.204.659-.356 1.117-.61 1.27l-.103.01c.357-.593.408-.88.428-1.175-.183.563-.377.964-.713 1.299-.05-.048.02-.191.224-.545l.194-.468c-.082-.096-.143-.067-.194.076-.122.402-.244.679-.458.927l.224-.783-.03-.096c-.153.468-.357.87-.652 1.108l.133.067c.458-.286 1.099-.19 1.74-.468.143-.067.275-.095.357-.029l-.123.306-.111-.172c-.072.239-.174.468-.306.564l-.05-.354c-.276.564-.459.87-.48.593l.052-.335c-.204.191-.347.42-.398.688-.101-.02-.122-.21-.08-.478l-.174.593c-.153.028-.183-.125-.102-.478-.142.325-.254.544-.305.573-.071-.095-.082-.258-.03-.468l-.174.306c0 .22-.071.305-.173.286.051-.334.051-.468-.02-.382l-.204.516c-.122.067-.152-.067-.132-.353-.194.095-.132.449-.275.592-.102-.067-.122-.22-.102-.401-.081.277-.173.43-.295.449l-.03-.526c-.051.24-.123.43-.224.593l-.153-.383-.072.373c-.122.067-.223-.029-.295-.268-.02.497-.071.918-.407 1.128.03.124-.122.468-.326.85l.55-.755c.122-.028.173.029.122.277l-.57.87c-.081.095-.183.066-.295 0-.122.43-.326.735-.53 1.031.245-.143.398-.449.58-.87.031-.123.184.03.133.288l-.132.114.02.191-.173.02v.257l-.153.067c.153.353-.03.573-.407.401-.122.43-.631.21-.377-.172.632-.965 1.253-1.93 1.365-3.228.03-.469.346-.67.733-.88.834-.43 1.13-1.174 1.11-2.005-.184-3.659.895-5.244 2.554-5.875Zm2.22.21c0 .048-.153.067-.346.067-.184 0-.346-.019-.346-.067 0-.028.152-.067.346-.067.193 0 .346.029.346.067Zm-1.965-.019c.326-.258.682-.353 1.09-.353h.722c.275 0 .234.258-.02.238h-.51c-.457-.019-.834.115-1.21.306-.204.086-.225-.076-.072-.19Zm1.466-2.741c-.102.143-.224.229-.255.172-.03-.03.02-.172.102-.325.102-.143.224-.21.255-.172.04.048-.01.2-.102.325Zm-.641-.383.081-.334c-.102.191-.234.373-.509.487.183-.267.224-.4.173-.487-.224.258-.448.45-.702.497l.122-.306c-.173.077-.255.258-.51.239l.225-.334-.397.162.05-.23-.356.211.133-.287-.408.163-.02-.191-.275.067v-.21l-.244.124-.03-.163-.326.124.02-.238-.244.114-.082-.114-.285.095-.05-.21-.255.239-.051-.191c-.102.067-.173.22-.295.21l-.072-.21c-.132.114-.234.286-.376.305l.03-.286c-.152.124-.275.353-.458.372l.071-.305c-.122.114-.224.325-.376.325l.122-.287c-.173.115-.407.353-.51.334l.072-.286c-.081.047-.153.162-.244.143l.071-.172c.173-.372.53-.43.957-.42.957.028 1.914.067 2.84.305 1.436.402 2.413.277 3.146-.21.224-.076.285 0 .183.24-.071.257-.254.352-.427.286a.908.908 0 0 1-.306.382l.02-.325c-.172.23-.346.353-.508.372Zm.234.545c-.082.115-.173.172-.204.143-.03-.028 0-.143.082-.258.07-.114.152-.172.183-.143.04.029.01.143-.061.258Zm-.357.048c-.07.076-.132.124-.173.114-.02-.028 0-.133.072-.21.07-.095.132-.143.152-.124.03.029 0 .124-.05.22Zm-.55.076c-.172 0-.305-.048-.305-.114 0-.048.143-.096.306-.096.152 0 .285.048.285.096.01.066-.133.114-.285.114Zm-3.868-2.76c.55-.163.978-.172 1.313-.23.601-.076.978-.124 1.456-.334.224-.076.479-.172.754-.382.132-.096.081-.124-.072-.115l-.61.029v-.258l-.245.306-.05-.306-.204.525-.082-.611-.152.66-.082-.64-.254.735-.072-.774-.152.783-.153-.802-.102.802-.173-.754-.071.726-.224-.736-.02.774-.255-.736-.051.66-.173-.64-.071.572-.143-.525-.081.573c-.255-.449-.357-.821-.184-1.022.255-.277.601-.334.937-.287.071-.114.204-.21.377-.305l.03.143.407-.134.051.144.448-.23c-.254.306-.305.43-.224.43.072 0 .397-.353.5-.258-.225.325-.021.22.355-.066.102.028-.142.257-.101.286.03.029.173-.067.438-.239.07-.047.223-.21.254-.124.02.096-.082.143-.132.21-.275.306-.204.258.274-.028.072-.03.174-.115.245-.077-.326.401-.194.315.295.048.071-.029.153-.143.234-.067-.6.497-.499.564.275.21-.356.382-.275.401.295.067.051-.019.122 0 .183-.029-.254.24-.285.42-.172.354.193-.077.427-.172.55-.143-.245.22-.225.324.08.267.102.038 0 .143-.305.334-.05.077-.102 0-.152-.19-.031.114-.082.114-.133.047l-.071.42-.102-.019v-.238c-.05-.067-.102-.067-.153 0l-.081.324-.153-.076a.706.706 0 0 1-.244.305c-.102-.124-.173-.095-.204.02-.07.019-.102-.029-.173-.02-.05.144-.101.182-.193.087a2.432 2.432 0 0 0-.397.286l-.071-.162c-.123.162-.224.258-.296.22l-.122-.115-.183.286-.306.077c0 .076.123.076.326.048a9.004 9.004 0 0 0 1.15-.24c.337-.095.713-.143 1.13-.305.326-.143.703-.401 1.08-.573.081.067.02.22-.703.755l-.346-.096.194.239c-.082.076-.153.114-.245.095l-.305-.143.102.306c-.224 0-.326-.258-.53-.144l.082.24-.458-.134.081.286-.397-.162-.081.162c-.122 0-.184.029-.204.077.906.143 1.904-.163 2.922-.621.05-.02.071.019.071.095-.081.382-.377.726-.835 1.022l.133-.516c-.306.134-.652.755-.906.831l.274-.668-.804.62c-.071-.076.03-.257.204-.487-.234 0-.652.526-.713.497-.173-.076.132-.239.204-.353-.224-.02-.377.172-.56.277-.02-.096.102-.21.305-.382l-.662.286c0-.114.255-.21.306-.372-.306.19-.58.325-.652.305l.204-.305-.58.286.356-.353-.61.277.172-.306-.448.268.194-.335c-.224.172-.428.287-.55.287.122-.143.204-.258.183-.334-.203.162-.407.267-.498.267l.08-.267a1.468 1.468 0 0 1-.559.334l.204-.325c.03-.048.02-.114-.051-.067l-.458.354c.101-.172.152-.287.081-.335l-.326.163.03-.172-.376.382c-.05-.02.02-.115.071-.287l-.397.24c.214-.364.55-.622 1.008-.756Zm.998-3.946c.254-.372.458-.477.6-.19.174-.516.357-.564.601-.115.326 0 .397.468.346 1.156l-.305-.774v.497c-.214-.841-1.537-.344-1.242-.574Zm.763-2.837c.051.134-.05.191-.152.067-.224-.239-.173-.544.071-.821.255-.287.58-.287.876-.077.172.125.122.144-.082.144-.59 0-.814.267-.713.687Zm-.336-.83c.031.238-.081.267-.325.114l-.275-.315c-.204-.191-.234-.354-.122-.497l.254-.287a.757.757 0 0 1 .53-.143c.081.067.101.124.081.21-.305 0-.509.163-.652.43.224-.23.458-.382.703-.382.122.029.153.115.153.191-.102-.038-.174-.019-.224.029-.051.076-.204.172-.408.305.153-.028.346-.095.56-.238.122.028.143.095.102.22a.297.297 0 0 1-.224.143c-.132-.01-.193.057-.153.22Zm-.885-1.29c-.56-.755-.988-1.366-1.415-1.94-.082-.114.02-.124.071-.066.509.592.988 1.156 1.537 1.834-.01.114-.06.172-.193.172Zm.213.229c.052-.23.204-.334.377-.353l.377.066c.142.096.122.125-.03.144-.306-.048-.48.019-.57.21-.113.153-.164.172-.153-.067Zm1.202.669c.03 0 .081.028.081.095 0 .048-.05.096-.081.096-.051 0-.082-.048-.082-.096 0-.057.03-.095.082-.095Zm.936 4.642c-.05.02-.101-.067-.132-.172a.419.419 0 0 1-.02-.21c.05 0 .101.067.132.172.04.115.04.21.02.21Zm.367-.564-.173-.964-.122.42-.102-.592c-.082-.067-.102.306-.082.821-.152-.143-.132-.563-.122-1.031l-.173.449c-.102-.24-.05-.564 0-.87-.102-.076-.173.086-.203.564-.123-.325-.082-.573-.031-.879l-.122.239-.03-.564a6.884 6.884 0 0 1 1.414 1.815v.592l-.203-.678c.01.468 0 .774-.051.678Zm13.753 15.886.102-.067.173.64-.509-.267.03-.115c-6.107-7.795-11.279-14.405-14.7-18.933-.05-.238.02-.334.255-.258 4.5 5.579 9.956 12.839 14.65 19Zm-11.86-17.09c.051.03.082.068.123.077l.081-.076c-.02.115-.05.143-.132.23.02-.049.03-.096.05-.134-.04-.03-.07-.067-.122-.096Zm.357.775c-.02.114-.03.143-.122.22a.398.398 0 0 1 .122-.22Zm.295-.306-.02.048-.02-.02c-.031.077-.082.125-.174.21.02-.114.03-.19.102-.276-.03-.02-.082-.048-.122-.077-.082.172-.204.325-.377.526.122-.335.244-.593.499-.85-.03.114-.071.21-.102.286.03.029.082.067.122.096a.34.34 0 0 0 .082-.096c0 .048 0 .096-.02.143h.03v.01Zm.662.755c0 .238-.02.305-.204.372-.05-.172 0-.277.204-.372Zm-.173-.096c.02-.067.03-.134.05-.172l.031-.028c0-.02.02-.048.03-.067.031-.029.072-.077.102-.115 0 .181-.05.248-.213.382Zm-2.393-2.12c.713-.23 1.568-.23 2.637.305.804.42 1.558.755 2.27.573.133-.028.153.067 0 .115l-.499.143c-.102.029-.122.096-.173.067-.203-.076-.295-.114-.325-.23h-.204c.102.144.102.211.03.163l-.356-.239c-.102-.066-.132-.047-.081.03l.07.095c.031.047-.03.076-.121.019l-.407-.325c-.102-.076-.174-.076-.153 0l.03.124c.02.067-.173-.076-.305-.239-.05-.067-.132-.067-.132 0v.144c0 .143-.285-.24-.53-.469-.071-.066-.173-.066-.142 0 .071.21.122.325.071.258l-.397-.324c-.071-.067-.224-.115-.183-.02l.122.287c.02.048-.255-.095-.55-.353h-.102c-.193 0 .184.258.133.305-.082.048-.194-.019-.275-.172-.051-.095-.102-.114-.224-.095a.443.443 0 0 1-.224 0c-.183-.02-.183-.096.02-.162Zm.845-.516c.326-.24.682-.325 1.08-.163.457.268.63.191 1.027.478.337.239.825.449 1.405.64.102.029.082.076-.081.162-.275-.172-.479-.286-.305 0-.031.02-.072 0-.102-.047-.306-.258-.55-.383-.723-.373-.224-.258-.326-.277-.275-.067-.02.076-.05.048-.122-.028-.255-.354-.377-.402-.356-.144 0 .048-.03.048-.102-.028-.224-.383-.275-.402-.173-.03-.02.03-.072.03-.122-.028-.194-.353-.204-.325-.204-.114-.295-.383-.356-.325-.295-.067-.194-.258-.275-.268-.275-.067-.153-.143-.275-.124-.397-.029-.071-.01-.071-.048.02-.095Zm1.924-.096c.377.029.754.162 1.11.354.02.047.03.076-.03.047-.133-.095-.255-.143-.357-.143.03.143.02.21-.05.191-.133-.23-.255-.258-.357-.21-.03.019-.051.029-.082.019-.101-.21-.152-.21-.203-.134-.112-.076-.112-.124-.03-.124Zm1.66-1.28c.122-.162.152-.267.122-.42-.02-.134.122-.115.132 0 .03.22 0 .401-.122.516-.081.047-.193 0-.132-.096Zm.906 1.71c.193.143-.02.268-.184.124-.458-.372-.6-.879-.702-1.347-.03-.143.071-.19.102-.028.122.439.326.85.784 1.251Zm-.56-3.668c-.306.076-.346.048-.082-.115a1.35 1.35 0 0 1 .245-.162c.183-.115.397-.143.58-.163-.295-.171-.855.096-1.415.354-.173.076-.224.029-.082-.096.224-.19.357-.238.672-.372.285-.115.58-.143.876-.143.203-.172.397.066.173.257-.071.067-.153.096-.244.144-.245.162-.49.229-.723.296Zm-.407 0c-.051.019-.102 0-.123-.029 0-.028.03-.067.082-.076.05-.02.102 0 .122.028 0 .03-.03.077-.081.077Zm-.856.019a.879.879 0 0 1-.753.124c-.193-.048-.122-.143.051-.162.193-.02.448-.077.784-.22l.397-.172c.183-.076.224-.067.071.077-.173.152-.397.238-.55.353Zm1.314-.764c0 .028-.03.067-.082.067-.03 0-.071-.029-.071-.067 0-.029.03-.067.071-.067.051.01.082.038.082.067Zm-1.935.305a3.149 3.149 0 0 1-.651-.372c-.051-.076-.102-.134.132-.076.184.124.448.162.703.162l.02.124c.407 0 .835-.172 1.262-.449-.02-.019-.101-.029-.183 0-.305.143-.275.048.306-.23.091-.047.152.02.295-.028l.376-.076c-.305.258-.62.516-.956.754-.479.258-.906.325-1.304.191Zm2.546-.573v.096c-.072.019-.072.019-.133.029-.071.019-.132-.03-.02-.067.071-.029.091-.039.152-.058Zm.07-.353c.204-.02.428-.02.652.019.428.143.255.267-.02.172-.173-.096-.377-.086-.61 0-.021.162-.306.029-.48.143-.121.048-.132.02-.07-.086.152-.124.325-.229.529-.248Zm.978.43c.02.143-.02.258-.122.325.05-.306-.102-.277-.132-.45.132 0 .234.02.254.125Zm.377-.249c-.092.077-.102.191-.102.43a.381.381 0 0 1-.204.354c-.081.028-.122 0-.081-.115l.132-.239c.051-.21.03-.334 0-.382-.05-.258.102-.296.255-.048Zm-.346 1.042c-.051.028-.102.028-.123-.02-.03-.028 0-.076.072-.114.05-.02.102-.02.122.019.02.029 0 .095-.071.115Zm.02.974c.132.124.132.306.02.516-.081-.067-.183-.029-.254-.124-.02-.067-.071-.03-.03-.277a.355.355 0 0 0-.031-.268c-.051-.162.02-.172.224-.095.122.105.142.181.071.248Zm-1.181-.611c-.03.047-.081.066-.102.047-.03-.019-.03-.067 0-.114.03-.048.072-.067.102-.029.03.02.03.067 0 .096Zm.58-.459c-.05.191.102.334.02.525-.05.172-.447.144-.447-.019 0-.267.173-.449.427-.506Zm.082-.21c-.051-.258-.153-.401-.306-.449-.07-.02-.101-.02-.173-.02V6.69c.123-.028.224-.019.357-.019.224.067.325.172.346.325-.051.143-.112.22-.224.258Zm.275.095c-.051.03-.102.048-.122.02-.02-.02-.02-.067.02-.115.05-.029.102-.048.122-.02.03.02.02.077-.02.115Zm-.153.42c-.081-.123.02-.171.102-.085.102.086.173.19.173.305.02.115-.122.21-.204.115-.081-.095.02-.191-.071-.334Zm-.733.622c.081-.144.224-.191.427-.172.153 0 .245.028.245.172 0 .143.02.305-.02.43-.051.124-.072.114-.245.124-.193 0-.254-.077-.458.028.122-.258-.02-.372.05-.582Zm-.51.477c-.02-.028.021-.086.103-.095.071-.029.152-.029.173 0 .02.038-.02.086-.102.114-.071.02-.163.02-.173-.019Zm-1.984 4.08c.183.448.152.582-.133 1.04.163-.382.184-.563.133-1.04Zm1.211 4.068c0 .067-.03.134-.081.134-.03 0-.072-.067-.072-.134 0-.066.031-.114.072-.114.05.01.081.057.081.114Zm.194.02c0 .095-.03.171-.072.171-.03 0-.05-.076-.05-.172 0-.114.02-.19.05-.19.03 0 .072.076.072.19Zm.437-1.634c-.02-.286-.02-.563-.03-.831-.051-.02-.102-.02-.173-.029 0 .258-.03.516-.082.87-.02-.306-.03-.593-.03-.88-.051-.018-.102-.028-.153-.047-.02.239-.071.487-.132.803 0-.287 0-.545.02-.832-.05-.019-.102-.028-.153-.047-.02.324-.05.611-.07.945-.052-.42-.082-.707-.052-.993-.05-.02-.102-.029-.142-.067-.082.382-.122.726-.082 1.108-.122-.497-.132-.783-.02-1.137-.03-.028-.071-.047-.102-.067-.05.134-.132.277-.234.43.081-.162.122-.324.173-.468l-.173-.095c-.03.21-.143.42-.305.707.224-.516.244-.994.254-1.605.051.239.082.43.082.611l.193.077c.03-.277.05-.526.05-.832.082.354.123.612.072.85.051.02.102.049.153.049l.081-.125c-.02.048-.03.096-.05.144.03 0 .08.019.122.019.03-.096.05-.21.101-.335 0 .124-.02.24-.02.373.05 0 .081.019.132.019 0-.086.02-.172.02-.277.031.115.031.191.052.287.05 0 .122.019.173.019v-.373c.03.143.07.258.081.373.071.019.132.019.204.019 0-.134 0-.24.02-.382.03.143.051.277.081.382h.174v-.573c.07.229.101.4.122.563.05 0 .102-.019.152-.019 0-.134-.03-.277-.05-.42.07.143.122.277.132.401.03 0 .071-.02.102-.02-.02-.142-.051-.286-.072-.448.072.162.123.287.153.42.03 0 .071 0 .102-.019-.03-.22-.051-.468-.102-.735.397.917.397 1.327.03 2.264.082-.335.123-.66.103-.994-.031.02-.051.02-.082.029-.02.172-.071.382-.173.64.05-.21.081-.42.071-.63a.206.206 0 0 1-.102.028c-.02.143-.07.306-.132.516.03-.172.051-.335.051-.497-.05 0-.102.02-.153.02-.02.21-.05.429-.102.725 0-.239-.02-.478-.02-.707h-.173c0 .21-.04.459-.092.793Zm-.183 1.844c-.071 0-.142-.029-.142-.048 0-.029.07-.067.142-.067.082 0 .153.029.153.067 0 .019-.071.048-.153.048Zm.173.162c.03 0 .072.029.072.067 0 .048-.031.076-.072.076-.02 0-.05-.028-.05-.076 0-.038.03-.067.05-.067Zm.662.267c-.03-.095-.153-.143-.397-.143-.102-.028-.102-.124 0-.143h.631c.204 0 .234.096.102.277.071.315-.356.525-.336.01Zm.346-7.326c0 .019-.02.028-.05.028-.021 0-.052-.019-.052-.028 0-.029.03-.048.051-.048.03 0 .051.02.051.048Zm-.204-.707c0 .048-.07.096-.152.076-.092 0-.153-.047-.133-.095 0-.048.072-.096.153-.086.071.01.143.057.133.105Zm.53.067c-.02.172-.03.372-.102.678-.03.067-.071.029-.102-.029.02-.21.051-.382.082-.64h.122v-.01Zm-.102-.143c0-.03.02-.067.02-.115.082-.076.123-.134.123-.048 0 .067 0 .115-.02.163h-.123Zm.631.22c0 .047-.071.076-.132.066-.082 0-.133-.048-.133-.095 0-.029.072-.067.133-.067.081 0 .132.048.132.095Zm.102-.316-.55.162.03-.324c-.152-.048-.254-.02-.305.114l-.02.115a.502.502 0 0 1-.183-.143c-.071-.067-.194-.029-.428-.02-.05 0-.122-.019-.152-.019l.101.144a.781.781 0 0 0-.193.229c.071 0 .142 0 .204.029.173.114.356.095.529.047v.43l-.102.02c-.081.028-.102.123-.03.162l.285.124c.122.048.173-.096.173-.191l.07-.497.235.096c.081.019.153 0 .255-.029v.382l-.082.115c0 .114-.03.19-.142.239 0 .143-.02.238-.072.258-.173.171-.224.305-.427.448a.534.534 0 0 1-.326-.028 1.095 1.095 0 0 1-.326-.258l-.102-.029.031-.133-.102-.02.03-.124-.132-.019.051-.124-.101-.067.08-.21-.1-.029.121-.162h-.193l.142-.096-.152-.028c-.03-.382.03-.669.224-.87.336-.076.661-.143.906-.114.387.048.651.162.753.325v.095Zm1.08 1.586a1.18 1.18 0 0 1 .722-.258.95.95 0 0 0 .305.019c.143.076.082.143-.07.172-.072-.048-.133-.067-.204-.029-.153.029-.174.124-.275.163l-.072-.096c-.203.124-.346.478-.498.66l-.031-.173c-.102.02-.173.22-.326.335.02-.125-.02-.191-.071-.191-.255.162-.448.238-.51.171 0-.114.439-.41 1.03-.773Zm3.155-.21c.305.028.285.258-.03.238-.805-.028-1.365-.019-1.762.23a4.655 4.655 0 0 1 1.63-.067c.08 0 .07.048.02.076a.324.324 0 0 1-.224.048c-.153-.02-.306-.029-.479-.048-.61-.019-1.16.096-1.557.545h.122c0 .028-.072.124-.173.172-.082.047-.082.124-.123.172a.833.833 0 0 0-.152.277l.132.047c-.224.277-.377.45-.407.373.03-.478.203-.917.53-1.3.376-.439 1.058-.878 2.473-.763Zm1.049.238.03.02c-.05.277 0 .61.173.926.03-.067-.05-.382-.071-.659v-.239l.132.029c.02.325.133.62.285.659-.122-.172-.132-.401-.132-.592l.183.047c0 .335.122.707.285.726-.152-.19-.152-.448-.132-.659l.03.02c.031.133.082.257.153.324.071-.076.03-.239-.02-.42.193-.096.407-.076.651.067.082.095.051.143-.07.143h-.123l.275.115c.02.028.071.067-.082.076l-.102.076.357.03c.122.047.102.076.071.123l-.081.096c.305 0 .63.067 1.028.258-.02.124-.173.114-.458-.029.071.162.346.172.326.277-.031.172-.448.02-.632.239l.458.02c.102.066.072.114-.081.114.234.277.428.353.499.162.071-.143.142-.143.203 0 .286.162.336.172.174.21l-.275.048.325.048c.082.028.082.095.03.143-.223.029-.243.067.174.077.173.076.244.162.173.229-.356.019-.346.067.082.095.101.048.132.115.122.163-.224.047-.184.095.081.095.03.048.071.077.02.124-.254.067-.223.096.102.096.02.114.204.095.275.239.275-.048.397.124.153.124l-.02.048c.396.019.56.114.508.334-.03.095-.56-.191-.346.573l.082.076c.152.03-.02-.353.244-.324.03.019.071.124.02.325-.05.171-.173.257-.356.143-.173-.115-.275-.22-.254-.354l.02-.238c-.183.019-.224-.096-.244-.277 0-.03-.072-.02-.051-.067-.306-.048-.448.047-.53.258-.02.076-.081.019-.122-.067.02-.048-.101.019-.173-.02-.05 0-.03-.114-.081-.095-.03 0-.03.048-.102.048-.05-.02-.03-.124-.132-.029-.072.067-.082.067-.102-.028.02-.077.091-.24-.102-.02-.071.03-.081.03-.122-.047-.102-.268-.173-.287-.204-.048-.05.095-.101.115-.101-.029-.102-.42-.123-.42-.082-.019-.02.172-.071.162-.173-.048-.122-.334-.173.029-.255-.124-.122-.19-.03-.468-.244-.544l.122.563c0 .077-.132.096-.152-.028-.072-.373-.326-1.013-.275-.803l.152.774c.02.067-.173.029-.203-.067l-.204-.965c-.05-.277-.05.516.072.85 0 .048-.133.048-.123-.019 0-.076-.152-.993-.203-.945-.123.114.203 1.031-.051.879-.03-.02-.122-.927-.153-.946-.02 0 0 .879-.03.87-.275-.326.02-1.185-.174-1.233-.03 0-.122 1.06-.152 1.032.122.821.824.85.774 1.088l-.5-.238c.133.239.347.496.48.773-.154.048.02.24.121.335-.152-.02-.122.086.173.334.072.048.082.096.072.143-.357-.076-.397-.076.193.354-.356-.048-.377-.02.03.239a.432.432 0 0 1 .174.238c.02.067-.051.03-.082.03a1.539 1.539 0 0 1-.203-.116c-.102-.019-.03.115.448.45.122.095.173.171.081.21-.58-.335-.55-.258.081.258.153.229.173.324.123.353-.51-.401-.856-.66.03.172.153.143.194.239.071.258-.885-.63-.407-.21.194.372.03.029 0 .077-.03.067-.856-.592-.886-.449.02.43.03.076.081.143.05.21-.02.029-.08 0-.122-.019-.61-.544-.56-.43.133.468.102.143.152.277-.02.191-.774-.821-1.008-.993-.021.258.102.163.122.239-.02.191-.703-.898-.723-.783-.03.172.05.115.05.124 0 .115-.632-.726-.826-.898-.032.162.102.191.082.23-.02.134-.773-.898-.784-.784-.03.143.07.115.101.172-.02.134-.886-.946-.886-.917-.031.115.02.257.02.238-.153.114-.081-.095-.081-.172-.173-.258-.55-.62-.61-.573.03.23-.07.066-.152.066-.254-.02-.59-.687-.641-.687-.193-.028l-.306-.048c-.05-.096-.102-.143-.173-.21-.53-.487-.723-.526-.193.095.02.02-.03.029-.02.048l-.601-.095a.287.287 0 0 1-.224-.115c-.255-.42-.408-.583-.835-.965.03.143.356.401.61.802.072.258-.244.144-.345.096-.194-.239-.255-.277-.53-.573-.773-.85-1.588-1.815-2.26-2.484.03-.114.03-.238.051-.353.55.802 1.334 1.652 2.21 2.407-.072-.315-1.161-1.204-1.833-2.035-.133-.229-.255-.43-.346-.61.02-.097.02-.173.03-.288.458.88 1.201 1.7 2.22 2.532-.123-.287-1.181-1.09-1.741-1.94a6.626 6.626 0 0 1-.448-.83v-.144c.468.87 1.262 1.768 2.22 2.532-.103-.287-1.202-1.127-1.732-1.94a6.302 6.302 0 0 1-.458-.85v-.162c.448.831 1.436 1.958 2.342 2.694-.102-.277-1.334-1.28-1.843-2.073-.224-.373-.377-.66-.458-.879v-.23c.377.832 1.334 1.94 2.27 2.666-.102-.277-1.282-1.184-1.761-1.94a4.998 4.998 0 0 1-.478-.926c0-.086 0-.172.02-.238.326.85 1.232 1.881 2.189 2.57-.102-.24-1.202-1.07-1.64-1.778-.295-.468-.427-.773-.529-.993 0-.096 0-.172.02-.268.275.832 1.13 1.844 2.088 2.55-.072-.238-1.1-.992-1.538-1.67-.325-.517-.427-.85-.529-1.08v-.048c.02-.095.02-.21.03-.306.194.832 1.008 1.91 1.986 2.646-.072-.21-1.008-.964-1.405-1.585-.377-.592-.458-.946-.58-1.137.315-2.33 1.354-3.697 2.88-3.936Zm.03-.22c-.05-.047-.132-.162-.071-.21.071-.047.173.048.193.144.03.095-.05.124-.122.067Zm-.631-.678c.53.096.998.163 1.283.383.173.114.03.22-.082.143l-.356-.172c.02.143-.122.076-.326-.076-.132.124-.305.066-.499-.134l.122.325c.02.066-.05.066-.081.019l-.224-.277c-.132-.144-.04-.23.163-.21Zm1.66.516c.457-.019.824-.258 1.353.02l.245.257c.152.335.02.497-.184.258-.101-.143-.02-.267-.274-.382.132.239.234.478.234.755.397.353.04.43-.072.21l-.152-.66c.03.326.05.564 0 .564-.123 0-.051-.22-.102-.496-.03-.115-.071-.325-.133-.335-.285-.095-.56-.019-.783 0 .376-.019.63 0 .722.096a.526.526 0 0 1 .082.497c-.082.124-.143.095-.143-.067l-.05-.21c-.02-.115-.153-.134-.347-.115-.122.02-.254.048-.397-.029-.05-.028-.173-.076-.02-.114-.173-.105-.102-.24.02-.249Zm3.226 5.36c.072.066-.173.133-.397-.068-.254-.229-.132-.43.051-.258l.346.325Zm-1.343 6.361c.02.02.02.048 0 .067l-.072.048c-.02.019-.05.019-.07-.02l-.276-.305c-.02-.02-.02-.048.02-.067l.072-.048c.02-.019.05-.019.071.02l.255.305Zm0 .774c-.03.019-.102-.029-.153-.124-.051-.077-.051-.163-.02-.172.03-.02.101.028.152.114.051.086.051.163.02.182Zm-.041.774c-.224-.468-.499-.831-.784-1.233-.122-.162.051-.238.183-.047.275.43.53.802.713 1.222.091.182-.02.23-.112.058Zm.326-1.863c.122-.02.275.114.305.286.051.191-.03.354-.153.383-.132.019-.274-.096-.325-.287-.03-.191.04-.353.173-.382Zm.122-1.977c0-.21.153-.21.153.028.03.526-.031 1.07-.102 1.634 0 .076-.153.229-.153.047.01-.659.102-1.213.102-1.71Zm.53 4.556c0 .239-.204.258-.225.029-.071-.564-.081-1.09-.203-1.557-.072-.306.03-.354.152-.067.184.43.285.955.275 1.595Zm.355-.162c.031 0 .051.028.051.066 0 .03-.02.067-.05.067-.031 0-.051-.028-.051-.067 0-.028.02-.066.05-.066Zm.102-1.5c.03-.02.102.048.153.124.03.076.051.162 0 .172-.03.029-.102-.029-.142-.115-.041-.076-.041-.172-.01-.181Zm-2.443-.44c.397.516.733 1.032 1.008 1.557.153.325 0 .402-.153.115-.325-.62-.753-1.175-1.16-1.681-.092-.134.132-.21.305.01Zm-3.023-1.165c-.713-.783-1.507-1.7-2.138-2.36.02-.095.03-.171.05-.257.51.611 1.517 1.748 2.098 2.426.305.354.295.334.458.516 0 .076-.071.048-.183.019-.153-.172-.133-.153-.285-.344Zm-.723-.306c-.672-.735-.896-1.022-1.507-1.671.02-.096.051-.191.071-.306.55.64 1.456 1.672 2.006 2.293.173.21.05.114.173.238.132.115-.153.115-.234-.047-.082-.077-.438-.411-.51-.507Zm-1.609-1.337c.03-.076.051-.162.072-.239.56.64.855.946 1.354 1.529.07.076.478.544.55.611a.281.281 0 0 1-.245-.02c-.621-.687-1.15-1.25-1.73-1.88Zm-.112.401c0-.028 0-.047.02-.076.031-.067.052-.124.082-.21.51.592 1.08 1.184 1.517 1.729-.05.047-.153.047-.285-.02-.468-.525-.896-.936-1.334-1.423Zm-.091-.363c-.072-.019-.082-.134-.051-.229.05-.115.122-.191.183-.172.05.029.071.134.03.239-.02.095-.111.172-.162.162Zm.02.88c0-.125 0-.268.03-.421.398.468.754.821 1.14 1.28-.05.048-.121.048-.223 0-.316-.315-.59-.526-.947-.86Zm.407.868c-.254.02-.305-.028-.326-.277.123.115.224.163.326.277Zm-.336-.42c-.02-.096-.03-.21-.05-.306.295.277.55.43.824.707a.229.229 0 0 1-.255.029c-.183-.172-.356-.268-.519-.43Zm-1.965-1.184c.337-.63.835-1.032 1.304-1.376.407-.306.671-.821.885-1.395.102-.238.255-.124.122.258-.223.66-.773 1.156-1.14 1.424-.407.324-.682.678-1.079 1.184-.112.143-.203.077-.091-.095Zm.387-7.843c-.02-.029 0-.095.051-.143.072-.048.122-.067.153-.048.03.029 0 .076-.05.143-.052.048-.113.058-.154.048Zm.122 1.232c.072.134.102.22.072.24-.02.018-.102-.068-.194-.173-.07-.124-.101-.22-.07-.239.02-.019.111.058.192.172Zm-.03 2.37c.03-.049.102-.068.132-.049.03.03.03.096-.02.144-.03.067-.102.076-.153.048-.01-.03-.01-.086.041-.144Zm1.435-.526c-.285.373-.478.497-.58.353-.224.258-.458.42-.631.564l-.153.401c-.071.096-.081.124-.102 0 .02-.353.123-.516.275-.611 0-.124.03-.22.133-.287.376-.162.63-.496.957-.592.101-.239.305-.373.58-.707.193-.172.244-.134.153.143-.102.316-.275.574-.632.736Zm-.977 2.694c.356-.115.652-.354.906-.64.275-.163.224-.02.133.162-.102.162-.174.21-.347.306-.203.162-.509.305-.753.401a1.83 1.83 0 0 0-.825.544c-.152.115-.224.067-.173-.162.153-.277.53-.449 1.06-.611Zm.02-1.538c-.081.162-.203.382-.203.783 0 .325-.428.258-.275-.115.153-.382.204-.592.356-.725.183-.172.234-.153.122.057Zm.662.707c-.071.267-.275.563-.702.707-.357.133-.458-.03-.224-.172.254-.144.478-.287.651-.526.245-.334.346-.344.275-.01Zm-.377-.096c-.07.067-.183.067-.122-.029l.326-.61-.407.524c-.122.144-.132.03-.082-.076l.275-.62c.072-.23.184-.354.347-.373l.376-.335c.082-.095.133.029.082.115l-.275.42c-.061.325-.194.63-.52.984Zm1.1-1.175c-.02.115-.02.239-.132.268-.03.43-.082.783-.224.898-.204.238-.275.21-.204-.115l.122-.573c.02-.22.102-.43.255-.612l.193-.477c.051-.191.133-.172.133.067l-.123.305c.092.048.041.144-.02.24Zm-.54-1.729c.255-.42.652-.85 1.11-1.251.336-.22.407-.172.224.172-.499.659-.987 1.442-1.435 1.671-.204.02-.357.134-.479.306l.305-.143c.153-.02.174.028.072.124-.255.134-.682.755-.784.354-.173.305-.458.257-.479.563l-.03.401c-.071.115-.122.115-.194 0-.05-.573.082-.917.377-1.108.784-.449 1.059-1.108 1.313-1.089Zm-1.007-.678c.05.095.07.172.05.191-.02.02-.081-.048-.132-.143-.071-.096-.081-.191-.071-.191.02-.01.091.047.153.143Zm-.01-.459c-.072-.124-.082-.238-.031-.238.05 0 .173.095.254.239h-.224Zm.274.058c.03.076.072.143.072.19h-.194c-.03-.047-.071-.095-.102-.162-.02 0-.02-.019-.02-.028h.244Zm.112-.879c-.203.067-.152-.124-.03-.048l.203-.258a2.67 2.67 0 0 1 .631-.573c.194-.019.224.029.082.143l-.244.115c.03.115-.123.401-.224.43-.082.019 0-.268-.133-.048l-.285.239Zm-.163 1.156h.153c0 .048 0 .076-.03.076-.031 0-.072-.028-.123-.076Zm2.25-.736c-.173 0-.407.144-.804.612-.102.124-.224.019-.082-.144.245-.277.53-.468.805-.573.326-.143.305.105.081.105Zm-.865-.802c.377-.22.804-.354 1.303-.287.305.029.305.21.132.191-.478-.066-.936-.047-1.405.163-.173.076-.132-.01-.03-.067Zm-.367.62c-.05.048-.07 0-.02-.123.305-.335.835-.564 1.832-.545.204.02.174.21-.02.191-.153-.019-.326.048-.478.077-.194.047-.397.066-.56.162-.346.172-.652.468-.927.87-.102.047-.122.018-.07-.096.345-.573.752-.88 1.18-.917l.02-.029c-.234-.057-.529.048-.957.41Zm-.224.832c.428-.66.886-.994 1.354-1.127.153.019.224.067.102.19-.377.144-.733.421-1.079.803.03.143-.03.277-.204.373 0 .239-.152.353-.407.382l-.376.449c.081.114-.051.286-.326.544-.173.172-.244.124-.204-.162.204-.526.6-1.3.784-1.3.102 0 .102-.028.143-.21.02-.124.152-.095.122 0-.02.144.01.163.091.058Zm-2.097-1.7c-.02-.125.03-.258.194-.373.101-.067.132.048.081.115-.102.114-.193.114-.275.258Zm-.081 2.025a.645.645 0 0 1 .173.143.521.521 0 0 0-.071-.382c.173.076.274.23.285.43a.543.543 0 0 0-.03-.45c.152.048.254.173.396.383l-.03.325c.03.095.03.171-.02.238-.072-.076-.133-.114-.225-.066l-.02.257c-.05-.114-.122-.124-.194-.047l-.244.21-.071-.143-.03-.64.101-.067-.02-.191Zm.081 6.037c.082-.373.306-.688.631-.946.357-.258.754-.372 1.212-.66.132-.075.173-.028.081.144-.203.21-.427.306-.672.334-.376.077-.63.383-.885.774l.753-.516c.173-.047.204 0 .102.125-.804.382-.703.869-1.028.974-.072-.076-.051-.191.03-.334l-.224.105Zm1.13.506c0 .096-.03.162-.05.162-.031 0-.052-.066-.052-.162 0-.076.02-.162.051-.162.01 0 .051.086.051.162Zm.713-.974-.58.477c-.184.096-.408.401-.733.87-.204.076-.224.028-.102-.115.081-.143.254-.277.356-.401.082-.134.082-.24.183-.335.245-.305.5-.563.805-.773.346-.21.6-.593.824-1.118l.03.096c-.08.754-.335 1.203-.783 1.299Zm-.082.735c-.173.21-.274.468-.407.688-.05.095-.203.21-.173-.048.051-.305.204-.573.479-.755.234-.152.285-.105.101.115Zm-.305-.076c-.153.143-.193.124-.102-.067a.932.932 0 0 1 .55-.43c.204-.048.132.067.071.115-.183.124-.366.22-.519.382Zm9.926 5.254c.173 0 .326.085.397.21.081.124.203.258.356.372-.397-.573-.407-.821-.071-.611.305.172.478.468.427.898.082.22.051.277-.397 0-.173-.096-.193-.143 0-.22l-.529-.382c.458.678.122.497-.224.029.255.525.071.334-.275.076h-.081c.6.449.102.334-.296.067l-.07.029c1.038.687-.052.324-.51.047.326.277.703.468.621.478-.244.067-.682-.134-1.201-.334.407.239.774.382.55.449-.082.047-.479-.125-1.16-.383-.174-.028-.225-.019-.153.048.6.21.936.382.875.468-.102.115-.56-.095-1.212-.4-.183-.077-.407-.163-.63-.278.376.373 1.862.87 1.557 1.013-.122.047-.377-.048-.703-.21a15.011 15.011 0 0 1-1.231-.736 40.729 40.729 0 0 1-.937-.755l-.02.077c.885.917 2.596 1.729 2.066 1.7-.203 0-.132.02-.305-.067-1.191-.573-2.016-1.49-2.596-2.245l-.03.03c.732 1.078 2.107 1.957 1.964 2.072-.132.096-.987-.564-1.537-1.118-.397-.382-.458-.544-.886-1.089l-.02.125c1.15 1.814 2.637 2.149 2.321 2.369-.092.066-.143-.02-.224-.067-1.364-.774-1.74-1.682-2.463-2.484l-.031.067c.478.726 1.262 1.519 1.934 2.264.082.095.02.19-.071.143-.733-.449-1.405-1.423-2.148-2.503l-.02.067c.63 1.137 2.015 2.503 1.608 2.407-.081-.038-.377-.42-.703-.85a23.725 23.725 0 0 0-.702-.917l-.03.115c.346.497.855 1.041 1.028 1.49l-.051.02-1.11-1.367-.071.067c.458.544 1.028 1.175.936 1.318l-.977-1.06c.051.325.377.592.275.678a2.855 2.855 0 0 1-.499-.688c-.071-.114 0 .172-.081.077a17.325 17.325 0 0 1-1.894-2.436c-.102-.162-.07-.172.122-.067l1.365 1.347c-.876-.898-1.466-1.605-1.334-1.72.458.526.957 1.023 1.507 1.49-1.1-1.174-1.568-1.728-1.436-1.719.285.163.978.927 1.537 1.51-.773-.994-1.73-1.815-1.73-1.978 0-.076.204-.076.275 0 .458.593 1.028 1.137 1.608 1.72-.427-.63-1.537-1.624-1.486-1.72.05-.076.173-.076.346 0a8.4 8.4 0 0 0 1.313 1.443c-.376-.497-1.252-1.328-1.16-1.443.02-.028.152-.067.224.02.173.257.376.448.6.735.153.172.357.372.56.544l-1.038-1.27c.03-.029.071-.048.102-.029.05 0 .101 0 .152.048.224.401.611.755 1.008 1.175l-.875-1.156c.02-.095.305-.048.376 0l.733.994c-.305-.688-.753-1.023-.529-1.013.224.029.377.21.57.449.122.162.255.277.346.382l-.478-.726c0-.067.173-.029.326.048l.325.334-.153-.286c.02-.096.133-.048.224 0l.286.43.05-.03c-.173-.267-.295-.4-.203-.43l.254.03.245.258c-.072-.287.224-.22.702-.067.306.095.6.43.876.964-.072.03-.194-.114-.326-.267-.071-.076-.102-.115-.204-.21.346.544.682 1.07.733 1.347-.102.076-.478-.526-.906-1.233.224.564.51 1.06.6 1.28-.05.02-.203-.258-.427-.592-.071-.095-.152-.143-.224-.258l.55 1.032c.102.048.173.162.102.306-.102.172-.03.238.173.4.204.125.651.211 1.232.125.733-.105 1.517-.248 2.32-.267Zm-.56-2.045.081.21.072-.143c.122-.067.132 0 .081.191l-.03.688c-.072.096-.123.277-.184 0l.102-.63-.122.229c-.102 0-.122-.096-.143-.287-.01-.229.01-.315.143-.258Zm.651-.2c.051-.144.123-.163.204-.077.305-.468.244-.21.102.144l.081.047c.377-.659.224-.124.184.163-.275.325-.459.382-.55.162l-.082.42c-.07.191-.122.22-.152.077.02-.306.091-.63.213-.936Zm-4.174 8.3c.072.192.224.478-.224.077-.274-.134-.305 0-.08.401l.457.621c.03.287.153.526.397.736l.377.726c0 .114.071.22.102.324.05.278.122.42.356.45-.244.43-.55.83-1.059 1.089-1.008.515-1.812.305-1.73-.946.05-.678.183-1.232.203-1.93.285-1.07.02-1.624-.977-1.681-.51.02-.906.02-1.191.21-.275.172-.672.115-1.201-.172-1.029-.726-1.792-1.108-2.311-1.108.498.526.63 1.06.244 1.586.407.172.397.353-.02.525-.988.029-2.098-.162-3.268-.468-.377-.067-.448 0-.183.191.855.325 1.313.803 1.313 1.48-.55.02-1.008.049-1.263.096-.244.144-.498.134-.733-.143-.61-.592-.682-1.127.02-1.576.398-.258.978-.85 1.69-1.748.48-.029.907-.124 1.385-.191 1.914-.22 3.726-.612 5.182-1.366.275-.077.478-.029.6.162l1.13 1.395-.325.114.855.612c-.153.114-.05.19.132.258-.101.143-.03.286.122.277Zm.072-.601c.05 0 .102.048.102.115 0 .047-.051.095-.102.095-.072 0-.122-.048-.122-.095a.12.12 0 0 1 .122-.115Zm.081-1.022c.082-.077.184-.124.224-.096.03.029-.02.115-.102.21-.081.077-.193.144-.224.115-.03-.038.02-.134.102-.23Zm.153.582c-.051.03-.071.144-.071.42-.102-.21-.122-.381-.072-.544.123-.286.245-.372.346-.372.214.2-.132.334-.203.496Zm-.132 1.042c-.072-.02-.082-.096-.031-.172.03-.077.102-.124.153-.096.071.02.081.096.03.172-.03.077-.102.124-.152.096Zm.386.267a.302.302 0 0 1-.254.115c-.081-.029-.102-.134-.051-.21.05-.077.173-.144.275-.115.091.038.102.115.03.21Zm.163.325a.183.183 0 0 1-.224-.048c-.03-.048-.02-.114.072-.143.081-.029.173-.02.224.029.04.066.01.124-.072.162Zm-.07-1.634c.152-.162.223-.019.396.048l-.204.096.224.067-.203.095.377.172-.235.067.306.172-.275.067c.275.076.448.143.428.23l-.296.066c.122.048.357.067.377.162.02.077-.194.029-.275.048l.255.163h-.235l.174.085c-.02.144-.082.22-.184.24-.275-.03-.05-.192-.244-.421-.53-.669-.489-1.213-.387-1.357Zm1.363 1.663c.03-.048.03-.134-.05-.144-.082-.019-.133-.019-.184-.095-.071-.191.03-.287.204-.334.132 0 .183.047.152.124l-.081.066c.153.048.254.096.305.172-.081 0-.142.02-.152.077.285-.048.274.382.02.306-.173-.048-.254.019-.173.286.071.325.305.401.285.067-.03-.162.55-.191.621.162l-.224-.086c.05.258.275.144.305.373l-.183.02c.224.142.397.324.479.524-.245-.028-.255-.277-.479-.277.285.373.631.287.804.66-.244-.02-.529-.191-.855-.478.295.382.479.707.407.87-.427-.182-.508-.775-.682-.947 0 .306.245.488.153.822-.173-.191-.254-.497-.254-.974.173.028.244-.077.244-.354-.03-.286-.183-.267-.153 0 0 .21-.152.277-.61.02-.072.066.03.143.295.286l-.02.239.132-.21.05.668c-.02.172-.07.144-.122-.028l-.05-.335c0 .239-.031.354-.123.335l-.071-.63-.193.219-.051-.354-.173.125v-.42c-.122.066-.255.018-.397-.173.193.048.305.02.458-.066-.072-.325.081-.488.366-.516Zm-1.211 4.976c-.03.096-.102.163-.143.144-.02 0 0-.096.03-.191.052-.096.103-.163.133-.144.03 0 .01.096-.02.191Zm-.275 0c-.082.125-.173.24-.224.23-.051-.02-.03-.144.05-.287.072-.143.174-.239.225-.22.04 0 .02.134-.051.277Zm.102 2.436c.132.029.122.191.122.306-.082-.086-.173-.182-.255-.086-.244-.172-.325-.077-.498-.029.07-.162.325-.315.63-.19Zm-.682-2.713c-.051.115-.122.191-.153.172-.03-.019-.02-.114.03-.22.051-.124.123-.21.153-.19.04.019.02.114-.03.238Zm-.805 2.436c-.03.077-.132.067-.325-.047-.275-.163-.204-.325.081-.469.112.277.59.459.244.516Zm-.07.707c-.052 0-.103-.029-.103-.076 0-.067.051-.096.102-.096.071 0 .122.029.122.096 0 .047-.05.076-.122.076Zm-.337 0c-.02 0-.05-.029-.071-.095-.02-.048-.02-.096.02-.115.02 0 .051.029.072.096.01.057.01.105-.02.114Zm-.152.115c-.031.019-.092-.029-.123-.134-.02-.076-.02-.162.02-.162.031-.02.082.047.123.133.01.086.01.163-.02.163Zm-.072-2.12c.082-.096.183-.144.224-.115.051.028.02.133-.071.229-.081.095-.173.143-.204.114-.05-.028-.02-.124.051-.229Zm-.122-.268c-.03-.02-.02-.115.05-.191.021-.03.052-.048.072-.067-.02-.02-.02-.029-.03-.029-.072.077-.153.115-.184.096-.03-.03-.02-.115.051-.191 0-.02.02-.03.03-.03-.03-.028-.03-.047-.05-.066-.05.029-.082.048-.122.029-.02-.02 0-.077.05-.144-.03-.067-.05-.124 0-.162.102-.076.153.038.255.239.03.076 0 .124.051.172.03.067.132.095.173.143.122.172.102.325.082.334-.03.02-.02-.019-.082-.143-.02.02-.03.029-.03.048-.072.067-.133.114-.153.076-.03-.019-.02-.095.03-.162l.072-.067c-.02-.02-.02-.029-.03-.048-.021.02-.021.029-.031.048-.082.096-.163.143-.204.115Zm-.407-5.904a.935.935 0 0 1 .58.593c.02.162 0 .238-.122.114-.061-.239-.234-.487-.458-.707Zm.427 1.022c0 .172-.081.287-.132.134-.071-.23-.193-.688-.427-.917.315.096.56.468.56.783Zm-.274.468c-.174-.22-.224-.563-.428-.802.295.191.407.22.55.669.03.181-.02.277-.122.133Zm-.082.354c-.132-.143-.203-.382-.377-.525.224.114.326.133.448.43.03.114.01.19-.07.095Zm-.102.449c-.03-.124-.173-.258-.203-.382-.02-.077.03-.067.102 0 .152.19.111.239.101.382Zm-2.31-2.274c.02-.019.08 0 .172.048.082.048.123.096.102.115-.02.028-.081.019-.173-.029-.071-.057-.122-.124-.102-.134Zm-1.477-1.003c.428.096.876.43 1.314.784.07.114.03.143-.072.095-.295-.086-.743-.573-1.242-.879Zm1.405 3.038c.03-.239.02-.468.051-.449.05 0 .132.239.102.468-.051.239-.122.43-.173.42-.051-.028-.01-.22.02-.439Zm-.407.057c.03-.19.102-.334.132-.334.051 0 .051.162.02.353-.03.192-.08.335-.142.335-.03 0-.05-.153-.01-.354Zm-.377.039c.02-.191.051-.354.102-.354.05.02.071.163.05.373-.03.172-.07.334-.121.334-.03 0-.051-.162-.03-.353Zm-.275.047c0-.172.03-.324.072-.324.03 0 .07.143.07.324 0 .172-.03.325-.07.325-.041 0-.072-.153-.072-.325Zm.927 3.124c.05.086.081.162.102.239l-.051.057c-.02-.095-.041-.2-.051-.296Zm2.036-.879c-.285.707-.703 1.137-1.059 1.605 0 .019-.03.029-.03.048-.02.019-.031.028-.051.067l.05-.077c-.02-.076-.03-.162-.05-.239a.39.39 0 0 1 .081.172c.051-.076.102-.162.153-.239-.02-.076-.03-.162-.051-.257.03.066.071.114.102.172.03-.067.081-.125.122-.192-.03-.076-.051-.171-.082-.267.051.067.082.134.123.191.05-.076.101-.162.132-.239-.02-.086-.051-.162-.071-.239.03.048.07.096.101.163.051-.144.082-.258.102-.354l-1.76 1.013c.152-.124.315-.23.457-.353-.02-.096-.03-.21-.05-.306.05.076.08.172.121.258.031-.029.082-.067.123-.096-.02-.133-.03-.258-.051-.382.071.115.102.23.132.325.05-.029.102-.076.153-.115-.02-.162-.03-.334-.072-.516.082.144.133.287.174.43.05-.048.081-.086.132-.114-.02-.23-.051-.478-.082-.726.123.229.204.43.204.611.03-.029.071-.048.102-.076a7.174 7.174 0 0 0-.102-.784c.132.24.224.478.244.669 0-.02.03-.029.051-.048 0-.258-.05-.611-.101-.926.172.305.254.592.223.802l.102-.095c-.02-.469-.193-.88-.346-1.319-.071.22-.071.306-.132.287.03-.258.02-.373-.03-.401-.031.353-.123.573-.245.687l.071-.573h-.102c-.081.42-.101.545-.274.688.07-.258.03-.449.03-.497a.323.323 0 0 1-.122.029v.048c.02.162.02.372-.194.63-.02-.23.082-.43.082-.659-.051.02-.081.029-.132.048v.22c-.02.095-.123.334-.133.353.02 0 .082-.468.03-.564-.03.02-.08.02-.121.03v.066c-.02.048-.02.096-.051.096-.02 0-.03-.03-.03-.077-.021-.02-.021-.048-.031-.067-.02 0-.051 0-.082.02v.018c.02.048.02.077 0 .096-.02 0-.05-.048-.081-.096-.03 0-.071.02-.082.02.02.076.02.114-.05.143-.082.028-.082-.048-.102-.124-.051.019-.102.019-.153.028.02.067 0 .115-.02.115-.02.019-.051-.029-.082-.096h-.132c.02.067.02.096 0 .115-.02 0-.051-.029-.082-.096-.02-.019-.02-.047-.03-.076-.051-.095-.072-.191-.051-.21.03-.02.081.048.132.162.02.029.03.077.03.115a.255.255 0 0 1 .123-.029c0-.028 0-.047-.02-.067-.031-.124-.031-.238 0-.258.03-.019.081.077.122.21 0 .02.02.048.02.077.051-.02.082-.029.132-.048-.02-.076-.02-.114-.02-.162 0-.067 0-.096.02-.096.02-.019.102.096.133.23.03-.02.05-.02.081-.029-.02-.02-.02-.02-.02-.029-.03-.095-.03-.133-.03-.19-.021-.048-.021-.068 0-.087.02-.019.101.115.132.22 0 .02 0 .038.02.048.03-.02.05-.02.081-.029v-.249c0-.066.02-.095.031-.095.02 0 .03.029.05.077.021.067.031.143.052.22.03 0 .071-.02.102-.03v-.133c.02-.048.02-.076.03-.076.02-.02.051.076.071.162.051-.02.082-.029.133-.048v-.172c0-.048.02-.095.03-.095.02-.02.03.019.03.067a.375.375 0 0 1 .031.162c.03-.02.072-.02.102-.048 0-.095.02-.19.02-.258.02-.067.031-.114.051-.114.02-.02.03.019.03.076a.817.817 0 0 1 .021.239.206.206 0 0 1 .102-.029c.122-.449.275-1.06.275-1.605-.03-.067-.071-.114-.102-.172-.03.612-.081 1.128-.285 1.462a3.698 3.698 0 0 0-.02-1.633h-.051c.02.659.02 1.203-.173 1.576a3.556 3.556 0 0 0-.173-1.72.206.206 0 0 0-.102-.028c.153.133.122.64.05.726-.101-.306-.02-.402-.305-.612h-.081c.153.163.173.401.132.593a2.07 2.07 0 0 0-.356-.516h-.153c.224.238.224.286.194.487-.082-.21-.428-.354-.56-.45-.071 0-.082.02-.153.02.173.076.407.373.326.468-.122-.124-.377-.258-.479-.43-.07 0-.03.029-.101.029.03.095 0 .162.02.277-.153-.029-.234-.048-.428-.239-.03 0-.101-.02-.101 0 .02.048.081.162.101.21-.03-.048-.397-.23-.427-.277-.02-.019.071-.019-.133-.029l.153.354a5.448 5.448 0 0 0-.326-.334c-.081-.02-.152-.02-.234-.03l-.152-.238c.773.048 1.628.02 2.646-.162l.957-.172c.326-.096.55.067.611.525l.051.516c.204.267.285.611.081 1.07.082.334.296.62.601.87.265.18.295.525-.02 1.002Zm-2.24-.64c.051-.134.071-.172.122-.172.03 0 .051.067.051.21 0 .144 0 .268-.122.258-.122-.028-.092-.153-.05-.296Zm-.173-.067c.02-.047.03-.076.051-.076.02 0 .02.029.03.076h-.08Zm.01.44c-.071-.02-.071-.144-.03-.287h.102c0 .172 0 .296-.072.287Zm-.203.028c-.102-.019-.082-.114-.051-.21.03-.114.05-.143.081-.143.03.019.051.048.051.162.01.105.01.191-.081.191Zm-.224 0c-.072-.019-.051-.095-.03-.172h.101c0 .086 0 .172-.071.172Zm-.357-1.7c-.05 0-.07-.115-.07-.277 0-.143.02-.277.07-.277.03 0 .072.134.072.277 0 .162-.03.277-.072.277Zm-.07 1.165c-.072.03-.052-.028-.082-.124a.413.413 0 0 1-.02-.21c.03 0 .08.077.121.172.031.105.031.153-.02.162Zm-.215-1.165c-.03 0-.081-.143-.081-.325 0-.172.03-.325.081-.325.03 0 .082.144.082.325 0 .182-.03.325-.082.325Zm-.091 1.07c-.03-.077-.051-.163-.03-.163.02-.019.05.048.08.115a.494.494 0 0 1 .031.163c-.01.019-.06-.048-.081-.115Zm-.122-1.118c-.031.02-.102-.095-.133-.239-.03-.143-.05-.277-.02-.277.05-.019.102.096.153.24.04.143.04.276 0 .276Zm-.265.029c-.122.019-.082-.048-.122-.191-.02-.124-.02-.287.02-.287.03-.019.132.144.153.268.03.133.05.19-.051.21Zm-.326-.029c-.03 0-.102-.114-.122-.239-.03-.143-.03-.257 0-.257.05-.02.102.095.132.229.041.134.02.248-.01.267Zm-.275-.067c-.03.02-.081-.066-.132-.19-.03-.125-.051-.22-.02-.24.02 0 .081.077.132.21.03.106.05.22.02.22Zm-.376.02c-.072.019-.051-.03-.072-.144-.02-.095-.02-.21 0-.21.03 0 .102.096.122.21.02.096.031.144-.05.144Zm-.245-1.49-.122-.192c.03 0 .082 0 .132.02l.133.21c-.04-.01-.092-.03-.143-.039Zm-.01 1.47c-.03 0-.071-.047-.102-.124-.03-.095-.05-.162-.02-.162.02-.02.071.048.091.124.031.086.041.143.031.162Zm-.366-1.566c-.031-.067-.133-.048-.224-.077-.082-.028-.051-.047-.204-.076.153.02.305.029.458.048l.102.162-.02-.019c-.041-.01.163.506-.112-.038Zm.05 1.586a.275.275 0 0 1-.101-.163c-.02-.076 0-.134.03-.134a.35.35 0 0 1 .102.182c.02.076.01.124-.03.114Zm-.325 5.196c.102-.048.203-.048.224 0 .02.048-.051.115-.153.143-.102.048-.204.029-.224 0-.03-.047.05-.114.153-.143Zm.54.162c.03.048-.072.144-.204.191-.133.048-.275.048-.285-.019-.02-.047.07-.133.203-.19.122-.048.265-.048.285.018Zm-.876-.343c-.02-.03.03-.077.122-.115.081-.029.153-.02.173 0 .02.048-.03.095-.122.114-.092.039-.153.039-.173 0Zm-.296-5.101c-.55.477-.956.983-1.028 1.461-.183-.239.204-.85.825-1.605-.377.277-.723.63-1.038 1.032.07-.258.295-.612.6-.994-.672.469-1.13 1.156-1.059 2.436-.254-.774-.081-1.509.448-2.235l-.733.726.662-.965-.407.124.03-.143-.254.115v-.163l-.346.258.071-.277c-.122-.067-.203.029-.305.163-.102-.325.274-.43.661-.277.306.114.683.162 1.181.067a2.48 2.48 0 0 1 .754-.02c.254.144.234.249-.061.297Zm-.458.802c-.05.076-.122.134-.132.114-.02-.019 0-.095.051-.162.05-.086.122-.114.132-.114.03.038 0 .105-.05.162Zm-.152.401c-.051.096-.102.163-.133.143-.03 0-.02-.095.02-.172.052-.095.103-.162.143-.143 0 .02 0 .096-.03.172Zm-.245 3.496-.376-.305c-.102-.191-.02-.335.173-.468.02.143.071.257.153.324.173.134.213.325.05.45Zm-.06 1.48c-.082 0-.174-.018-.174-.047s.051-.067.133-.067c.101 0 .173.029.173.067.02.029-.051.048-.133.048Zm-.347-.161c-.02-.02.072-.067.173-.077.102-.029.204-.029.224 0 .02.02-.05.067-.152.096-.123.01-.224.01-.245-.02Zm-.275-.096c-.03-.029.072-.096.235-.124.152-.029.305-.048.346-.02.02.03-.082.096-.245.125-.163.048-.295.048-.336.019Zm.092-3.878c0-.115.03-.191.071-.191.03 0 .072.076.072.19 0 .115-.031.21-.072.21-.04-.009-.071-.104-.071-.21Zm.01 3.62c.133-.029.295-.048.306-.019.03.029-.072.086-.204.134-.132.028-.275.028-.305 0-.01-.029.07-.077.203-.115Zm-.356-.334c-.02-.029.05-.067.142-.067.092 0 .173.028.173.067 0 .019-.05.047-.132.047-.112 0-.183-.019-.183-.047Zm-.448-3.582c.05.229.122.42.244.515.03.115-.03.172-.091.134a.846.846 0 0 1-.153-.65Zm.173 2.216c-.122-.067-.153-.21-.132-.325.03-.067.122-.067.132.02.02.076.03.133.102.19.071.048.04.182-.102.115Zm-.387-.077c-.102-.114-.071-.286.02-.4.072-.077.153-.03.133.066-.03.095-.02.162.03.267.03.077-.07.21-.183.067Zm-.295-6.534c-.071-.066.05-.133.081-.095l.204.172c.05.048-.071.124-.122.095l-.163-.172Zm1.18-1.022c-.07-.067.021-.162.082-.114l.275.22c.071.066-.05.171-.102.124l-.254-.23Zm-.294.096c-.082-.077.02-.191.101-.124l.326.258c.082.076-.05.19-.122.143l-.305-.277Zm-.224.162c-.102-.095.03-.22.122-.143l.376.306c.102.076-.05.229-.132.162l-.366-.325Zm-.316.258c-.071-.076.092-.19.173-.143l.306.287c.08.076-.123.21-.174.143l-.305-.287Zm-.02.545-.173-.163c-.031-.047.05-.114.081-.076l.173.162c.051.038-.05.105-.081.077Zm-.072-.306c-.07-.067.051-.143.102-.096l.204.192c.05.047-.082.124-.122.076l-.184-.172Zm-.183-3.19c.03-.115.153-.182.357-.191l2.29-.325c.122-.02.132.047.122.19-.03.21-.071.402-.173.564-.081.067-.102-.21-.081-.62-.173.382-.102.783-.377.85-.122-.182.071-.516.102-.774-.255.22-.173.497-.397.783-.082.02-.071-.258-.02-.688-.123.325-.225.583-.347.688-.071-.095-.071-.334-.05-.592-.102.42-.225.707-.326.755a2.21 2.21 0 0 1 .02-.688l-.05-.048c-.072.401-.133.64-.245.755a.89.89 0 0 1 .03-.736h-.101c-.072.21-.102.382-.204.45-.133-.02-.204-.163-.204-.402-.122.449-.295.688-.478.831-.01-.258.03-.535.132-.802Zm.662-4.9c.102 0 .173.028.203.133l-.203.115.254.066-.03.067-.357.077.153.114-.122.096.234-.029-.02.096-.255.095c.184.02.275.067.224.115l-.224.124.184.067-.245.096.204.124-.255.076c.173.048.235.134.255.172l-.275.115c.153.066.183.095.183.172l-.254.095.203.143-.203.058c.173.067.193.143.203.21l-.244.067c.193.067.275.114.244.172l-.295.124.275.029v.066l-.275.077c.204.076.275.143.275.21l-.255.143.275.048-.254.172c.152-.02.244.019.244.095l-.244.115c.183.029.397.067.58.115l.071.076.051-.076a.46.46 0 0 1 .357 0l.122.162.081-.191.122.21.102-.258.143.354.101-.373.123.306.101-.334.082.267.081-.315.153.305.122-.382.153.325.102-.258.163.239.081-.277.102.191c.081.162-.102.306-.295.334l-2.546.383c-.152.019-.305-.096-.376-.42-.122-.593-.071-1.176.02-1.749.163-1.29.377-1.93.6-2.35Zm2.535-1.615c-.143.095-.275.172-.285.143-.03-.028.071-.143.203-.239.133-.114.275-.172.296-.162.02.029-.082.143-.214.258Zm.682 2.608.102-.478c.122-.067.173-.029.152.096l-.224.4-.03-.018Zm-.194-.507c.072-.133.204-.095.153.029-.142.707-.275 1.3-.295 2.226l-.071-.144c.101-.83.101-1.308.213-2.11Zm-.376 2.436h-.051c-.051-.898-.02-1.7.173-2.474.05-.067.132-.048.122.029a14.97 14.97 0 0 0-.244 2.445Zm-1.364-4.107c-.072 0-.102-.048-.102-.096 0-.067.03-.114.102-.114.05 0 .101.047.101.114 0 .048-.05.096-.101.096Zm.203-.21c0-.048.03-.077.071-.077.051 0 .082.029.082.077 0 .047-.03.095-.082.095-.03 0-.07-.048-.07-.095Zm.143.181c.224-.143.448-.239.478-.191.03.048-.122.21-.356.373-.244.143-.448.229-.499.171-.02-.047.132-.21.377-.353Zm-.906 1.328.05.114c-.356 1.223-.396 2.312-.152 3.287-.153-1.672-.02-2.627.285-3.143v.162c-.234 1.175-.255 2.12-.03 2.885l.07-.048a8.84 8.84 0 0 1 .133-3.114l.122.02c-.244 1.231-.244 2.196-.071 3.075l.071-.067c-.132-1.27-.122-2.15.082-2.951l.101.019c-.193 1.222-.203 2.178-.03 2.97l.071-.019c-.142-1.328-.071-2.273.122-2.98l.071.067a10.858 10.858 0 0 0 0 2.875l.072-.028c-.03-1.156-.102-2.073.05-2.742l.082-.096c-.122.85-.122 1.796.03 2.857h.072c-.122-1.252-.082-2.197.05-2.971l.072.047a17.63 17.63 0 0 0 .02 2.933l.072-.019c-.072-1.385-.02-2.33.132-2.885.132-.048.132.115.02.287-.081.83-.122 1.671 0 2.588l.102.02c-.102-1.328-.02-2.102.143-2.857.081-.076.173.02.071.21-.122.927-.193 1.586-.081 2.647h.122c.132.047.152.095.02.143-.835.162-1.639.306-2.413.353-.152.02-.203-.067-.203-.277-.051-1.136.081-2.178.376-3.123l.051-.02c-.224 1.137-.325 2.226-.152 3.21-.123-1.538.091-3.152.397-3.43Zm1.944 4.46.275.259c.153.133.05.239-.082.172l-.335-.191c-.194-.115.02-.335.142-.24Zm-.203.287.509.354c.152.114 0 .305-.123.229l-.55-.325c-.183-.114.031-.372.164-.258Zm2.392-4.47-1.049 1.032c.122-.115.234-.163.346-.258.448-.373.733-.64.652-.43a1.572 1.572 0 0 1-.672.678l-.427.43-.031.095c.458-.449.702-.573.753-.468l-.824.917.906-.659a3.779 3.779 0 0 1-1.11 1.06v.077c.499-.382.876-.621.906-.516-.081.191-.397.478-.763.802l.458-.21c.03.172-.072.306-.275.402-.255.066-.397.162-.397.257l.305-.114c.02.095-.152.258-.407.449l.356-.096c.02.077-.122.24-.458.468l.326-.066c.02.076-.05.162-.194.276l.459-.143c-.02.096-.072.172-.224.22l.03.076c.275-.143.285-.028.184.02.07.028.254-.03.101.21.183-.077.306-.02.275.114.356.048.346.382.02.354-.173.019-.346.028-.509.076-.203.076-.305.067-.356-.162-.122-.42-.275-.66-.458-.755-.62-.239.122-.525.183-.783.03-.258.153-.382.326-.45-.204.02-.204-.123.02-.42-.101-.019-.152-.066.174-.43-.255.077-.306.02.07-.43-.325.173-.325.068.021-.334-.153-.047-.142-.162.051-.324-.275.019-.224-.096-.081-.191.56-.258 1.231-.994 1.333-.898l-.02.124Zm-1.059 5.13.61-.048c.123 0 .225.067.327.19l.295.306c.122.144.02.258-.102.22a8.202 8.202 0 0 1-1.18-.43c-.082-.095-.072-.172.05-.239Zm1.232.773c.244.048.153.163-.03.163-.255 0-.53-.02-.785-.144a3.645 3.645 0 0 1-.722-.43c-.082-.066-.02-.162.122-.095a7 7 0 0 0 1.415.506Zm1.517-2.827c.173-.115.234-.077.224.095-.051.497-.122.917-.275 1.041v-.869l-.071.02c-.051.43-.123.754-.235.878l.031-.802h-.081l-.184.783.051-.688c0-.095-.03-.114-.081-.067-.122.803-.275 1.137-.448 1.252.173-.516.173-.87.132-1.175l-.05-.029c-.052.42-.123.822-.276 1.127-.173-.239.153-.659.082-1.06h-.03l-.306.993c-.102 0-.071-.133.03-.382l.031-.563-.05.028a2.65 2.65 0 0 1-.296.726l.05-.735-.223.525.02-.43-.234.096a.855.855 0 0 1 .479-.382 8.344 8.344 0 0 0 1.71-.382Zm.264-.478c-.02.162-.152.268-.152.162-.02-.143 0-.305-.122-.496-.072-.086.05-.115.122-.048a.412.412 0 0 1 .152.382Zm.061 1.404c0 .067-.02.115-.03.115-.02 0-.03-.048-.03-.115s.02-.114.03-.114c.02.01.03.057.03.114Zm.051-.344c.031 0 .051.02.051.067 0 .029-.02.067-.05.067-.031 0-.072-.029-.072-.067.01-.057.04-.067.071-.067Zm-.01-.983c.051 0 .082.066.102.143.02.076.02.162-.03.162-.02.02-.072-.048-.082-.124-.03-.086-.01-.162.01-.181Zm-.02.563c.02-.172.224-.124.132.048l-.102.22h-.05l.02-.268Zm-1.252-.64c.132-.048.193-.124.152-.239l-.07-1.06c-.052-.21.101-.124.152-.02.122 0 .132.087.03.192.285.029.377.114.224.23l-.244.047.305.029c.133.047.102.143.02.162l-.294.048.356.047c.173 0 .173.048-.03.144l-.153.095.254.029c.122-.02.153.029.102.162.081.383 0 .63-.336.63l-1.14.24c-.071-.048-.102-.048-.071-.067 0-.02-.02-.029-.02-.029 0-.029.03-.067.07-.067.02 0 .051.02.051.048.072-.02.123-.02.173-.029v-.324l-.152.028v.048c0 .067-.03.115-.072.115-.04 0-.07-.048-.07-.115v-.02l-.072.02c-.153-.048-.153-.115-.02-.191l.855-.153Zm-.255-.44.02-.238c.02-.163.153-.038.153.067l-.05.258c-.052.047-.072.01-.123-.086Zm.072.182c.05 0 .08.029.08.077 0 .047-.03.086-.08.086-.031 0-.072-.03-.072-.086 0-.048.04-.077.072-.077Zm-2.586-3.754c.152-.124.346-.22.498-.287-.122.115-.234.24-.376.354l.122.067a1.42 1.42 0 0 1 .509-.23c-.081.067-.173.134-.244.192.122-.029.254-.029.427-.048-.224.095-.356.134-.53.19l.133.077a1.09 1.09 0 0 1 .51-.143c-.123.067-.255.143-.398.21l.122.067a.934.934 0 0 1 .5-.095 2.205 2.205 0 0 0-.377.162l.07.048a1.13 1.13 0 0 1 .459-.096c-.132.048-.234.115-.356.163l.101.047a.813.813 0 0 1 .397-.028c-.101.028-.203.047-.305.095l.356.21-.07.029-.55-.172c-.031 0-.052.02-.072.029 0-.02.02-.029.03-.048l-.132-.029c-.071.029-.152.077-.244.115.05-.067.081-.115.132-.143l-.132-.048c-.071.029-.153.076-.244.114a.931.931 0 0 1 .132-.162l-.132-.048c-.102.067-.184.125-.285.172a1.09 1.09 0 0 1 .173-.21l-.173-.076-.255.21a.623.623 0 0 1 .132-.239l-.173-.067a2.183 2.183 0 0 1-.285.239c.051-.095.102-.191.173-.277l-.274-.095a1.814 1.814 0 0 1-.326.277c.05-.115.102-.23.173-.325l-.03-.02c.03-.19.193-.334.396-.43l.03.02a.937.937 0 0 1 .255-.163c-.05.077-.081.163-.132.22l.05.029c.123-.115.276-.21.449-.258-.102.124-.204.22-.326.325l.092.076Zm-2.881-1.681c-.02 0 .05-.134.152-.258.122-.143.204-.258.245-.23.02 0-.051.125-.173.259-.112.143-.214.238-.224.229Zm-.072.057-.244.64c.204-.372.377-.582.53-.563l-.306.563c-.02.067.02.096.102.077.203-.516.397-.803.53-.822l-.276.774c.123-.239.204-.334.255-.287l-.071.24c.132-.259.234-.373.305-.326l-.03.22a.526.526 0 0 1 .203-.21l.081.172a.578.578 0 0 1 .224-.334l.072.162c.102-.172.244-.334.458-.497l-.102.325.407-.191c.204-.067.245-.02.082.162l-.835.373c-.662.353-1.334.563-2.016.372-.173-.067-.203-.143-.122-.286a.628.628 0 0 1 .285-.23v.21l.468-.544Zm-.834 13.479h-.051l-.082.19-.193.316.122-.354.05-.172a1.54 1.54 0 0 0-.223-.066l-.153.143-.254.277.203-.325.082-.134c-.03 0-.071-.019-.102-.019l-.153.144-.254.277.203-.306.082-.124h-.133l-.101.143-.245.287.173-.335.051-.076c-.07.019-.142.029-.193.048l-.122.277.05-.258c-.152.067-.295.143-.345.305 0-.277.224-.43.651-.477.51-.067 1.1.028.937.239Zm-1.71 2.932c-.072-.095-.102-.172-.072-.19.03-.02.102.028.173.133.071.105.082.172.071.19-.04.01-.112-.037-.173-.133Zm-.041.373c-.02.019-.072-.048-.122-.115-.031-.076-.051-.162-.02-.172.02 0 .07.048.121.124.041.077.061.163.02.163Zm-.173.363c-.031 0-.102-.096-.133-.21-.05-.125-.05-.24-.02-.258.03-.02.122.076.153.21.06.134.06.248 0 .258Zm-.204-3.449c0 .02-.03.048-.102.067 0 .077.02.172.02.268l-.122-.24h-.07c0 .125 0 .259.02.383l-.174-.353c-.03.019-.05.019-.081.019.02.172.02.372.02.563l-.244-.458v-.029c-.03.096-.05.21-.082.306l-.05-.325c-.051.134-.123.286-.173.449l-.02-.334v-.106h.03l.427-.258c.296-.124.652-.171.601.048Zm-.438 2.704c-.254-.096-.234-.306.072-.497.264.105.264.344-.072.497Zm.957-.344c.051.067.071.124.051.143-.02 0-.071-.029-.122-.096-.03-.066-.071-.124-.03-.143.01 0 .06.038.101.096Zm1.415-7.585.03-.286c.021-.067.154-.096.154-.02l-.031.287c0 .048-.153.086-.153.02Zm-.173.077c0-.048.03-.077.051-.077.03 0 .071.029.071.077 0 .047-.03.076-.07.076-.011.01-.052-.029-.052-.076Zm-.234.038c0-.077.132-.143.153-.02l.03.22c.02.067-.152.134-.152.02l-.031-.22Zm-.275.267c0-.047.03-.095.082-.095.05 0 .081.047.081.095 0 .067-.03.096-.081.096-.051 0-.082-.029-.082-.096Zm-.203.23.02-.21c0-.077.081-.115.102 0v.21c-.01.057-.143.114-.122 0Zm-.275.143v-.191c0-.077.132-.077.132.019l.02.19c0 .058-.152.077-.152-.018Zm-2.973 4.413c-.102-.239-.397-.306-.886-.22-.132-.143-.356-.239-.651-.305.275-.965.906-1.462 1.954-1.624 1.008-.163 2.118-.688 3.33-1.223.508-.354.58-.191.203.497l-.58.63c-.306.325-.377.66.05.975.58.267.825.525.734.754-.632-.162-1.212-.076-1.71.354-.357-.096-.785-.048-1.385.22-.306-.154-.652-.173-1.059-.058Zm.957.267c-.02.096-.234.268-.479.43l.143-.286c.03-.048.071-.067.102-.096h-.122a1.496 1.496 0 0 1-.347.277l.102-.239c.02-.019.051-.028.072-.047-.03 0-.072-.02-.082-.02a.884.884 0 0 1-.254.192l.07-.163c.123-.143.204-.133.398-.19.081-.049.448.028.397.142Zm-.224 1.347-.275-.22.082.43-.204-.21-.05.382c-.072-.162-.154-.305 0-.668.131-.335.304-.43.406-.42.123.133-.03.391.041.706Zm-.346 1.624c-.082-.019-.173-.048-.153-.067 0-.028.082-.047.173-.028.102.019.173.047.173.076-.02.02-.102.038-.193.02Zm-.285-.277c0-.029.102-.048.224-.029.122.02.203.067.203.096 0 .029-.101.048-.224.029-.122-.029-.203-.058-.203-.096Zm-.102-.248c0-.029.122-.048.275-.029.142.029.244.077.244.115-.02.048-.132.067-.275.029-.142-.02-.264-.067-.244-.115Zm-.295-2.617c-.02.095-.224.277-.479.4l.153-.276a.617.617 0 0 1 .122-.096h-.102a1.939 1.939 0 0 1-.356.268l.122-.22c.02-.029.051-.048.072-.067-.051-.02-.102-.02-.174-.029l.306-.114c.153 0 .285.047.356.124h-.02v.01Zm-1.415.315.173-.335c.081-.114.244-.172.377-.172-.01.106-.245.335-.55.507Zm-.428 2.35c.397.305.326.43-.203.382-.173-.048-.275-.163-.275-.382l-.173-.679c.224-.076.275.02.346.258.183.163.305.287.305.42Zm.153 1.022c-.051.019-.122-.067-.133-.163 0-.095.031-.19.082-.19.071-.02.122.066.132.162.02.095-.01.172-.081.19Zm-.306.305a.432.432 0 0 1-.346-.143c-.173-.191-.203-.43-.07-.62.131-.173.294-.115.376.114h-.173c.203.095.325.21.325.334l-.254-.067c.193.124.275.24.275.335l-.204-.125.071.172Zm-1.068-4.327.152-.076a.27.27 0 0 1 .184.019c-.01.038-.163.067-.336.057Zm.111-.458.377-.048c-.275.23-.55.382-.672.353.02-.105.133-.238.296-.305Zm.316-2.942c.133-.02.275 0 .346.076-.071.076-.325.095-.63.048l.284-.125Zm.061-.918.224-.047c.102 0 .204.047.244.114-.06.048-.264.01-.468-.067Zm.204.707c-.02.048-.173.067-.326.067l.143-.076c.06-.038.142-.029.183.01Zm-.377-.324.224-.163a.342.342 0 0 1 .306 0c-.051.086-.275.134-.53.163Zm3.207-6.706.662-.115-.03.134-.632-.02Zm.448.286c-.753.784-1.283 2.178-1.16 4.585.07 1.128.274 1.825-.428 2.503-.652.63-1.14.545-1.252 1.27-.072.469-.184.918-.326 1.204-.499-.258-.55-.802-.173-1.652 1.008-1.748.784-3.258-.448-4.585.712-2.484 1.873-3.821 3.787-3.325Zm-3.95 9.696h.295c-.224.143-.458.239-.55.21.02-.105.123-.181.255-.21Zm-.53-.325.153-.162c.082-.048.184-.067.255-.029-.01.067-.204.144-.407.191Zm.123-.43a.394.394 0 0 1 .356-.019c-.05.096-.305.172-.6.21l.244-.19Zm-.051-.238c.122-.067.275-.077.377-.02-.031.077-.326.172-.632.22l.255-.2Zm-.051-.277c.122-.077.254-.096.356-.048-.03.095-.275.21-.58.277l.224-.23Zm.102-.45c.081-.047.193-.066.254-.028-.02.076-.203.162-.427.21l.173-.181Zm-2.159-1.537a.741.741 0 0 1-.122-.401c.02-.192.173-.182.204-.048.04.238-.082.258-.082.449Zm27.497-7.976a.286.286 0 0 1 .377-.048c.102.047.142.114.142.162l-.203.067.254.067c.133.114.02.315-.101.143-.102-.095-.224-.115-.336-.048 0 .144-.041.172-.123.067-.111-.134-.132-.296-.01-.41Zm2.647 2.856c.102.143.122.43.082.773-.02.096-.133.125-.173 0a1.598 1.598 0 0 0-.224-.43c-.173-.19-.133-.305.081-.286-.193-.315.03-.382.234-.057Zm.306 1.824c.03.115.02.172-.072.191-.102.02-.193-.028-.274-.114-.123-.125-.153-.21-.133-.306l.082-.373c.02-.095.05-.076.101 0 .143.172.265.335.296.602Zm-.224.698c-.082 0-.153-.077-.234-.115l.132.172c.071.095-.071.143-.183.048l-.377-.277c-.102-.144-.071-.306.122-.516.051-.048.102-.067.153-.02l.285.172c.05.03.05.067.02.096-.081.086-.05.134.082.258.091.086.07.181 0 .181Zm-1.487.878c.03-.028.122.029.173.115.072.095.082.19.051.21-.03.02-.122-.029-.173-.134-.06-.095-.081-.172-.05-.19Zm.346 1.605c0 .162-.05.306-.101.306-.072 0-.102-.144-.102-.306s.03-.306.102-.306c.05 0 .101.144.101.306Zm.326.85c-.081.077-.275.077-.407.115l.132.21-.132.067-.05.172c-.255-.191-.408-.373-.327-.564l.173-.334c.082-.115.153-.115.204-.02l.407.354ZM7.635 25.671c.458.143.6.64.234 1.137-.885 1.222-.753 2.521.051 4.183l.102-.047c.173-1.825.58-2.76 1.232-2.933.204-.067.397-.19.56-.401.193-.277.285-.239.427.048.357.773.326 1.509-.173 2.244-1.13 1.72-1.18 3.029.428 4.08l.05.124-.427.515c-.142.21-.03.468.336.755.275.306.407.802.499 1.423-.132.191-.153.43-.071.707.244.315.824.497 1.639.42.081-.019.071-.076.071-.162.071-.353-.183-.611-.458-1.041-.804-.678-.977-1.318-.713-1.94l.122-.171c.632.21 1.436.449 2.169.544-.305.593-.275 1.328 0 1.767.509.832 1.059 1.223 2.107 1.137 1.385-.114 2.067-1.184 1.558-2.646.499-.258.824-.239.987.048-.02.66.296.449.306 1.089-.825.669-1.13 1.251-.245 1.624.458.43.204.592-.397.62-.63-.142-1.089-.114-1.18.373-.58.029-.754.354-.734.87.174-.382.5-.42.662-.325.305-.02.631.067.906-.048.255-.115.55-.115.876.02.173 0 .295.066.376.19.408.401.357-.048 1.263.468.224.02.6 0 .661.335l.082-.306c.071-.115.03-.239-.102-.353-.295-.325.173-.335.977-.192.428.172.825.258 1.13.21.357-.334.448-.124.51.325.254-.659.08-1.012-.611-1.04.122-.354.173.171.427-.259.224-.095.448 0 .672.21.05-.324-.153-.515-.6-.61-.102-.278-.326-.287-.632-.02-1.303-.325-1.435-1.06-.702-1.204.397-.095.55.287.855.401.244.077.356.048.682.077.356.02.682.076.906.23l.255.076c.132-.096.274-.077.447.066.184.258.377.287.55.087.51-.383 1.283-.383 1.232-.144-.02.354.05.487.183.45.122.018.173.161.173.42-.478-.039-.824.038-.824.382-.458.133-.448.43-.245.83-.05-.773.652-.143 1.334-.563l.479-.048c.05.22.274.325.702.306.153-.067.397-.067.55-.096.834-.21 1.506-.162 2.005.478.102-.191.082-.401-.05-.592.58-.373 1.21-.22.834.372.346-.162.682-.974.244-.965.194-.477.957-.076.733.278.326-.163.377-.402-.02-.707-.051-.268-.295-.354-.713-.24-.244-.381-.55-.4-.957-.066-.407.182-.733.191-.936-.067-.224-.334-.173-.497.142-.382.153.048.224-.124.407-.468.072-.143.204-.258.306-.449.448-.067.804-.43 1.262-1.175.326-.143.479-.736.5-1.672.132.067.304.02.529-.114-.153-.02-.225-.067-.225-.43h.428c.173-.067.244-.124.224-.21 0-.067-.173-.048-.295-.22-.051-.23-.183-.449-.448-.678l-.407-.63c-.285-.87-.631-1.367-1.059-1.042l-.122-.067c-.326-.334-.56-.783-.753-1.28.02-.611-.662-.64-1.029-.067l-.101-.487-.174.258-1.079-1.461c.122-.02.326-.124.448-.144 1.314-.095 2.637-.468 3.98-1.174l.958-.278c.427-.162.57-.028.784.172l.977.946c.183.191.183.373.081.564-.102.19.133.449.479.726.305.324.346.754.071 1.299-.153.353-.122.582.102.688l.672.448c.448.335.661.22.651-.372a2.01 2.01 0 0 0-.326-.898c-.224-.372-.376-.726-.397-1.089-.02-.735-.122-1.127-.447-1.375a5.187 5.187 0 0 1-.957-1.137c-.082-.239-.153-.382-.296-.45-.03-.773-.63-1.155-1.008-.945a2.783 2.783 0 0 1-.977.048v-.172c.428-.22 1.16-.927 1.894-1.7.275-.325.407-.191.682.067l1.059 1.04c-.031.516.05.85.427.822.255.42.377.822.132.994-.234.19-.427.324-.427.592.05.401.55.821 1.09 1.013.05.019.132-.02.172-.077.153-.353.173-.774.02-1.184l-.183-.593c-.03-.239 0-.43.02-.611.052-.468.072-.726-.457-1.08a12.224 12.224 0 0 1-1.69-1.986c.02-.917-.825-1.156-1.354-.163l-1.029.678c-.254.163-.427-.095-.427-.353-.102-1.204-.977-2.168-1.934-3.095-.52-1.461-1.212-2.684-1.466-3.802.977.096 1.71.277 2.005.545.428.43.978.659 1.11.353.05-.095-.255-.277-.407-.42.173 0 .397.143.63.372.428 0 .56-.305.449-.726.05-.334.03-.592-.122-.706l-.357-.191c-.59-.602-1.089-1.204-1.496-1.882a.37.37 0 0 1-.072-.21c0-.277-.08-.516-.376-.755l.132-.067-.02-.095.305.066-.305-.477c-.173-.592-.754-.688-1.629-.45-.122.03-.275-.095-.428-.257-.55-.497-1.13-.774-.926-.401.03.067.204.239.02.22l-.936-.144c-.204-.029-.244.029-.194.134.174.172.336.334.408.525l-1.181.067c-.245.02-.448.115-.672.096-.652-.516-1.456-.134-2.29.468l-.123-.048-.02-.917h.101l-.08-.592h.07c.072-.898-.122-1.471-.478-1.882-.071-.277.224-.239.285-.325.275-.325.254-.688.254-.879-.05-.382-.193-.516-.397-.382h-.244c-.254-.029-.458-.114-.57-.22-.275-.171-.53-.171-.784-.019-1.232.287-1.456 1.185-2.952.573-.173-.019-.204.048-.133.172.255.325.611.535 1.008.688-.132.096-.407.115-.855.077.255.324.754.477 1.527.468.285.162.631.095 1.008-.048.204-.115.224-.048.082.21-.398.306-.662.898-.713 1.968a1.78 1.78 0 0 0-.285.735c-.57-.143-1.059-.238-1.262-.076h-.214c-.5-.354-.978-.334-1.364-.096l-.876.63c-.326.211-.6.22-.652-.028l-.356-.726c.02-.516-.193-.754-.56-.783-.173-.143-.295-.315-.325-.516l-.255-.306c.082-.277-.03-.372-.244-.372-.224 0-.428-.029-.55-.115l-1.782-2.053c-.224.028-.305.171-.274.42l1.516 2.025c.051.095.153.191.143.277-.122.267-.173.449.081.688l.51.468c.05.334.122.611.233.707-.122.22.031.43.245.64.05.066.071.143.153.21l.081.688c-.723.563-1.08.974-1.14 1.232-.03.143-.071.258.03.334l1.008-.095c.082.047.194.067.224.124.153.334-.05.87-.6.936-1.253.287-2.149.688-1.792 1.471.458.564.224 1.06-.57 1.51a.674.674 0 0 0-.234.64c-.224.171-.397.448-.55.754-.122.325-.122.468.122.43 1.74-.545 3.451-.774 4.663.172.6.468.498.707 1.435.754-.102.373 0 .573.336.64l.05.42c-.376.077-.803.077-1.18.173-.428.095-.835.258-1.211.258-.326-.24-.703-.383-1.008-.564-1.578-.917-2.892-.965-4.032.287-.6.659-1.14 1.557-1.588 2.932-.071.248-.275.344-.682.124-.825-.63-.977-1.184-.56-1.557.58-.516.804-.21.499.067l.02.067c.448 0 .611.287.784.592.377-.917.173-1.538-.356-2.034l-.122-.02.05.784c-.905-.172-1.404.477-1.465 1.089-.061.592.224 1.127 1.048 1.576Z"/><path d="M.621 1.083h43.846v39.661c0 4.375-3.033 6.983-8.124 6.983H31.09c-3.481 0-6.27.974-8.52 2.961l-.02.01-.021-.01c-2.26-1.996-5.05-2.961-8.521-2.961H8.775c-5.1 0-8.154-2.608-8.154-6.983V1.083ZM0 40.734C0 45.396 3.36 48.3 8.775 48.3h5.243c3.309 0 5.956.917 8.093 2.808l.438.392.438-.392c2.128-1.891 4.775-2.808 8.093-2.808h5.253c5.396 0 8.745-2.894 8.745-7.566V.5H0v40.234Z"/></symbol><symbol viewBox="0 0 54 54" id="mail" xmlns="http://www.w3.org/2000/svg"><g clip-path="url(#ia)"><path d="m52.607 15.65-.007-.005h-.005A4.465 4.465 0 0 0 49.5 14.4H39.19l.713-.247a3.544 3.544 0 0 0 0-6.706L18.9.167A3.15 3.15 0 0 0 17.991 0a2.588 2.588 0 0 0-2.226 1.183 2.817 2.817 0 0 0-.218 2.693L18.81 10.8l-1.698 3.6H4.5a4.466 4.466 0 0 0-3.092 1.238h-.006l-.006.006-.01.016A4.466 4.466 0 0 0 0 18.9v30.6a4.463 4.463 0 0 0 1.386 3.24l.007.01.007.006h.005A4.465 4.465 0 0 0 4.5 54h45a4.465 4.465 0 0 0 3.092-1.238h.006l.006-.006.007-.01A4.46 4.46 0 0 0 54 49.5V18.9a4.466 4.466 0 0 0-1.386-3.24l-.007-.01ZM33.362 34.2l3.25-2.913 15.263-13.68c.216.396.328.841.325 1.293v30.6c.003.452-.11.897-.325 1.294L37.784 38.16l-4.422-3.96Zm5.952-21.748-21.007 7.281a1.263 1.263 0 0 1-.353.067.89.89 0 0 1-.687-.376.99.99 0 0 1-.09-.932L20.38 11.7h19.877a1.71 1.71 0 0 1-.943.752ZM17.267 2.176a.81.81 0 0 1 .668-.376c.127.004.253.027.374.068L39.315 9.15c.395.128.73.395.942.751H20.38l-3.197-6.778a.99.99 0 0 1 .084-.946ZM16.266 16.2l-.72 1.538a2.811 2.811 0 0 0 .224 2.68c.123.185.27.355.434.504.018.017.04.026.056.04.147.13.307.242.48.335.037.02.08.029.119.046.153.076.314.137.48.18.085.021.174.02.261.033.12.023.24.038.36.044h.057c.3-.013.598-.069.883-.167L34 16.2h15.5c.35 0 .697.068 1.022.202l-10.334 9.261-11.992 10.75a1.777 1.777 0 0 1-2.396 0l-3.213-2.88L3.48 16.401A2.677 2.677 0 0 1 4.5 16.2h11.766ZM2.125 50.794A2.678 2.678 0 0 1 1.8 49.5V18.9c-.003-.452.11-.896.325-1.293l9.278 8.313 9.235 8.28-4.422 3.96L2.125 50.794ZM4.5 52.2a2.67 2.67 0 0 1-1.021-.202l18.507-16.59 2.61 2.34a3.547 3.547 0 0 0 4.19.442c.022-.012.046-.02.068-.034a3.54 3.54 0 0 0 .54-.405l2.61-2.34 18.518 16.587a2.673 2.673 0 0 1-1.022.202h-45Z"/></g><defs><clipPath id="ia"><path d="M0 0h54v54H0z"/></clipPath></defs></symbol><symbol viewBox="0 0 50 50" id="medicine" xmlns="http://www.w3.org/2000/svg"><path fill-rule="evenodd" clip-rule="evenodd" d="M34.299 20.515H15.65a.652.652 0 0 1 0-1.304H34.3a.652.652 0 0 1 0 1.304Zm0 18.214H15.65a.652.652 0 0 1 0-1.303H34.3a.652.652 0 0 1 0 1.303Z"/><path fill-rule="evenodd" clip-rule="evenodd" d="M32.684 45.842H17.265A2.276 2.276 0 0 1 15 43.572V16.559a4.436 4.436 0 0 1 4.43-4.438h11.09a4.436 4.436 0 0 1 4.43 4.438v27.013a2.276 2.276 0 0 1-2.266 2.27ZM19.429 13.413a3.145 3.145 0 0 0-3.14 3.146v27.013c0 .54.438.978.976.978h15.419a.977.977 0 0 0 .976-.978V16.559a3.145 3.145 0 0 0-3.14-3.146H19.43Z"/><path fill-rule="evenodd" clip-rule="evenodd" d="M22.132 13.413a.652.652 0 0 1-.65-.652V9.84a.651.651 0 1 1 1.3 0v2.921c0 .36-.291.652-.65.652Zm5.685 0a.652.652 0 0 1-.65-.652V9.84a.651.651 0 1 1 1.3 0v2.921a.65.65 0 0 1-.65.652Z"/><path fill-rule="evenodd" clip-rule="evenodd" d="M30.15 10.492H19.788a.652.652 0 0 1-.65-.652V5.064a.65.65 0 0 1 .65-.651H30.15a.65.65 0 0 1 .65.651v4.787a.65.65 0 0 1-.65.64Zm-9.711-1.293h9.06V5.716h-9.06V9.2Z"/><path fill-rule="evenodd" clip-rule="evenodd" d="M22.39 8.435a.651.651 0 0 1-.65-.651v-.675a.651.651 0 1 1 1.3 0v.675a.659.659 0 0 1-.65.651Zm5.18 0a.651.651 0 0 1-.65-.651v-.675a.651.651 0 1 1 1.301 0v.675a.666.666 0 0 1-.65.651Zm-2.59 0a.652.652 0 0 1-.65-.651v-.675a.652.652 0 1 1 1.3 0v.675a.666.666 0 0 1-.65.651Zm1.223 26.429h-2.445a2.654 2.654 0 0 1-2.646-2.652 3.88 3.88 0 0 1 3.868-3.877 3.88 3.88 0 0 1 3.869 3.877 2.654 2.654 0 0 1-2.646 2.652Zm-1.223-5.237a2.582 2.582 0 0 0-2.579 2.585c0 .753.606 1.36 1.357 1.36h2.445c.75 0 1.356-.607 1.356-1.36a2.582 2.582 0 0 0-2.579-2.585Zm0-2.775c-.448 0-.875-.225-1.177-.618a2.141 2.141 0 0 1-.404-1.27c0-.472.146-.921.404-1.27.302-.393.729-.617 1.177-.617.449 0 .875.224 1.178.617.258.349.403.798.403 1.27s-.145.922-.403 1.27c-.303.393-.73.618-1.178.618Zm0-2.472c-.1 0-.291.225-.291.584 0 .36.19.585.291.585.101 0 .292-.225.292-.585 0-.348-.19-.584-.292-.584Zm-4.867 4.596a1.52 1.52 0 0 1-.942-.337 2.096 2.096 0 0 1-.717-1.113 2.056 2.056 0 0 1 .067-1.326c.19-.46.538-.786.976-.898.437-.113.908-.012 1.3.292.348.27.595.663.718 1.112.123.45.101.922-.067 1.326-.19.46-.538.787-.976.899a1.258 1.258 0 0 1-.359.045Zm-.258-2.438h-.022c-.1.022-.224.292-.134.64.044.18.145.337.257.427.068.056.135.079.169.067.1-.022.224-.292.134-.64a.814.814 0 0 0-.258-.427.271.271 0 0 0-.146-.067Zm9.981 2.438a1.31 1.31 0 0 1-.36-.045c-.436-.112-.795-.45-.975-.899a2.056 2.056 0 0 1-.067-1.326c.123-.45.381-.854.718-1.112.392-.304.863-.405 1.3-.293.438.113.797.45.976.9.168.404.19.876.067 1.325-.123.45-.38.854-.717 1.113a1.537 1.537 0 0 1-.942.337Zm.258-2.438a.216.216 0 0 0-.146.067.75.75 0 0 0-.258.427c-.09.348.034.618.134.64.045.012.113-.01.169-.067a.749.749 0 0 0 .258-.427c.09-.348-.034-.618-.135-.64h-.022Z"/></symbol><symbol viewBox="0 0 84 84" id="rocket" xmlns="http://www.w3.org/2000/svg"><path d="M67.603 16.368c-.477 4.318-1.05 8.539-2.574 12.778-1.072-.498-2.112-1.028-3.212-1.798a19.576 19.576 0 0 1-2.57-2.166 17.848 17.848 0 0 1-1.537-1.745c-1.07-1.396-1.87-2.927-2.686-4.558 4.172-1.475 8.329-2.04 12.58-2.51ZM53.791 30.245a4.62 4.62 0 0 1 .007 6.534 4.62 4.62 0 0 1-6.535-.007 4.62 4.62 0 0 1-.007-6.534 4.62 4.62 0 0 1 6.535.007Zm1.647-1.647c-2.718-2.719-7.12-2.724-9.833-.011-2.712 2.712-2.707 7.115.01 9.833 2.719 2.718 7.121 2.723 9.834.01 2.712-2.712 2.707-7.114-.011-9.832ZM42.143 41.892a1.166 1.166 0 0 0-1.649-.002l-.002.002-8.668 8.668a1.166 1.166 0 0 0 1.651 1.651l8.668-8.668a1.167 1.167 0 0 0 0-1.65Zm10.703-22.158c.845 1.693 1.754 3.477 3.014 5.12.534.696 1.124 1.36 1.74 1.976a21.89 21.89 0 0 0 2.883 2.428c1.298.909 2.521 1.52 3.68 2.055a32.737 32.737 0 0 1-1.993 3.815c-4.186 6.882-11.906 14.019-16.468 17.996-3.547 3.092-5.036 4.148-6.07 4.768l-.961-.872a1.256 1.256 0 0 0-1.368-.212l-2.218 1.018-4.196-4.186-4.739-4.743 1.022-2.238c.21-.46.123-1.002-.221-1.375l-.87-.941c.625-1.038 1.688-2.53 4.775-6.07 3.98-4.563 11.114-12.28 17.994-16.466a32.724 32.724 0 0 1 3.996-2.073ZM48.683 53.85l.154 5.154-10.5 6.913 2.258-5.677c1.223-.702 2.744-1.72 6.76-5.221.415-.363.86-.753 1.328-1.17ZM30.075 35.356c-.395.444-.767.867-1.112 1.264-3.603 4.13-4.582 5.622-5.292 6.865l-5.566 2.206 6.926-10.492 5.044.157Zm3.177 24.184-.65 1.313-9.393-9.393 1.372-.586 4.269 4.273.026.028.24.24.345.344.034.033 3.757 3.748Zm36.654-45.476a1.258 1.258 0 0 0-1.023-.361c-6.866.74-14.01 1.497-21.342 5.958-5.61 3.415-11.287 8.976-15.408 13.426l-7.684-.24a1.163 1.163 0 0 0-1.008.522l-9.326 14.129a1.166 1.166 0 0 0 .15 1.467c.326.327.82.433 1.255.26l8.533-3.38.488.527-1.037 2.27c-.027.059-.05.12-.067.182l-2.731 1.168a1.162 1.162 0 0 0-.363 1.896l11.762 11.763a1.163 1.163 0 0 0 1.87-.305l1.436-2.905 2.19-1.005.589.534-3.39 8.527a1.168 1.168 0 0 0 1.726 1.408l14.14-9.31c.337-.222.535-.603.522-1.007l-.234-7.801c4.44-4.115 9.965-9.766 13.362-15.35 4.462-7.334 5.215-14.481 5.952-21.35a1.258 1.258 0 0 0-.362-1.023ZM21.66 54.94a1.173 1.173 0 0 0-1.66 0l-5.526 5.526a1.173 1.173 0 0 0 1.661 1.66l5.526-5.526c.457-.458.456-1.2-.002-1.659Zm7.434 7.435a1.173 1.173 0 0 0-1.658-.002L21.91 67.9c-.457.457-.457 1.2.002 1.658.458.459 1.2.46 1.658.002l5.526-5.526c.457-.457.457-1.2-.002-1.658Zm-6.675-.718a1.172 1.172 0 0 0-1.658-.002l-6.628 6.628a1.173 1.173 0 0 0 1.661 1.66l6.627-6.628c.458-.457.457-1.2-.002-1.658Z"/></symbol><symbol viewBox="0 0 33 33" id="star" xmlns="http://www.w3.org/2000/svg"><path d="m19.885 19.885-3.728 9.43-3.728-9.43L3 16.157l9.43-3.728L16.156 3l3.728 9.43 9.419 3.727-9.419 3.728Z"/></symbol><symbol viewBox="0 0 50 50" id="surgery" xmlns="http://www.w3.org/2000/svg"><path fill-rule="evenodd" clip-rule="evenodd" d="M45.705 23.456a.655.655 0 0 1 0 .926l-4.734 4.733a.651.651 0 0 1-.924 0 .655.655 0 0 1 0-.925l4.734-4.734a.653.653 0 0 1 .924 0Zm.651 1.425a1.471 1.471 0 0 0 0-2.076 1.448 1.448 0 0 0-1.038-.428c-.392 0-.761.152-1.039.428L32.893 34.193l2.077 2.076 11.386-11.388ZM33.193 38.047l-2.077-2.077.854-.851 2.072 2.076-.85.852Zm-3.67 2.43 2.121-2.124-.836-.837-9.028 9.03c1.148.434 3.273.31 4.342-.762l3.12-3.116c.013-.195.026-.525.035-.763.018-.433.03-.84.061-1.056a.63.63 0 0 1 .185-.372Zm17.762-18.598a2.782 2.782 0 0 0-3.93 0l-13.63 13.628a.655.655 0 0 0 0 .926l.159.157-9.613 9.611a.667.667 0 0 0-.19.463c0 .174.071.34.19.463.625.625 1.764.964 2.978.964 1.378 0 2.856-.434 3.802-1.381l3.265-3.266c.22-.221.228-.39.268-1.492.009-.24.022-.52.03-.719l1.958-1.955.159.157a.65.65 0 0 0 .924 0l13.63-13.629c.523-.523.81-1.22.81-1.963 0-.744-.287-1.441-.81-1.964Zm-13.679-5.465a2.178 2.178 0 0 1 1.544-.638c.56 0 1.114.212 1.54.638.414.411.639.96.639 1.542a2.16 2.16 0 0 1-.638 1.541c-.85.85-2.235.85-3.085 0a2.177 2.177 0 0 1-.638-1.541c0-.583.229-1.13.638-1.542Zm1.544 5.03a3.482 3.482 0 0 1-2.468-1.022 3.46 3.46 0 0 1-1.02-2.467c0-.932.36-1.808 1.02-2.467a3.496 3.496 0 0 1 4.937 0 3.478 3.478 0 0 1 1.02 2.467 3.481 3.481 0 0 1-3.489 3.488Zm-16.195 5.708a.844.844 0 0 1 0 1.18.836.836 0 1 1 0-1.18Zm-4.633 7.172c-3.616 3.485-5.174 3.531-6.05 3.101l8.153-10.53a.657.657 0 0 0 .132-.322L18.05 14.26a.644.644 0 0 0-.216-.566.65.65 0 0 0-.585-.15 5.203 5.203 0 0 1-4.927-1.389 5.243 5.243 0 0 1 0-7.406 5.242 5.242 0 0 1 7.405 0c1.126 1.125 1.684 2.704 1.46 4.12l-1.465 9.296a.646.646 0 0 0 .062.394l1.188 2.377-.638 7.6-6.01 5.79ZM3.21 30.916l9.578-1.46 2.49-3.219.145-1.174-6.56 2.07c-4.778 1.51-5.592 2.828-5.653 3.783Zm21.615-9.852-2.59.484-.472 5.603 7.532-7.302a.655.655 0 0 1 1.056.207 5.21 5.21 0 0 0 4.083 3.088 5.212 5.212 0 0 0 3.88-1.014 5.217 5.217 0 0 0 2.024-3.459 5.192 5.192 0 0 0-1.016-3.878 5.2 5.2 0 0 0-3.458-2.025c-1.575-.217-3.172.29-4.167 1.324l-6.52 6.781a.67.67 0 0 1-.352.19Zm-3.4 8.237 8.156-7.903a6.494 6.494 0 0 0 4.677 3.043 6.56 6.56 0 0 0 7.378-5.591 6.505 6.505 0 0 0-1.267-4.847 6.522 6.522 0 0 0-4.325-2.532c-1.984-.273-4.012.383-5.288 1.713l-6.38 6.632-2.288.427-1.042-2.082 1.434-9.089c.286-1.822-.413-3.833-1.83-5.249a6.554 6.554 0 0 0-9.257 0c-2.552 2.553-2.552 6.706 0 9.257a6.498 6.498 0 0 0 5.253 1.89l-1.051 8.667-7.123 2.249c-5.86 1.85-6.842 3.69-6.508 5.882a.653.653 0 0 0 .748.548l8.913-1.36-4.817 6.224a.656.656 0 0 0 .118.919c.52.402 1.21.82 2.174.82a3.8 3.8 0 0 0 .924-.118c1.395-.347 3.097-1.503 5.21-3.534l6.185-5.959c0-.002.005-.005.005-.007ZM17.564 9.994a2.185 2.185 0 0 0 0-3.084 2.184 2.184 0 0 0-3.084 0 2.185 2.185 0 0 0 0 3.084c.849.85 2.235.85 3.084 0Zm-4.008-4.01a3.487 3.487 0 0 0 2.468 5.956 3.487 3.487 0 0 0 2.464-5.955 3.49 3.49 0 0 0-4.932 0Z"/></symbol><symbol viewBox="0 0 50 50" id="tablet" xmlns="http://www.w3.org/2000/svg"><path d="M16 16.444c0 .556.177 1.112.588 1.556-.353.444-.588.944-.588 1.556C16 20.889 17.177 22 18.588 22c1.235 0 2.294-.833 2.53-1.944h6.764c.236 1.11 1.294 1.944 2.53 1.944C31.824 22 33 20.889 33 19.556c0-.556-.176-1.112-.588-1.556.353-.444.588-.944.588-1.556C33 15.111 31.823 14 30.412 14c-1.235 0-2.294.833-2.53 1.889h-6.706C20.883 14.778 19.883 14 18.648 14 17.177 14 16 15.111 16 16.444Zm1.765 1.112c-.353-.278-.588-.667-.588-1.112 0-.722.646-1.333 1.411-1.333S20 15.722 20 16.444c0 .334.235.556.588.556h7.824c.353 0 .588-.222.588-.556 0-.722.647-1.333 1.412-1.333.765 0 1.412.611 1.412 1.333 0 .445-.236.834-.589 1.112A.496.496 0 0 0 31 18c0 .167.059.333.235.444.353.278.588.667.588 1.112 0 .722-.646 1.333-1.411 1.333S29 20.278 29 19.556c0-.334-.235-.556-.588-.556h-7.765a.573.573 0 0 0-.588.556c0 .722-.647 1.333-1.412 1.333-.765 0-1.47-.611-1.47-1.389 0-.444.235-.833.588-1.111a.496.496 0 0 0 .235-.445c0-.11-.118-.277-.235-.388Z"/><path d="M39.46 7.134h-7.73V6.03c0-.331-.216-.552-.54-.552h-3.082v-.276C28.108 3.435 26.703 2 24.973 2c-1.73 0-3.135 1.435-3.135 3.202v.276h-3.081c-.325 0-.54.22-.54.552v1.104H10.54c-.325 0-.541.221-.541.552v37.762c0 .331.216.552.54.552h28.92c.324 0 .54-.22.54-.552V7.686c0-.276-.27-.552-.54-.552Zm-20.11-.552h3.081c.325 0 .541-.22.541-.552v-.828c0-1.16.919-2.098 2.054-2.098 1.135 0 2.054.939 2.054 2.098v.828c0 .331.216.552.54.552h3.028v2.705H19.35V6.582Zm-.54 3.81h12.378c.325 0 .54-.221.54-.553v-1.6h3.568v32.958H14.703V8.238h3.567V9.84c0 .332.216.553.54.553Zm20.108 34.504H11.08V8.238h2.54V41.75c0 .331.217.552.541.552h21.676c.324 0 .54-.22.54-.552V8.24h2.54v36.657Z"/><path d="M25 6a1 1 0 1 0 0-2 1 1 0 0 0 0 2Zm7.42 21H16.58c-.348 0-.58.4-.58 1s.232 1 .58 1h15.84c.348 0 .58-.4.58-1s-.232-1-.58-1Zm0 6H16.58c-.348 0-.58.2-.58.5s.232.5.58.5h15.84c.348 0 .58-.2.58-.5s-.232-.5-.58-.5Zm0 4H16.58c-.348 0-.58.2-.58.5s.232.5.58.5h15.84c.348 0 .58-.2.58-.5s-.232-.5-.58-.5Z"/></symbol><symbol viewBox="0 0 16 16" id="telegram" xmlns="http://www.w3.org/2000/svg"><path d="m14.629 3.698-2.012 9.618c-.152.679-.548.848-1.11.528l-3.066-2.29-1.48 1.442c-.163.166-.3.305-.616.305l.22-3.165 5.683-5.204c.247-.223-.054-.347-.384-.123L4.839 9.29l-3.024-.959c-.658-.208-.67-.667.137-.986L13.78 2.727c.548-.208 1.027.124.849.971Z"/></symbol><symbol viewBox="0 0 16 16" id="viber" xmlns="http://www.w3.org/2000/svg"><path d="M8 1.335c-1.071.013-3.374.19-4.662 1.37-.958.948-1.292 2.35-1.331 4.084-.033 1.728-.072 4.973 3.058 5.856v1.346s-.02.538.337.648c.438.14.688-.275 1.105-.72l.778-.879c2.142.178 3.782-.232 3.97-.293.435-.139 2.883-.451 3.283-3.696.41-3.351-.2-5.463-1.301-6.418h-.007c-.332-.306-1.668-1.279-4.652-1.29 0 0-.222-.014-.578-.008Zm.037.942a7.02 7.02 0 0 1 .488.011c2.527.007 3.732.767 4.017 1.023.927.794 1.405 2.697 1.055 5.495-.332 2.713-2.317 2.885-2.685 3.002-.156.05-1.6.406-3.42.289 0 0-1.356 1.634-1.78 2.055-.067.074-.146.095-.196.085-.071-.018-.093-.107-.089-.229l.013-2.233c-2.655-.733-2.498-3.5-2.47-4.946.033-1.446.304-2.628 1.113-3.43 1.088-.982 3.043-1.115 3.953-1.122Zm.2 1.446a.166.166 0 1 0 0 .332 3.136 3.136 0 0 1 2.242.883c.606.588.9 1.378.912 2.411 0 .092.074.167.167.167V7.51a.167.167 0 0 0 .168-.165 3.588 3.588 0 0 0-1.009-2.646c-.66-.645-1.496-.977-2.48-.977Zm-2.198.382a.523.523 0 0 0-.342.067H5.69a2.61 2.61 0 0 0-.637.523 1.003 1.003 0 0 0-.256.525.71.71 0 0 0 .026.302l.01.006c.172.504.396.988.67 1.444a8.48 8.48 0 0 0 1.29 1.762l.015.022.024.017.015.018.017.015c.532.505 1.127.94 1.769 1.295.734.4 1.18.588 1.447.667v.004c.078.024.15.034.221.034.228-.016.444-.109.613-.262a2.53 2.53 0 0 0 .517-.638v-.004c.128-.241.085-.469-.1-.623-.37-.323-.77-.61-1.195-.857-.285-.155-.574-.061-.69.095l-.25.315c-.129.156-.361.134-.361.134l-.007.004C7.093 8.527 6.63 6.772 6.63 6.772s-.022-.239.139-.36l.312-.252c.15-.122.254-.41.094-.695a7.498 7.498 0 0 0-.856-1.194.475.475 0 0 0-.28-.167Zm2.486.495c-.221 0-.221.334.003.334A2.098 2.098 0 0 1 10 5.572 1.94 1.94 0 0 1 10.5 7a.168.168 0 0 0 .167.165l.007.009a.169.169 0 0 0 .167-.167c.015-.662-.191-1.218-.595-1.663C9.84 4.9 9.273 4.65 8.549 4.6h-.024Zm.274.898c-.228-.006-.236.335-.01.341.55.029.816.306.851.877a.166.166 0 0 0 .165.163h.007a.168.168 0 0 0 .16-.178c-.039-.744-.445-1.164-1.166-1.202H8.8Z"/></symbol><symbol viewBox="0 0 98 99" id="video" xmlns="http://www.w3.org/2000/svg"><path d="M83.85 34.489c.243.447.37.947.369 1.456v25.587L66.97 59.69l.404.179v2.577c0 2.02-.807 3.957-2.243 5.385a7.677 7.677 0 0 1-5.413 2.23H21.437a7.677 7.677 0 0 1-5.413-2.23 7.595 7.595 0 0 1-2.243-5.385V35.031c0-2.02.807-3.957 2.243-5.385a7.677 7.677 0 0 1 5.413-2.23H59.72c2.03 0 3.978.802 5.413 2.23a7.595 7.595 0 0 1 2.243 5.385v2.577l-.404.179.404.914h1v-.442l11.54-5.102m3.934 1.332a3.052 3.052 0 0 0-1.024-1.103m1.024 1.103-.878.478c.163.3.248.636.248.976v25.591c0 .34-.085.676-.248.976l.878.478-.878-.478a2.054 2.054 0 0 1-1.811 1.069 2.17 2.17 0 0 1-.844-.176l.004-29.331m3.53.417-.88.478a2.032 2.032 0 0 0-.687-.74m.542-.841a3.073 3.073 0 0 0-2.91-.229m2.91.229-.542.84m.542-.84-.543.84h.001m-2.367-1.069.404.915m-.404-.915.404.915-12.54 5.544-1.405.62v-5.205c0-1.753-.7-3.435-1.948-4.676a6.677 6.677 0 0 0-4.708-1.94H21.437c-1.767 0-3.46.699-4.708 1.94a6.595 6.595 0 0 0-1.948 4.676v27.415c0 1.753.7 3.435 1.948 4.676a6.677 6.677 0 0 0 4.709 1.94h38.28a6.682 6.682 0 0 0 4.71-1.94 6.595 6.595 0 0 0 1.947-4.676V57.24l1.404.62 12.533 5.541.008-29.329m0 0a2.078 2.078 0 0 1 1.963.154m-4.591 23.531 1.402.615V39.136l-1.402.614-10.413 4.57-.598.262v8.343l.598.263 10.413 4.569Zm-16.185 6.475a2.519 2.519 0 0 0 .743-1.786V35.031a2.52 2.52 0 0 0-.743-1.786 2.535 2.535 0 0 0-1.788-.737H21.437c-.67 0-1.312.264-1.788.737a2.52 2.52 0 0 0-.743 1.786v27.415c0 .671.268 1.313.744 1.786a2.535 2.535 0 0 0 1.788.737h38.28c.67 0 1.314-.264 1.789-.737ZM38.813 41.123c0 .541-.217 1.06-.603 1.445a2.071 2.071 0 0 1-1.46.601h-7.656a2.071 2.071 0 0 1-1.46-.6 2.038 2.038 0 0 1 0-2.89 2.071 2.071 0 0 1 1.46-.602h7.656a2.07 2.07 0 0 1 1.46.601c.386.384.602.904.602 1.445Z"/></symbol><symbol viewBox="0 0 97 98" id="video-1" xmlns="http://www.w3.org/2000/svg"><path d="M64 54.072v8c0 3.573-2.5 4.428-4.5 4.5-2 .073-34.9 0-38.5 0-3.6 0-4.833-3-5-4.5v-28c0-4 3.5-4 5.5-4C32 30.24 54.082 30 58.5 30c4.5 0 5.333 3.333 5.5 5v7.572m0 11.5 16.5 7V35.5L64 42.572m0 11.5v-11.5M28 40.5h8"/></symbol><symbol viewBox="0 0 24 24" id="vk" xmlns="http://www.w3.org/2000/svg"><path d="M21.579 6.855c.14-.465 0-.806-.662-.806h-2.193c-.558 0-.813.295-.953.619 0 0-1.115 2.719-2.695 4.482-.51.513-.743.675-1.021.675-.139 0-.341-.162-.341-.627V6.855c0-.558-.161-.806-.626-.806H9.642c-.348 0-.558.258-.558.504 0 .528.79.65.871 2.138v3.228c0 .707-.127.836-.407.836-.743 0-2.551-2.73-3.624-5.853-.209-.607-.42-.852-.98-.852H2.752c-.627 0-.752.295-.752.619 0 .582.743 3.462 3.461 7.27 1.812 2.602 4.363 4.012 6.687 4.012 1.393 0 1.565-.313 1.565-.853v-1.966c0-.626.133-.752.574-.752.324 0 .882.164 2.183 1.417 1.486 1.486 1.732 2.153 2.567 2.153h2.192c.626 0 .939-.313.759-.931-.197-.615-.907-1.51-1.849-2.57-.512-.603-1.277-1.253-1.51-1.578-.325-.42-.231-.604 0-.976.001 0 2.672-3.761 2.95-5.04Z"/></symbol><symbol viewBox="0 0 16 16" id="whatsapp" xmlns="http://www.w3.org/2000/svg"><path fill-rule="evenodd" clip-rule="evenodd" d="M12.269 3.755A5.947 5.947 0 0 0 8.035 2 5.994 5.994 0 0 0 2.05 7.985a5.98 5.98 0 0 0 .799 2.992L2 14.077l3.173-.832c.877.477 1.86.728 2.86.728h.002a5.993 5.993 0 0 0 5.533-8.276 5.953 5.953 0 0 0-1.3-1.942Zm-4.234 9.208h-.002c-.89 0-1.765-.24-2.532-.694l-.181-.108-1.883.494.502-1.835-.118-.188a4.965 4.965 0 0 1-.76-2.647 4.982 4.982 0 0 1 6.88-4.597c.604.25 1.152.618 1.613 1.081a4.946 4.946 0 0 1 1.455 3.52 4.982 4.982 0 0 1-4.974 4.974Zm2.729-3.726c-.15-.075-.885-.436-1.022-.486-.137-.05-.236-.075-.336.074-.1.15-.387.486-.474.586-.087.1-.175.112-.324.038-.15-.075-.631-.233-1.203-.742a4.505 4.505 0 0 1-.832-1.036c-.087-.15-.009-.231.066-.306.068-.066.15-.174.224-.262.075-.087.1-.149.15-.249.05-.1.025-.187-.013-.262-.037-.075-.337-.811-.461-1.11-.121-.29-.244-.252-.336-.256a6.418 6.418 0 0 0-.286-.005.55.55 0 0 0-.4.186c-.137.15-.523.512-.523 1.248s.536 1.447.61 1.547c.075.1 1.055 1.61 2.555 2.258.358.154.636.246.853.315.358.114.684.098.942.06.287-.043.885-.362 1.01-.711.124-.35.124-.649.087-.711-.038-.063-.138-.101-.287-.176Z"/></symbol><symbol viewBox="0 0 107 120" id="zig-zag-1" xmlns="http://www.w3.org/2000/svg"><path d="M105.309 29.425c-2.357 13.76-19.358 47.69-42.905 46.267-29.434-1.78-45.22-52.623-21.848-69.913C73.555-18.631 137.751 55.567.453 118.628"/></symbol><symbol viewBox="0 0 100 170" id="zig-zag-2" xmlns="http://www.w3.org/2000/svg"><path d="M15.835 1.045c15.533 5.324 61.057 59 61.058 112.597 0 34.686-56.378 11.794-72.059-18.596-22.14-42.908 72.059-33 94 74"/></symbol><symbol viewBox="0 0 156 124" id="zig-zag-3" xmlns="http://www.w3.org/2000/svg"><path d="M155.274 102.714c-14.405 7.825-101.5 42-126-4.5-15.937-30.248 12.087-72.477 49.1-67.52 52.257 6.997-27.1 88.52-77.1-29.98"/></symbol></svg>