<?xml version="1.0" encoding="utf-8"?><svg xmlns="http://www.w3.org/2000/svg" xmlns:xlink="http://www.w3.org/1999/xlink"><symbol viewBox="0 0 22 24" id="basket" xmlns="http://www.w3.org/2000/svg"><g clip-path="url(#aa)"><path d="M10.363 18.443a2.046 2.046 0 0 0-2.045 2.042 2.046 2.046 0 0 0 4.09 0 2.046 2.046 0 0 0-2.045-2.042Zm6.134 0a2.046 2.046 0 0 0-2.045 2.042 2.046 2.046 0 0 0 4.089 0 2.046 2.046 0 0 0-2.044-2.042Zm3.978-8.199L7.413 6.891a.614.614 0 0 0-.75.73L8.67 16.4h-.786L5.482 5.895a.613.613 0 0 0-.474-.464l-4.27-.882A.614.614 0 0 0 .489 5.75l3.885.802L6.797 17.15a.613.613 0 0 0 .598.477h12.07a.615.615 0 0 0 .607-.53l.858-6.175a.613.613 0 0 0-.455-.678Zm-8.14 3.91a.613.613 0 0 1-1.227 0v-2.696a.613.613 0 0 1 1.227 0v2.696Zm2.625 0a.613.613 0 0 1-1.227 0v-1.88a.613.613 0 0 1 1.227 0v1.88Zm2.625 0a.613.613 0 0 1-1.227 0v-1.226a.613.613 0 0 1 1.227 0v1.226Z"/></g><path fill-rule="evenodd" clip-rule="evenodd" d="M16.268 4.568a2.996 2.996 0 0 0-1.693-.523c-.627 0-1.21.193-1.693.523-.28-.843-.492-1.752-.492-2.383C12.39.98 13.37 0 14.575 0s2.185.98 2.185 2.185c0 .631-.212 1.54-.492 2.383Zm-4.722 2.274.024.006v-.011l-.024.005Zm4.972 1.217c-1.333-.33-2.766-.681-4.129-1.013a2.185 2.185 0 1 1 4.129 1.013Zm4.436 1.103c-.866-.217-2.155-.538-3.618-.9a2.995 2.995 0 0 0 .243-1.425c.87.18 1.762.45 2.308.765.596.344.969.928 1.067 1.56ZM9.869 6.439c-.36-.086-.706-.167-1.03-.243a2.19 2.19 0 0 1-.376-2.667 2.188 2.188 0 0 1 3.147-.7c.098.738.338 1.599.61 2.353a3.01 3.01 0 0 0-.449.774c-.628.113-1.305.278-1.902.483Zm10.124.075a3.43 3.43 0 0 1-.217.114c-.696-.295-1.587-.526-2.397-.672a3.01 3.01 0 0 0-.449-.774c.262-.727.494-1.553.599-2.273.095-.067.189-.128.278-.18a2.188 2.188 0 0 1 2.986.8 2.188 2.188 0 0 1-.8 2.985Z"/><defs><clipPath id="aa"><path transform="translate(0 3.064)" d="M0 0h20.936v20.936H0z"/></clipPath></defs></symbol><symbol viewBox="0 0 128 128" id="bone" xmlns="http://www.w3.org/2000/svg"><path fill-rule="evenodd" clip-rule="evenodd" d="M14 54.996a19.488 19.488 0 0 1 8.586-32.839 19.474 19.474 0 0 1 38.118 5.59l.02 1.123-.011 3.923L95.23 67.31l3.851.01h1.135A19.494 19.494 0 0 1 114 73.03a19.487 19.487 0 0 1 5.708 13.785v.047a19.628 19.628 0 0 1-5.721 13.722l-.006.006-.007.007a19.511 19.511 0 0 1-8.287 4.916 19.474 19.474 0 0 1-38.164-5.437l-.02-1.122.011-3.923-34.536-34.537-3.89-.01h-1.031A19.489 19.489 0 0 1 14 54.995Z"/><path fill-rule="evenodd" clip-rule="evenodd" d="M17.187 51.69a14.908 14.908 0 0 1 9.244-25.57 14.887 14.887 0 0 1 9.147-12.14 14.89 14.89 0 0 1 20.545 13.793l.02 1.116-.017 5.781 37.201 37.2 5.755.017h1.133a14.911 14.911 0 0 1 13.778 9.204 14.92 14.92 0 0 1 1.134 5.707v.018a15.049 15.049 0 0 1-4.385 10.519l-.005.005a14.938 14.938 0 0 1-8.935 4.28 14.893 14.893 0 0 1-25.37 8.913 14.89 14.89 0 0 1-4.328-10.513l-.02-1.116.017-5.781-37.22-37.22-5.802-.017h-1.084a14.906 14.906 0 0 1-10.808-4.195Zm83.104 44.486a9.405 9.405 0 0 0 6.534-2.747 9.513 9.513 0 0 0 2.77-6.64 9.38 9.38 0 0 0-5.789-8.657 9.377 9.377 0 0 0-3.589-.714h-1.143l-8.32-.023-.827-1.102-39.339-39.338.023-8.026-.02-1.115v-.029a9.361 9.361 0 0 0-15.956-6.67 9.36 9.36 0 0 0-2.762 6.584l.067 3.985-4.038-.069h-.023a9.379 9.379 0 0 0-9.694 9.363 9.375 9.375 0 0 0 9.679 9.378l.044-.001h1.187l8.084.023 40.46 40.46-.023 8.025.02 1.116v.029a9.36 9.36 0 0 0 18.719.064v-4.031l3.936.135Z"/></symbol><symbol viewBox="0 0 344.96 344.96" id="check" xmlns="http://www.w3.org/2000/svg"><g data-name="Слой 2"><path class="ccls-1" d="m321.85 86.24-40-23.11-23.1-40H212.5L172.48 0l-40 23.11H86.24l-23.11 40-40 23.1v46.21L0 172.48l23.11 40v46.21l40 23.11 23.11 40h46.21l40 23.1 40-23.11h46.21l23.11-40 40-23.11V212.5l23.11-40-23.11-40V86.24ZM156.91 243.07a16.79 16.79 0 0 1-23.34 0l-50.45-50.44a16.19 16.19 0 0 1 0-22.89l13.35-13.35a16.19 16.19 0 0 1 22.89 0l25.87 25.87 80.34-80.35a16.19 16.19 0 0 1 22.89 0l13.35 13.35a16.19 16.19 0 0 1 0 22.89Z" data-name="Capa 1"/></g></symbol><symbol viewBox="0 0 94 90" id="cup" xmlns="http://www.w3.org/2000/svg"><path d="m20.851 23.431.003.021c.2 1.512 1.869 2.736 3.374 2.474 1.505-.263 2.659-1.98 2.335-3.47l-.004-.019-.003-.02c-.187-1.057-.261-1.762-.19-2.32.07-.548.285-.923.444-1.198l.06-.107.028-.05.033-.045c2.523-3.517 4.289-7.674 2.331-11.364-.514-.92-1.068-1.664-1.617-2.34-.177-.22-.363-.441-.55-.665-.367-.438-.738-.88-1.05-1.307l-.008-.01a2.975 2.975 0 0 0-2.502-1.208c-1.023.068-2.007.742-2.44 1.672l-.244 19.956Zm0 0-.004-.021m.004.021-.004-.021m0 0c-.55-3.12.05-5.742.984-7.417.35-.62.656-1.107.94-1.56.172-.274.336-.535.497-.806.39-.655.75-1.343.84-2.11.098-.817-.12-1.588-.589-2.403-.449-.78-1.162-1.658-2.151-2.732m-.52 17.028.52-17.028m0 0c-.587-.824-.698-1.99-.272-2.907l.272 2.907Zm12.486 17.07-.003-.021-.004-.021c-.55-3.12.05-5.742.984-7.417.35-.62.656-1.107.94-1.56.172-.274.336-.535.497-.806.39-.655.75-1.343.84-2.11.098-.817-.12-1.588-.589-2.403-.449-.78-1.162-1.658-2.151-2.732-.587-.824-.698-1.99-.272-2.907.432-.93 1.416-1.604 2.44-1.672a2.975 2.975 0 0 1 2.501 1.208l.007.01c.313.426.684.869 1.051 1.307.187.224.373.446.55.664.549.677 1.103 1.42 1.617 2.341 1.958 3.69.192 7.847-2.33 11.364l-.034.046-.028.05-.06.106c-.159.275-.375.65-.444 1.199-.071.557.003 1.262.19 2.32l.003.019.004.02c.324 1.49-.83 3.206-2.335 3.469-1.505.262-3.173-.962-3.374-2.474Zm13 0-.003-.021-.004-.021c-.55-3.12.05-5.742.984-7.417.35-.62.656-1.107.94-1.56.172-.274.336-.535.497-.806.39-.655.75-1.343.84-2.11.098-.817-.12-1.588-.589-2.403-.449-.78-1.162-1.658-2.151-2.732-.587-.824-.698-1.99-.272-2.907.432-.93 1.416-1.604 2.44-1.672a2.975 2.975 0 0 1 2.501 1.208l.007.01c.313.426.684.869 1.051 1.307.187.224.373.446.55.664.549.677 1.103 1.42 1.617 2.341 1.958 3.69.192 7.847-2.33 11.364l-.034.046-.028.05-.06.106c-.159.275-.375.65-.444 1.199-.071.557.003 1.262.19 2.32l.003.019.004.02c.324 1.49-.83 3.206-2.335 3.469-1.505.262-3.173-.962-3.374-2.474ZM7.337 30.471h.014c5.68-.004 11.398.009 17.127.02 15.65.034 31.393.068 46.765-.22 1.305.27 2.161.71 2.752 1.343.6.645 1.032 1.607 1.255 3.127 0 1.388-.008 2.727-.04 4.046l-.027 1.11 1.107-.089c4.455-.36 9.207.216 12.99 2.995 1.64 1.396 2.876 3.68 2.87 6.116v.002c0 8.904-4.445 15.948-9.997 20.547l.638.77-.638-.77c-5.202 4.31-11.208 6.658-16.482 6.96l-.495.027-.277.41c-2.383 3.53-5.238 6.97-8.692 10.409a2.96 2.96 0 0 1-2.057.845h-.003l-31.194.081a2.949 2.949 0 0 1-2.05-.875l-.009-.01C13.54 79.965 8.797 72.695 5.881 64.35 2.96 55.995 1.85 46.506 1.85 34.684c.057-1.779.501-2.735 1.21-3.296.76-.603 2.059-.945 4.277-.917Zm61.991 6.77.013-1.015h-1.014l-59.556.04-1.013.001.014 1.013c.14 10.234 1.062 18.238 3.524 25.295 2.469 7.076 6.461 13.135 12.642 19.524l.295.306.426-.001 27.788-.08.42-.002.294-.302c6.181-6.368 10.176-12.411 12.645-19.48 2.463-7.05 3.385-15.053 3.522-25.3Zm17.017 11.54-.018-.185-.084-.165c-.561-1.116-1.294-1.914-2.178-2.439-.875-.52-1.832-.73-2.784-.782-.945-.052-1.924.053-2.866.194-.45.067-.905.145-1.35.22l-.066.012c-.47.08-.927.158-1.38.224l-.783.114-.07.788c-.708 8.044-2.242 14.921-4.959 21.212l-.944 2.185 2.222-.856c2.48-.956 5.098-2.407 7.387-4.305l.01-.008c4.018-3.414 8.563-9.191 7.863-16.209Z"/></symbol><symbol viewBox="0 0 24 24" id="fb" xmlns="http://www.w3.org/2000/svg"><path d="M13.397 20.997v-8.196h2.765l.411-3.209h-3.176V7.548c0-.926.258-1.56 1.587-1.56h1.684v-2.86A22.108 22.108 0 0 0 14.201 3c-2.444 0-4.122 1.492-4.122 4.231v2.355H7.332v3.21h2.753v8.201h3.312Z"/></symbol><symbol viewBox="0 0 24 24" id="instagram" xmlns="http://www.w3.org/2000/svg"><path d="M11.999 7.377a4.624 4.624 0 1 0 0 9.248 4.624 4.624 0 0 0 0-9.248Zm0 7.627a3.004 3.004 0 1 1 0-6.008 3.004 3.004 0 0 1 0 6.008Zm4.807-6.719a1.078 1.078 0 1 0 0-2.156 1.078 1.078 0 0 0 0 2.156Z"/><path d="M20.533 6.11A4.605 4.605 0 0 0 17.9 3.48a6.607 6.607 0 0 0-2.186-.42c-.963-.042-1.268-.054-3.71-.054s-2.755 0-3.71.054a6.554 6.554 0 0 0-2.184.42 4.6 4.6 0 0 0-2.633 2.63 6.585 6.585 0 0 0-.419 2.186c-.043.962-.056 1.267-.056 3.71 0 2.442 0 2.753.056 3.71.015.748.156 1.486.419 2.187a4.61 4.61 0 0 0 2.634 2.632 6.583 6.583 0 0 0 2.185.45c.963.042 1.268.055 3.71.055s2.755 0 3.71-.055a6.616 6.616 0 0 0 2.186-.42 4.613 4.613 0 0 0 2.633-2.632c.263-.7.404-1.438.419-2.186.043-.962.056-1.267.056-3.71s0-2.753-.056-3.71a6.583 6.583 0 0 0-.421-2.217Zm-1.218 9.533a5.046 5.046 0 0 1-.311 1.688 2.987 2.987 0 0 1-1.712 1.71c-.535.2-1.1.305-1.67.312-.95.044-1.218.055-3.654.055-2.438 0-2.687 0-3.655-.055a4.961 4.961 0 0 1-1.67-.311 2.984 2.984 0 0 1-1.718-1.711 5.08 5.08 0 0 1-.311-1.67c-.043-.95-.053-1.217-.053-3.653 0-2.437 0-2.686.053-3.655a5.038 5.038 0 0 1 .311-1.687c.305-.79.93-1.41 1.719-1.712a5.01 5.01 0 0 1 1.669-.311c.95-.043 1.218-.055 3.655-.055s2.687 0 3.654.055a4.96 4.96 0 0 1 1.67.31 2.99 2.99 0 0 1 1.712 1.713 5.06 5.06 0 0 1 .311 1.669c.043.95.054 1.218.054 3.655 0 2.436 0 2.698-.043 3.654h-.011v-.001Z"/></symbol><symbol viewBox="0 0 54 54" id="mail" xmlns="http://www.w3.org/2000/svg"><g clip-path="url(#ga)"><path d="m52.607 15.65-.007-.005h-.005A4.465 4.465 0 0 0 49.5 14.4H39.19l.713-.247a3.544 3.544 0 0 0 0-6.706L18.9.167A3.15 3.15 0 0 0 17.991 0a2.588 2.588 0 0 0-2.226 1.183 2.817 2.817 0 0 0-.218 2.693L18.81 10.8l-1.698 3.6H4.5a4.466 4.466 0 0 0-3.092 1.238h-.006l-.006.006-.01.016A4.466 4.466 0 0 0 0 18.9v30.6a4.463 4.463 0 0 0 1.386 3.24l.007.01.007.006h.005A4.465 4.465 0 0 0 4.5 54h45a4.465 4.465 0 0 0 3.092-1.238h.006l.006-.006.007-.01A4.46 4.46 0 0 0 54 49.5V18.9a4.466 4.466 0 0 0-1.386-3.24l-.007-.01ZM33.362 34.2l3.25-2.913 15.263-13.68c.216.396.328.841.325 1.293v30.6c.003.452-.11.897-.325 1.294L37.784 38.16l-4.422-3.96Zm5.952-21.748-21.007 7.281a1.263 1.263 0 0 1-.353.067.89.89 0 0 1-.687-.376.99.99 0 0 1-.09-.932L20.38 11.7h19.877a1.71 1.71 0 0 1-.943.752ZM17.267 2.176a.81.81 0 0 1 .668-.376c.127.004.253.027.374.068L39.315 9.15c.395.128.73.395.942.751H20.38l-3.197-6.778a.99.99 0 0 1 .084-.946ZM16.266 16.2l-.72 1.538a2.811 2.811 0 0 0 .224 2.68c.123.185.27.355.434.504.018.017.04.026.056.04.147.13.307.242.48.335.037.02.08.029.119.046.153.076.314.137.48.18.085.021.174.02.261.033.12.023.24.038.36.044h.057c.3-.013.598-.069.883-.167L34 16.2h15.5c.35 0 .697.068 1.022.202l-10.334 9.261-11.992 10.75a1.777 1.777 0 0 1-2.396 0l-3.213-2.88L3.48 16.401A2.677 2.677 0 0 1 4.5 16.2h11.766ZM2.125 50.794A2.678 2.678 0 0 1 1.8 49.5V18.9c-.003-.452.11-.896.325-1.293l9.278 8.313 9.235 8.28-4.422 3.96L2.125 50.794ZM4.5 52.2a2.67 2.67 0 0 1-1.021-.202l18.507-16.59 2.61 2.34a3.547 3.547 0 0 0 4.19.442c.022-.012.046-.02.068-.034a3.54 3.54 0 0 0 .54-.405l2.61-2.34 18.518 16.587a2.673 2.673 0 0 1-1.022.202h-45Z"/></g><defs><clipPath id="ga"><path d="M0 0h54v54H0z"/></clipPath></defs></symbol><symbol viewBox="0 0 84 84" id="rocket" xmlns="http://www.w3.org/2000/svg"><path d="M67.603 16.368c-.477 4.318-1.05 8.539-2.574 12.778-1.072-.498-2.112-1.028-3.212-1.798a19.576 19.576 0 0 1-2.57-2.166 17.848 17.848 0 0 1-1.537-1.745c-1.07-1.396-1.87-2.927-2.686-4.558 4.172-1.475 8.329-2.04 12.58-2.51ZM53.791 30.245a4.62 4.62 0 0 1 .007 6.534 4.62 4.62 0 0 1-6.535-.007 4.62 4.62 0 0 1-.007-6.534 4.62 4.62 0 0 1 6.535.007Zm1.647-1.647c-2.718-2.719-7.12-2.724-9.833-.011-2.712 2.712-2.707 7.115.01 9.833 2.719 2.718 7.121 2.723 9.834.01 2.712-2.712 2.707-7.114-.011-9.832ZM42.143 41.892a1.166 1.166 0 0 0-1.649-.002l-.002.002-8.668 8.668a1.166 1.166 0 0 0 1.651 1.651l8.668-8.668a1.167 1.167 0 0 0 0-1.65Zm10.703-22.158c.845 1.693 1.754 3.477 3.014 5.12.534.696 1.124 1.36 1.74 1.976a21.89 21.89 0 0 0 2.883 2.428c1.298.909 2.521 1.52 3.68 2.055a32.737 32.737 0 0 1-1.993 3.815c-4.186 6.882-11.906 14.019-16.468 17.996-3.547 3.092-5.036 4.148-6.07 4.768l-.961-.872a1.256 1.256 0 0 0-1.368-.212l-2.218 1.018-4.196-4.186-4.739-4.743 1.022-2.238c.21-.46.123-1.002-.221-1.375l-.87-.941c.625-1.038 1.688-2.53 4.775-6.07 3.98-4.563 11.114-12.28 17.994-16.466a32.724 32.724 0 0 1 3.996-2.073ZM48.683 53.85l.154 5.154-10.5 6.913 2.258-5.677c1.223-.702 2.744-1.72 6.76-5.221.415-.363.86-.753 1.328-1.17ZM30.075 35.356c-.395.444-.767.867-1.112 1.264-3.603 4.13-4.582 5.622-5.292 6.865l-5.566 2.206 6.926-10.492 5.044.157Zm3.177 24.184-.65 1.313-9.393-9.393 1.372-.586 4.269 4.273.026.028.24.24.345.344.034.033 3.757 3.748Zm36.654-45.476a1.258 1.258 0 0 0-1.023-.361c-6.866.74-14.01 1.497-21.342 5.958-5.61 3.415-11.287 8.976-15.408 13.426l-7.684-.24a1.163 1.163 0 0 0-1.008.522l-9.326 14.129a1.166 1.166 0 0 0 .15 1.467c.326.327.82.433 1.255.26l8.533-3.38.488.527-1.037 2.27c-.027.059-.05.12-.067.182l-2.731 1.168a1.162 1.162 0 0 0-.363 1.896l11.762 11.763a1.163 1.163 0 0 0 1.87-.305l1.436-2.905 2.19-1.005.589.534-3.39 8.527a1.168 1.168 0 0 0 1.726 1.408l14.14-9.31c.337-.222.535-.603.522-1.007l-.234-7.801c4.44-4.115 9.965-9.766 13.362-15.35 4.462-7.334 5.215-14.481 5.952-21.35a1.258 1.258 0 0 0-.362-1.023ZM21.66 54.94a1.173 1.173 0 0 0-1.66 0l-5.526 5.526a1.173 1.173 0 0 0 1.661 1.66l5.526-5.526c.457-.458.456-1.2-.002-1.659Zm7.434 7.435a1.173 1.173 0 0 0-1.658-.002L21.91 67.9c-.457.457-.457 1.2.002 1.658.458.459 1.2.46 1.658.002l5.526-5.526c.457-.457.457-1.2-.002-1.658Zm-6.675-.718a1.172 1.172 0 0 0-1.658-.002l-6.628 6.628a1.173 1.173 0 0 0 1.661 1.66l6.627-6.628c.458-.457.457-1.2-.002-1.658Z"/></symbol><symbol viewBox="0 0 16 16" id="telegram" xmlns="http://www.w3.org/2000/svg"><path d="m14.629 3.698-2.012 9.618c-.152.679-.548.848-1.11.528l-3.066-2.29-1.48 1.442c-.163.166-.3.305-.616.305l.22-3.165 5.683-5.204c.247-.223-.054-.347-.384-.123L4.839 9.29l-3.024-.959c-.658-.208-.67-.667.137-.986L13.78 2.727c.548-.208 1.027.124.849.971Z"/></symbol><symbol viewBox="0 0 16 16" id="viber" xmlns="http://www.w3.org/2000/svg"><path d="M8 1.335c-1.071.013-3.374.19-4.662 1.37-.958.948-1.292 2.35-1.331 4.084-.033 1.728-.072 4.973 3.058 5.856v1.346s-.02.538.337.648c.438.14.688-.275 1.105-.72l.778-.879c2.142.178 3.782-.232 3.97-.293.435-.139 2.883-.451 3.283-3.696.41-3.351-.2-5.463-1.301-6.418h-.007c-.332-.306-1.668-1.279-4.652-1.29 0 0-.222-.014-.578-.008Zm.037.942a7.02 7.02 0 0 1 .488.011c2.527.007 3.732.767 4.017 1.023.927.794 1.405 2.697 1.055 5.495-.332 2.713-2.317 2.885-2.685 3.002-.156.05-1.6.406-3.42.289 0 0-1.356 1.634-1.78 2.055-.067.074-.146.095-.196.085-.071-.018-.093-.107-.089-.229l.013-2.233c-2.655-.733-2.498-3.5-2.47-4.946.033-1.446.304-2.628 1.113-3.43 1.088-.982 3.043-1.115 3.953-1.122Zm.2 1.446a.166.166 0 1 0 0 .332 3.136 3.136 0 0 1 2.242.883c.606.588.9 1.378.912 2.411 0 .092.074.167.167.167V7.51a.167.167 0 0 0 .168-.165 3.588 3.588 0 0 0-1.009-2.646c-.66-.645-1.496-.977-2.48-.977Zm-2.198.382a.523.523 0 0 0-.342.067H5.69a2.61 2.61 0 0 0-.637.523 1.003 1.003 0 0 0-.256.525.71.71 0 0 0 .026.302l.01.006c.172.504.396.988.67 1.444a8.48 8.48 0 0 0 1.29 1.762l.015.022.024.017.015.018.017.015c.532.505 1.127.94 1.769 1.295.734.4 1.18.588 1.447.667v.004c.078.024.15.034.221.034.228-.016.444-.109.613-.262a2.53 2.53 0 0 0 .517-.638v-.004c.128-.241.085-.469-.1-.623-.37-.323-.77-.61-1.195-.857-.285-.155-.574-.061-.69.095l-.25.315c-.129.156-.361.134-.361.134l-.007.004C7.093 8.527 6.63 6.772 6.63 6.772s-.022-.239.139-.36l.312-.252c.15-.122.254-.41.094-.695a7.498 7.498 0 0 0-.856-1.194.475.475 0 0 0-.28-.167Zm2.486.495c-.221 0-.221.334.003.334A2.098 2.098 0 0 1 10 5.572 1.94 1.94 0 0 1 10.5 7a.168.168 0 0 0 .167.165l.007.009a.169.169 0 0 0 .167-.167c.015-.662-.191-1.218-.595-1.663C9.84 4.9 9.273 4.65 8.549 4.6h-.024Zm.274.898c-.228-.006-.236.335-.01.341.55.029.816.306.851.877a.166.166 0 0 0 .165.163h.007a.168.168 0 0 0 .16-.178c-.039-.744-.445-1.164-1.166-1.202H8.8Z"/></symbol><symbol viewBox="0 0 98 99" id="video" xmlns="http://www.w3.org/2000/svg"><path d="M83.85 34.489c.243.447.37.947.369 1.456v25.587L66.97 59.69l.404.179v2.577c0 2.02-.807 3.957-2.243 5.385a7.677 7.677 0 0 1-5.413 2.23H21.437a7.677 7.677 0 0 1-5.413-2.23 7.595 7.595 0 0 1-2.243-5.385V35.031c0-2.02.807-3.957 2.243-5.385a7.677 7.677 0 0 1 5.413-2.23H59.72c2.03 0 3.978.802 5.413 2.23a7.595 7.595 0 0 1 2.243 5.385v2.577l-.404.179.404.914h1v-.442l11.54-5.102m3.934 1.332a3.052 3.052 0 0 0-1.024-1.103m1.024 1.103-.878.478c.163.3.248.636.248.976v25.591c0 .34-.085.676-.248.976l.878.478-.878-.478a2.054 2.054 0 0 1-1.811 1.069 2.17 2.17 0 0 1-.844-.176l.004-29.331m3.53.417-.88.478a2.032 2.032 0 0 0-.687-.74m.542-.841a3.073 3.073 0 0 0-2.91-.229m2.91.229-.542.84m.542-.84-.543.84h.001m-2.367-1.069.404.915m-.404-.915.404.915-12.54 5.544-1.405.62v-5.205c0-1.753-.7-3.435-1.948-4.676a6.677 6.677 0 0 0-4.708-1.94H21.437c-1.767 0-3.46.699-4.708 1.94a6.595 6.595 0 0 0-1.948 4.676v27.415c0 1.753.7 3.435 1.948 4.676a6.677 6.677 0 0 0 4.709 1.94h38.28a6.682 6.682 0 0 0 4.71-1.94 6.595 6.595 0 0 0 1.947-4.676V57.24l1.404.62 12.533 5.541.008-29.329m0 0a2.078 2.078 0 0 1 1.963.154m-4.591 23.531 1.402.615V39.136l-1.402.614-10.413 4.57-.598.262v8.343l.598.263 10.413 4.569Zm-16.185 6.475a2.519 2.519 0 0 0 .743-1.786V35.031a2.52 2.52 0 0 0-.743-1.786 2.535 2.535 0 0 0-1.788-.737H21.437c-.67 0-1.312.264-1.788.737a2.52 2.52 0 0 0-.743 1.786v27.415c0 .671.268 1.313.744 1.786a2.535 2.535 0 0 0 1.788.737h38.28c.67 0 1.314-.264 1.789-.737ZM38.813 41.123c0 .541-.217 1.06-.603 1.445a2.071 2.071 0 0 1-1.46.601h-7.656a2.071 2.071 0 0 1-1.46-.6 2.038 2.038 0 0 1 0-2.89 2.071 2.071 0 0 1 1.46-.602h7.656a2.07 2.07 0 0 1 1.46.601c.386.384.602.904.602 1.445Z"/></symbol><symbol viewBox="0 0 97 98" id="video-1" xmlns="http://www.w3.org/2000/svg"><path d="M64 54.072v8c0 3.573-2.5 4.428-4.5 4.5-2 .073-34.9 0-38.5 0-3.6 0-4.833-3-5-4.5v-28c0-4 3.5-4 5.5-4C32 30.24 54.082 30 58.5 30c4.5 0 5.333 3.333 5.5 5v7.572m0 11.5 16.5 7V35.5L64 42.572m0 11.5v-11.5M28 40.5h8"/></symbol><symbol viewBox="0 0 24 24" id="vk" xmlns="http://www.w3.org/2000/svg"><path d="M21.579 6.855c.14-.465 0-.806-.662-.806h-2.193c-.558 0-.813.295-.953.619 0 0-1.115 2.719-2.695 4.482-.51.513-.743.675-1.021.675-.139 0-.341-.162-.341-.627V6.855c0-.558-.161-.806-.626-.806H9.642c-.348 0-.558.258-.558.504 0 .528.79.65.871 2.138v3.228c0 .707-.127.836-.407.836-.743 0-2.551-2.73-3.624-5.853-.209-.607-.42-.852-.98-.852H2.752c-.627 0-.752.295-.752.619 0 .582.743 3.462 3.461 7.27 1.812 2.602 4.363 4.012 6.687 4.012 1.393 0 1.565-.313 1.565-.853v-1.966c0-.626.133-.752.574-.752.324 0 .882.164 2.183 1.417 1.486 1.486 1.732 2.153 2.567 2.153h2.192c.626 0 .939-.313.759-.931-.197-.615-.907-1.51-1.849-2.57-.512-.603-1.277-1.253-1.51-1.578-.325-.42-.231-.604 0-.976.001 0 2.672-3.761 2.95-5.04Z"/></symbol><symbol viewBox="0 0 16 16" id="whatsapp" xmlns="http://www.w3.org/2000/svg"><path fill-rule="evenodd" clip-rule="evenodd" d="M12.269 3.755A5.947 5.947 0 0 0 8.035 2 5.994 5.994 0 0 0 2.05 7.985a5.98 5.98 0 0 0 .799 2.992L2 14.077l3.173-.832c.877.477 1.86.728 2.86.728h.002a5.993 5.993 0 0 0 5.533-8.276 5.953 5.953 0 0 0-1.3-1.942Zm-4.234 9.208h-.002c-.89 0-1.765-.24-2.532-.694l-.181-.108-1.883.494.502-1.835-.118-.188a4.965 4.965 0 0 1-.76-2.647 4.982 4.982 0 0 1 6.88-4.597c.604.25 1.152.618 1.613 1.081a4.946 4.946 0 0 1 1.455 3.52 4.982 4.982 0 0 1-4.974 4.974Zm2.729-3.726c-.15-.075-.885-.436-1.022-.486-.137-.05-.236-.075-.336.074-.1.15-.387.486-.474.586-.087.1-.175.112-.324.038-.15-.075-.631-.233-1.203-.742a4.505 4.505 0 0 1-.832-1.036c-.087-.15-.009-.231.066-.306.068-.066.15-.174.224-.262.075-.087.1-.149.15-.249.05-.1.025-.187-.013-.262-.037-.075-.337-.811-.461-1.11-.121-.29-.244-.252-.336-.256a6.418 6.418 0 0 0-.286-.005.55.55 0 0 0-.4.186c-.137.15-.523.512-.523 1.248s.536 1.447.61 1.547c.075.1 1.055 1.61 2.555 2.258.358.154.636.246.853.315.358.114.684.098.942.06.287-.043.885-.362 1.01-.711.124-.35.124-.649.087-.711-.038-.063-.138-.101-.287-.176Z"/></symbol><symbol viewBox="0 0 107 120" id="zig-zag-1" xmlns="http://www.w3.org/2000/svg"><path d="M105.309 29.425c-2.357 13.76-19.358 47.69-42.905 46.267-29.434-1.78-45.22-52.623-21.848-69.913C73.555-18.631 137.751 55.567.453 118.628"/></symbol><symbol viewBox="0 0 100 170" id="zig-zag-2" xmlns="http://www.w3.org/2000/svg"><path d="M15.835 1.045c15.533 5.324 61.057 59 61.058 112.597 0 34.686-56.378 11.794-72.059-18.596-22.14-42.908 72.059-33 94 74"/></symbol><symbol viewBox="0 0 156 124" id="zig-zag-3" xmlns="http://www.w3.org/2000/svg"><path d="M155.274 102.714c-14.405 7.825-101.5 42-126-4.5-15.937-30.248 12.087-72.477 49.1-67.52 52.257 6.997-27.1 88.52-77.1-29.98"/></symbol></svg>