<svg width="128" height="128" viewBox="0 0 128 128" fill="none" xmlns="http://www.w3.org/2000/svg">
<path fill-rule="evenodd" clip-rule="evenodd" d="M13.9991 54.9957C12.1222 53.177 10.6303 50.9993 9.61215 48.5922C8.59401 46.1852 8.07039 43.5979 8.0725 40.9844C8.0746 38.3707 8.60245 35.7843 9.62444 33.379C10.6464 30.9736 12.1418 28.7983 14.0217 26.9825C15.9015 25.1669 18.1272 23.7478 20.5667 22.8098C21.2289 22.5551 21.9031 22.3374 22.5863 22.157C22.7797 21.5147 23.0065 20.8816 23.2662 20.2604C24.2523 17.9011 25.6935 15.7591 27.5076 13.9568C29.3215 12.1545 31.4728 10.727 33.8384 9.75608C36.2041 8.78511 38.7378 8.28962 41.2949 8.29787C43.8521 8.30612 46.3825 8.81795 48.7418 9.80414C51.1011 10.7903 53.2431 12.2315 55.0454 14.0455C56.8479 15.8596 58.2752 18.0109 59.2461 20.3764C60.2062 22.7157 60.7015 25.2193 60.7044 27.7474L60.7241 28.8699L60.713 32.793L95.2298 67.3098L99.0814 67.3207L99.1023 67.3208L100.214 67.3207L100.216 67.3207C102.775 67.3203 105.31 67.8241 107.675 68.8032C110.04 69.7826 112.189 71.2184 114 73.0288C115.81 74.8392 117.246 76.9884 118.225 79.3537C119.205 81.719 119.708 84.2542 119.708 86.8144L119.708 86.8375L119.708 86.8605C119.674 92.0076 117.62 96.9356 113.987 100.583L113.981 100.589L113.974 100.596C111.645 102.922 108.79 104.6 105.687 105.512C104.772 108.644 103.076 111.525 100.72 113.866C97.0564 117.506 92.0969 119.541 86.9326 119.525C81.7682 119.508 76.822 117.441 73.182 113.777C69.5621 110.134 67.5289 105.209 67.523 100.075L67.5034 98.9528L67.5145 95.0297L32.9782 60.4934L29.0871 60.4824L29.0665 60.4824L28.0574 60.4824C25.4898 60.5478 22.9341 60.105 20.5374 59.179C18.0995 58.2371 15.876 56.8144 13.9991 54.9957Z" fill="white"/>
<path fill-rule="evenodd" clip-rule="evenodd" d="M17.1872 51.6909C15.7515 50.2996 14.6103 48.6339 13.8315 46.7926C13.0527 44.9514 12.6522 42.9723 12.6538 40.9731C12.6554 38.9739 13.0592 36.9955 13.8409 35.1555C14.6227 33.3156 15.7666 31.6516 17.2045 30.2627C18.6424 28.8738 20.345 27.7883 22.211 27.0708C23.5667 26.5495 24.9885 26.2302 26.4311 26.1205C26.5868 24.7101 26.9437 23.3264 27.4931 22.0122C28.2472 20.208 29.3493 18.57 30.7366 17.1917C32.1238 15.8134 33.7689 14.7218 35.578 13.9793C37.3871 13.2367 39.3248 12.8578 41.2803 12.8641C43.2358 12.8704 45.1709 13.2618 46.9752 14.016C48.7794 14.7702 50.4174 15.8723 51.7958 17.2596C53.1741 18.6468 54.2656 20.292 55.0081 22.101C55.7468 23.9008 56.1257 25.8278 56.1233 27.7731L56.1429 28.8887L56.1265 34.6703L93.327 71.8708L99.0816 71.887L99.0895 71.887L100.215 71.887C100.215 71.887 100.215 71.887 100.215 71.887C102.173 71.8866 104.113 72.2719 105.922 73.021C107.731 73.7702 109.376 74.8685 110.76 76.2533C112.145 77.6381 113.243 79.2821 113.993 81.0914C114.742 82.9008 115.127 84.84 115.127 86.7983L115.127 86.807L115.127 86.8157C115.101 90.7614 113.526 94.5391 110.742 97.3349L110.737 97.3399C108.322 99.7521 105.165 101.253 101.802 101.62C101.441 105.005 99.9274 108.181 97.4911 110.601C94.6895 113.385 90.8968 114.941 86.9475 114.929C82.9981 114.916 79.2156 113.335 76.4319 110.533C73.6554 107.739 72.0996 103.958 72.1043 100.02L72.0848 98.9042L72.1011 93.1226L34.8812 55.9027L29.0795 55.8863L27.9954 55.8863C26.013 55.9441 24.0389 55.6057 22.1886 54.8908C20.3238 54.1703 18.6229 53.0821 17.1872 51.6909ZM100.291 96.1763C102.743 96.1478 105.088 95.1623 106.825 93.4289C108.582 91.6632 109.577 89.2789 109.595 86.7881C109.594 85.5594 109.352 84.3429 108.882 83.2076C108.411 82.0696 107.72 81.0356 106.849 80.1647C105.978 79.2938 104.944 78.603 103.806 78.1318C102.668 77.6606 101.448 77.4182 100.217 77.4185L99.0817 77.4185L99.0739 77.4185L90.7533 77.3951L89.927 76.2935L50.5885 36.955L50.6112 28.9294L50.5917 27.8141L50.5918 27.7854C50.5957 26.5563 50.3576 25.3384 49.8909 24.2013C49.4241 23.0642 48.7381 22.0302 47.8718 21.1583C47.0055 20.2864 45.9759 19.5937 44.8419 19.1196C43.7078 18.6456 42.4915 18.3996 41.2624 18.3956C40.0333 18.3917 38.8154 18.6298 37.6783 19.0965C36.5413 19.5632 35.5073 20.2493 34.6353 21.1156C33.7634 21.9819 33.0707 23.0115 32.5967 24.1455C32.126 25.2715 31.8801 26.4786 31.8728 27.6987L31.9404 31.6839L27.9023 31.6153L27.8789 31.6145C26.6223 31.572 25.3699 31.7826 24.1963 32.2338C23.0227 32.6851 21.9519 33.3678 21.0475 34.2414C20.1431 35.1149 19.4237 36.1614 18.932 37.3187C18.4403 38.4759 18.1863 39.7203 18.1853 40.9776C18.1843 42.235 18.4362 43.4797 18.9261 44.6377C19.4159 45.7957 20.1336 46.8434 21.0366 47.7184C21.9396 48.5934 23.0093 49.2779 24.1822 49.731C25.3551 50.1842 26.6071 50.3968 27.8638 50.3562L27.9084 50.3548L29.0874 50.3548L29.0951 50.3548L37.1789 50.3776L77.6392 90.8379L77.6164 98.8634L77.636 99.9788L77.6359 100.008C77.6279 102.49 78.6063 104.874 80.3559 106.635C82.1055 108.395 84.483 109.389 86.9653 109.397C89.4476 109.405 91.8314 108.427 93.5923 106.677C95.3523 104.929 96.346 102.553 96.355 100.072C96.355 100.071 96.355 100.069 96.355 100.068L96.355 96.0406L100.291 96.1763Z" fill="#41659F"/>
</svg>
