<svg width="94" height="90" viewBox="0 0 94 90" fill="none" xmlns="http://www.w3.org/2000/svg">
<path d="M20.851 23.431L20.8538 23.4521C21.0547 24.9643 22.723 26.1884 24.2278 25.9259C25.7325 25.6633 26.887 23.9468 26.5634 22.4561L26.5592 22.437L26.5558 22.4178C26.3691 21.3601 26.2947 20.6548 26.3656 20.0979C26.4355 19.5486 26.6511 19.1742 26.8095 18.8993C26.831 18.8619 26.8515 18.8264 26.8704 18.7925L26.8981 18.7429L26.9312 18.6967C29.4539 15.1803 31.2197 11.0225 29.2624 7.33313C28.748 6.41257 28.1938 5.66861 27.6451 4.9921C27.4679 4.77369 27.282 4.55156 27.0951 4.32844C26.7278 3.88976 26.3572 3.44719 26.0442 3.0213L26.0369 3.01135L26.037 3.0113C25.4791 2.23236 24.4931 1.75621 23.5355 1.80324C22.5119 1.87065 21.5277 2.54521 21.0958 3.47534L20.851 23.431ZM20.851 23.431L20.8472 23.4099M20.851 23.431L20.8472 23.4099M20.8472 23.4099C20.2962 20.2893 20.8977 17.6684 21.8313 15.9931C22.1819 15.3729 22.4872 14.886 22.7712 14.433C22.943 14.1591 23.1069 13.8977 23.2684 13.6267C23.6587 12.9716 24.0179 12.2843 24.1089 11.5161C24.2056 10.6998 23.9887 9.92941 23.5193 9.11418C23.0703 8.33412 22.3569 7.45557 21.368 6.38178M20.8472 23.4099L21.368 6.38178M21.368 6.38178C20.7809 5.55841 20.6701 4.39236 21.0958 3.47537L21.368 6.38178ZM33.8538 23.4521L33.851 23.431L33.8472 23.4099C33.2962 20.2893 33.8977 17.6684 34.8313 15.993C35.1819 15.3729 35.4872 14.886 35.7712 14.4331C35.943 14.1592 36.1069 13.8977 36.2684 13.6267C36.6587 12.9716 37.0179 12.2843 37.1089 11.5161C37.2056 10.6998 36.9887 9.92941 36.5193 9.11418C36.0703 8.33412 35.3569 7.45558 34.368 6.3818C33.7809 5.55842 33.6701 4.39234 34.0958 3.47534C34.5277 2.54522 35.5119 1.87066 36.5355 1.80324C37.4931 1.75621 38.4791 2.23235 39.037 3.0113L39.0369 3.01135L39.0442 3.0213C39.3572 3.44719 39.7278 3.88976 40.0951 4.32844C40.282 4.55157 40.4679 4.77369 40.6451 4.9921C41.1938 5.66859 41.748 6.41252 42.2623 7.33305C44.2197 11.0224 42.454 15.1803 39.9312 18.6967L39.8981 18.7429L39.8704 18.7925C39.8515 18.8264 39.831 18.8619 39.8095 18.8993C39.6511 19.1742 39.4355 19.5486 39.3656 20.0979C39.2947 20.6548 39.3691 21.3601 39.5558 22.4178L39.5592 22.437L39.5634 22.4561C39.887 23.9468 38.7325 25.6633 37.2278 25.9259C35.723 26.1884 34.0547 24.9643 33.8538 23.4521ZM46.8538 23.4521L46.851 23.431L46.8472 23.4099C46.2962 20.2893 46.8977 17.6684 47.8313 15.993C48.1819 15.3729 48.4872 14.8859 48.7712 14.433C48.943 14.1591 49.1069 13.8977 49.2684 13.6267C49.6587 12.9716 50.0179 12.2843 50.1089 11.5161C50.2056 10.6998 49.9887 9.92941 49.5193 9.11418C49.0703 8.33412 48.3569 7.45558 47.368 6.3818C46.7809 5.55842 46.6701 4.39234 47.0958 3.47534C47.5277 2.54522 48.5119 1.87066 49.5355 1.80324C50.4931 1.75621 51.4791 2.23235 52.037 3.0113L52.0369 3.01135L52.0442 3.0213C52.3572 3.44719 52.7278 3.88976 53.0951 4.32844C53.282 4.55157 53.4679 4.77369 53.6451 4.9921C54.1938 5.66859 54.748 6.41253 55.2624 7.33306C57.2197 11.0225 55.454 15.1803 52.9312 18.6967L52.8981 18.7429L52.8704 18.7925C52.8515 18.8264 52.831 18.8619 52.8095 18.8993C52.6511 19.1742 52.4355 19.5486 52.3656 20.0979C52.2947 20.6548 52.3691 21.3601 52.5558 22.4178L52.5592 22.437L52.5634 22.4561C52.887 23.9468 51.7325 25.6633 50.2278 25.9259C48.723 26.1884 47.0547 24.9643 46.8538 23.4521ZM7.3374 30.471L7.3374 30.471L7.35062 30.471C13.0318 30.4674 18.7485 30.4796 24.4778 30.4918C40.1277 30.5252 55.8715 30.5588 71.2434 30.2702C72.5475 30.5411 73.4044 30.9801 73.9948 31.6143C74.5952 32.2594 75.0269 33.2211 75.2499 34.7412C75.2498 36.1288 75.2417 37.4677 75.2096 38.7871L75.1827 39.8977L76.29 39.8081C80.7449 39.4475 85.4967 40.0244 89.2795 42.8035C90.9198 44.1993 92.1557 46.4839 92.15 48.9189V48.9212C92.15 57.8246 87.7047 64.869 82.1527 69.4683L82.7906 70.2384L82.1526 69.4683C76.9514 73.7774 70.9454 76.1259 65.6711 76.4271L65.1765 76.4553L64.8993 76.8659C62.5165 80.395 59.6611 83.8345 56.2069 87.2739L56.2068 87.274C55.6722 87.8064 54.9101 88.1194 54.15 88.1194H54.1474L22.9528 88.2C22.1936 88.1926 21.4331 87.8678 20.9035 87.3246L20.9035 87.3245L20.8944 87.3154C13.5404 79.9654 8.79732 72.6941 5.88094 64.3505C2.9605 55.9953 1.85103 46.506 1.84998 34.6841C1.90712 32.905 2.35108 31.9491 3.05923 31.388C3.82029 30.785 5.11904 30.4431 7.3374 30.471ZM69.328 37.2401L69.3415 36.2261L68.3274 36.2268L8.77118 36.2667L7.75817 36.2673L7.77194 37.2803C7.91106 47.5145 8.83381 55.5179 11.2961 62.5753C13.7647 69.6509 17.7574 75.7103 23.9375 82.0989L24.2334 82.4049L24.6591 82.4037L52.4466 82.3231L52.8679 82.3218L53.1613 82.0196C59.3422 75.6518 63.3366 69.6087 65.8059 62.5406C68.2688 55.4909 69.1912 47.4869 69.328 37.2401ZM86.345 48.7811L86.3266 48.5964L86.2432 48.4307C85.6816 47.3149 84.9488 46.5166 84.0653 45.9921C83.1898 45.4724 82.2329 45.2612 81.2807 45.2096C80.3356 45.1583 79.3573 45.2627 78.4152 45.4036C77.9644 45.471 77.5096 45.5487 77.0653 45.6247L76.999 45.6361C76.5297 45.7163 76.0716 45.7941 75.6184 45.8601L74.8357 45.974L74.7663 46.7619C74.0581 54.8057 72.524 61.6832 69.807 67.9736L68.863 70.159L71.0845 69.3033C73.5659 68.3473 76.1825 66.8955 78.4723 64.9984L78.4724 64.9985L78.482 64.9903C82.4998 61.5755 87.0445 55.7985 86.345 48.7811Z" fill="#3F6199" stroke="white" stroke-width="2"/>
</svg>
