<svg width="32" height="32" viewBox="0 0 32 32" fill="none" xmlns="http://www.w3.org/2000/svg">
<path fill-rule="evenodd" clip-rule="evenodd" d="M15.9008 7C12.191 7.00035 9.62048 7.01269 8.30101 8.30121C7.01257 9.6204 7.00023 12.3117 7.00023 15.9008C10.9855 15.7805 12.8079 15.6807 14.2614 14.2614C15.6807 12.8078 15.7805 10.9854 15.9008 7ZM8.30078 23.6991C7.01234 22.3799 7 19.6887 7 16.0996C10.9852 16.2198 12.8077 16.3196 14.2612 17.739C15.6804 19.1925 15.7803 21.0149 15.9005 25C12.1908 25 9.62025 24.988 8.30078 23.6991ZM16.0995 25C16.2197 21.0149 16.3196 19.1925 17.7389 17.739C19.1923 16.3196 21.0148 16.2198 25 16.0996C24.9996 19.6887 24.9873 22.3799 23.6989 23.6991C22.3794 24.988 19.8092 25 16.0995 25ZM16.0995 7C16.2197 10.9854 16.3196 12.8078 17.7389 14.2614C19.1923 15.6807 21.0148 15.7805 25 15.9008C24.9996 12.3117 24.9873 9.6204 23.6989 8.30121C22.3794 7.01269 19.8092 7.00035 16.0995 7Z" fill="white"/>
</svg>
