<svg width="114" height="49" viewBox="0 0 114 49" fill="none" xmlns="http://www.w3.org/2000/svg">
<path d="M8.66884 5.01318V7.33781H5.86215V19.5367H3.22417V7.33781H0.41748V5.01318H8.66884Z" fill="#262262"/>
<path d="M13.9371 5.01318C16.8051 5.01318 18.358 6.38781 18.358 8.75201C18.358 10.1662 17.5221 11.2889 16.345 11.6776V11.9475C17.687 12.3541 18.5228 13.5344 18.5228 15.3157C18.5228 17.9893 16.9738 19.5367 13.8297 19.5367H10.0184V5.01318H13.9371ZM12.6372 10.9183H14.0828C15.256 10.9183 15.8427 10.3389 15.8427 9.23421V8.88516C15.8427 7.82 15.2369 7.29822 14.0828 7.29822H12.6372V10.9183ZM12.6372 17.2516H14.0214C15.3212 17.2516 15.9692 16.5931 15.9692 15.4308V14.8299C15.9692 13.592 15.3634 12.7571 14.0214 12.7571H12.6372V17.2516Z" fill="#262262"/>
<path d="M27.7557 4.76123C32.238 4.76123 35.8844 7.9387 35.8844 12.2749C35.8844 16.4203 32.4489 19.7885 27.7557 19.7885C23.2735 19.7885 19.6271 16.6111 19.6271 12.2749C19.6309 8.12942 23.0664 4.76123 27.7557 4.76123ZM27.7557 17.4639C31.0455 17.4639 33.2426 15.1213 33.2426 12.2749C33.2426 9.23415 30.8347 7.08585 27.7557 7.08585C24.4659 7.08585 22.2689 9.42847 22.2689 12.2749C22.2689 15.3156 24.6768 17.4639 27.7557 17.4639Z" fill="#262262"/>
<path d="M40.1981 5.0125V6.34754L39.945 9.27311H40.2825L44.4503 5.0125H45.938V19.536H43.3V16.65L43.6336 8.99963H43.3L40.1598 11.9828V19.536H37.564V5.0125H40.1981ZM41.1183 2.32083H40.9726C40.4895 2.32083 40.2595 2.47557 40.2595 2.76705C40.2595 3.05853 40.5125 3.21326 40.9726 3.21326H42.5217C42.9818 3.21326 43.2349 3.05853 43.2349 2.76705C43.2349 2.47557 43.0048 2.32083 42.5217 2.32083H42.376V0.5H42.7326C44.0937 0.5 45.2057 1.19811 45.2057 2.36042C45.2057 3.67746 44.0746 4.37557 41.751 4.37557C39.4274 4.37557 38.2963 3.67746 38.2963 2.36042C38.2963 1.19811 39.4044 0.5 40.7694 0.5H41.126V2.32083H41.1183Z" fill="#262262"/>
<path d="M59.193 5.01318V7.33781H55.1708V19.5367H52.5328V5.01318H59.193Z" fill="#262262"/>
<path d="M67.498 4.76123C71.9803 4.76123 75.6267 7.9387 75.6267 12.2749C75.6267 16.4203 72.1912 19.7885 67.498 19.7885C63.0158 19.7885 59.3694 16.6111 59.3694 12.2749C59.3694 8.12942 62.8049 4.76123 67.498 4.76123ZM67.498 17.4639C70.7879 17.4639 72.9849 15.1213 72.9849 12.2749C72.9849 9.23415 70.577 7.08585 67.498 7.08585C64.2082 7.08585 62.0112 9.42847 62.0112 12.2749C62.0074 15.3156 64.4153 17.4639 67.498 17.4639Z" fill="#262262"/>
<path d="M80.9831 5.01318C83.855 5.01318 85.6763 6.79444 85.6763 10.1842C85.6763 13.3005 83.8742 15.1609 80.9831 15.1609H79.9555V19.5367H77.2946V5.01318H80.9831ZM79.9555 13.2249H80.9601C82.2369 13.2249 83.0536 12.2389 83.0536 10.5513V9.75599C83.0536 8.12947 82.2369 7.33421 80.9601 7.33421H79.9555V13.2249Z" fill="#262262"/>
<path d="M94.8019 4.76123C99.2841 4.76123 102.931 7.9387 102.931 12.2749C102.931 16.4203 99.495 19.7885 94.8019 19.7885C90.3196 19.7885 86.6732 16.6111 86.6732 12.2749C86.6771 8.12942 90.1126 4.76123 94.8019 4.76123ZM94.8019 17.4639C98.0917 17.4639 100.289 15.1213 100.289 12.2749C100.289 9.23415 97.8808 7.08585 94.8019 7.08585C91.5121 7.08585 89.315 9.42847 89.315 12.2749C89.315 15.3156 91.723 17.4639 94.8019 17.4639Z" fill="#262262"/>
<path d="M112.052 5.01318V17.2121H114V18.1225L112.114 23.0596H111.255V19.5367H103.356V19.0905L105.637 7.24065V5.01318H112.052ZM107.631 7.33781L106.354 17.2157H109.414V7.33781H107.631Z" fill="#262262"/>
<path d="M8.66884 30.1089V32.4335H5.86215V44.6324H3.22417V32.4335H0.41748V30.1089H8.66884Z" fill="#262262"/>
<path d="M13.9371 30.1089C16.8051 30.1089 18.358 31.4835 18.358 33.8477C18.358 35.2619 17.5221 36.3847 16.345 36.7733V37.0432C17.687 37.4498 18.5228 38.6301 18.5228 40.4114C18.5228 43.085 16.9738 44.6324 13.8297 44.6324H10.0184V30.1089H13.9371ZM12.6372 36.014H14.0828C15.256 36.014 15.8427 35.4347 15.8427 34.3299V33.9809C15.8427 32.9157 15.2369 32.3939 14.0828 32.3939H12.6372V36.014ZM12.6372 42.3473H14.0214C15.3212 42.3473 15.9692 41.6888 15.9692 40.5265V39.9256C15.9692 38.6877 15.3634 37.8528 14.0214 37.8528H12.6372V42.3473Z" fill="#262262"/>
<path d="M27.7557 29.8569C32.238 29.8569 35.8844 33.0344 35.8844 37.3706C35.8844 41.516 32.4489 44.8842 27.7557 44.8842C23.2735 44.8842 19.6271 41.7068 19.6271 37.3706C19.6309 33.2251 23.0664 29.8569 27.7557 29.8569ZM27.7557 42.5596C31.0455 42.5596 33.2426 40.217 33.2426 37.3706C33.2426 34.3299 30.8347 32.1816 27.7557 32.1816C24.4659 32.1816 22.2689 34.5242 22.2689 37.3706C22.2689 40.4113 24.6768 42.5596 27.7557 42.5596Z" fill="#262262"/>
<path d="M43.1697 37.0431H40.1943V42.3113H45.1175V44.6359H37.5563V30.1088H44.6995V32.4334H40.1943V35.5497L42.8322 34.9092L43.1697 37.0431ZM37.8707 26.4312H40.386V28.7558H37.8707V26.4312ZM42.0615 26.4312H44.573V28.7558H42.0615V26.4312Z" fill="#262262"/>
<path d="M58.8171 30.1089V42.3078H60.7649V43.2182L58.8785 48.1553H58.0196V44.6324H50.121V44.1862L52.4024 32.3364V30.1089H58.8171ZM54.3962 32.4335L53.1194 42.3114H56.1791V32.4335H54.3962Z" fill="#262262"/>
<path d="M67.4328 37.0432H64.4574V42.3114H69.3806V44.636H61.8195V30.1089H68.9627V32.4335H64.4574V35.5498L67.0954 34.9093L67.4328 37.0432Z" fill="#262262"/>
<path d="M80.3199 30.1089V44.6324H77.682V32.4335H75.3776L75.1667 38.9792C75.021 43.722 73.909 44.7511 72.2335 44.7511C71.4589 44.7511 70.7879 44.4992 70.2665 43.9379V41.3218H70.8953C70.8953 41.9407 71.1484 42.3078 71.6698 42.3078C72.2986 42.3078 72.6131 41.822 72.7396 40.5445L73.5755 32.4119V30.1089H80.3199Z" fill="#262262"/>
<path d="M90.1012 29.8569C94.5835 29.8569 98.2299 33.0344 98.2299 37.3706C98.2299 41.516 94.7943 44.8842 90.1012 44.8842C85.6189 44.8842 81.9725 41.7068 81.9725 37.3706C81.9725 33.2251 85.408 29.8569 90.1012 29.8569ZM90.1012 42.5596C93.391 42.5596 95.588 40.217 95.588 37.3706C95.588 34.3299 93.1801 32.1816 90.1012 32.1816C86.8114 32.1816 84.6143 34.5242 84.6143 37.3706C84.6105 40.4113 87.0223 42.5596 90.1012 42.5596Z" fill="#262262"/>
<path d="M28.2427 23.606H0.474854V25.7866H28.2427V23.606Z" fill="#262262"/>
</svg>
