<svg width="24" height="24" viewBox="0 0 24 24" fill="none" xmlns="http://www.w3.org/2000/svg">
<path fill-rule="evenodd" clip-rule="evenodd" d="M6.28516 5C4.6283 5 3.28516 6.34315 3.28516 8V16C3.28516 17.6569 4.6283 19 6.28516 19H17.7137C19.3706 19 20.7137 17.6569 20.7137 16V8C20.7137 6.34314 19.3706 5 17.7137 5H6.28516ZM5.28519 7.99173C5.28963 7.44326 5.73563 7 6.28516 7H17.7137C18.2575 7 18.6999 7.43403 18.7134 7.97456L11.7804 11.7129L5.28519 7.99173ZM5.28516 10.2967V16C5.28516 16.5523 5.73287 17 6.28516 17H17.7137C18.266 17 18.7137 16.5523 18.7137 16V10.2466L12.2403 13.7372L11.751 14.0011L11.2686 13.7247L5.28516 10.2967Z" fill="white"/>
</svg>
