<svg width="54" height="54" viewBox="0 0 54 54" fill="none" xmlns="http://www.w3.org/2000/svg">
<g clip-path="url(#clip0_481_2584)">
<path d="M52.6068 15.6501L52.6005 15.6447H52.5951C51.763 14.8455 50.6538 14.3994 49.5 14.4H39.1905L39.9033 14.1534C40.6026 13.9142 41.2096 13.4623 41.6394 12.861C42.0692 12.2597 42.3003 11.5391 42.3003 10.8C42.3003 10.0609 42.0692 9.34032 41.6394 8.73903C41.2096 8.13775 40.6026 7.68587 39.9033 7.44663L18.9 0.167434C18.6069 0.067242 18.3006 0.0108349 17.991 3.40357e-05C17.55 -0.00882613 17.114 0.0951656 16.7245 0.302139C16.335 0.509112 16.0048 0.8122 15.7653 1.18263C15.5061 1.57739 15.3504 2.03096 15.3123 2.50166C15.2742 2.97236 15.3551 3.44507 15.5475 3.87633L18.81 10.8L17.1117 14.4H4.50001C3.34805 14.3985 2.24005 14.8422 1.40761 15.6384H1.40221L1.39591 15.6438L1.38601 15.66C0.947295 16.0778 0.59818 16.5805 0.359906 17.1375C0.121632 17.6945 -0.000818539 18.2942 6.51168e-06 18.9V49.5C-0.00102848 50.1059 0.121326 50.7056 0.359613 51.2627C0.5979 51.8197 0.947127 52.3224 1.38601 52.74L1.39321 52.7508L1.39951 52.7562H1.40491C2.23718 53.5551 3.34636 54.0009 4.50001 54H49.5C50.652 54.0016 51.76 53.5579 52.5924 52.7616H52.5978L52.6041 52.7562L52.6113 52.7454C53.0513 52.3274 53.4015 51.8239 53.6402 51.2659C53.879 50.7079 54.0014 50.107 54 49.5V18.9C54.0008 18.2942 53.8784 17.6945 53.6401 17.1375C53.4018 16.5805 53.0527 16.0778 52.614 15.66L52.6068 15.6501ZM33.3621 34.2L36.6111 31.2867L51.8751 17.6067C52.0909 18.0035 52.2027 18.4484 52.2 18.9V49.5C52.2026 49.9519 52.0909 50.3972 51.8751 50.7942L37.7838 38.16L33.3621 34.2ZM39.3138 12.4524L18.3069 19.7334C18.1931 19.7723 18.0743 19.7947 17.9541 19.8C17.8186 19.7938 17.6862 19.7566 17.5672 19.6914C17.4482 19.6262 17.3457 19.5347 17.2674 19.4238C17.1768 19.288 17.1211 19.1319 17.1054 18.9694C17.0897 18.8069 17.1144 18.643 17.1774 18.4923L20.3796 11.7H40.257C40.0445 12.0571 39.7092 12.3246 39.3138 12.4524ZM17.2674 2.17623C17.339 2.06327 17.4375 1.96979 17.554 1.90415C17.6705 1.8385 17.8015 1.80273 17.9352 1.80003C18.0624 1.8044 18.1882 1.82745 18.3087 1.86843L39.3147 9.14944C39.7095 9.27704 40.0444 9.54381 40.257 9.90003H20.3796L17.1828 3.12213C17.1165 2.97001 17.0895 2.80366 17.1043 2.63838C17.1191 2.47309 17.1752 2.31418 17.2674 2.17623ZM16.2657 16.2L15.5457 17.7381C15.3562 18.1679 15.2775 18.6383 15.3166 19.1063C15.3558 19.5744 15.5116 20.0251 15.7698 20.4174C15.893 20.6032 16.0391 20.7729 16.2045 20.9223C16.2216 20.9385 16.2432 20.9475 16.2603 20.9628C16.4069 21.0917 16.5675 21.2037 16.7391 21.2967C16.7769 21.3165 16.8201 21.3255 16.8588 21.3435C17.0124 21.4193 17.173 21.4796 17.3385 21.5235C17.424 21.5442 17.5131 21.5433 17.6004 21.5559C17.7193 21.5788 17.8395 21.5936 17.9604 21.6H18.0171C18.3179 21.5875 18.6153 21.5314 18.9 21.4335L34.0002 16.2H49.5C49.8504 16.1997 50.1975 16.2682 50.5215 16.4016L40.1877 25.6635L28.1961 36.4122C27.8687 36.7109 27.4414 36.8765 26.9982 36.8765C26.555 36.8765 26.1278 36.7109 25.8003 36.4122L22.5873 33.5322L3.47851 16.4016C3.80251 16.2682 4.14959 16.1997 4.50001 16.2H16.2657ZM2.12491 50.7942C1.90916 50.3972 1.79739 49.9519 1.80001 49.5V18.9C1.79731 18.4484 1.90909 18.0035 2.12491 17.6067L11.403 25.92L20.6379 34.2L16.2162 38.16L2.12491 50.7942ZM4.50001 52.2C4.14959 52.2004 3.80251 52.1319 3.47851 51.9984L21.9861 35.4087L24.5961 37.7487C24.7631 37.9008 24.9439 38.037 25.1361 38.1555C25.6842 38.4915 26.3132 38.6722 26.956 38.6784C27.5988 38.6845 28.2312 38.516 28.7856 38.1906C28.8081 38.178 28.8324 38.1699 28.854 38.1564C29.0464 38.0388 29.2272 37.9032 29.394 37.7514L32.004 35.4114L50.5215 51.9984C50.1975 52.1319 49.8504 52.2004 49.5 52.2H4.50001Z" fill="#3F6199"/>
</g>
<defs>
<clipPath id="clip0_481_2584">
<rect width="54" height="54" fill="white"/>
</clipPath>
</defs>
</svg>
