<svg width="50" height="50" viewBox="0 0 50 50" fill="none" xmlns="http://www.w3.org/2000/svg">
<path fill-rule="evenodd" clip-rule="evenodd" d="M34.2988 20.5146H15.6504C15.2916 20.5146 15 20.2225 15 19.8629C15 19.5033 15.2916 19.2112 15.6504 19.2112H34.2988C34.6576 19.2112 34.9492 19.5033 34.9492 19.8629C34.9492 20.2225 34.6576 20.5146 34.2988 20.5146Z" fill="#80CAEA"/>
<path fill-rule="evenodd" clip-rule="evenodd" d="M34.2988 38.729H15.6504C15.2916 38.729 15 38.4368 15 38.0773C15 37.7177 15.2916 37.4255 15.6504 37.4255H34.2988C34.6576 37.4255 34.9492 37.7177 34.9492 38.0773C34.9492 38.4368 34.6576 38.729 34.2988 38.729Z" fill="#80CAEA"/>
<path fill-rule="evenodd" clip-rule="evenodd" d="M32.684 45.8418H17.2652C16.0204 45.8418 15 44.8193 15 43.572V16.5594C15 14.1098 16.9848 12.121 19.4294 12.121H30.5198C32.9643 12.121 34.9492 14.1098 34.9492 16.5594V43.572C34.9492 44.8193 33.9287 45.8418 32.684 45.8418ZM19.4294 13.4132C17.7025 13.4132 16.2896 14.8177 16.2896 16.5594V43.572C16.2896 44.1114 16.7269 44.5496 17.2652 44.5496H32.684C33.2223 44.5496 33.6596 44.1114 33.6596 43.572V16.5594C33.6596 14.829 32.2579 13.4132 30.5198 13.4132H19.4294Z" fill="#80CAEA"/>
<path fill-rule="evenodd" clip-rule="evenodd" d="M22.132 13.4132C21.7731 13.4132 21.4816 13.121 21.4816 12.7615V9.83995C21.4816 9.48038 21.7731 9.18823 22.132 9.18823C22.4908 9.18823 22.7824 9.48038 22.7824 9.83995V12.7615C22.7824 13.121 22.4908 13.4132 22.132 13.4132Z" fill="#80CAEA"/>
<path fill-rule="evenodd" clip-rule="evenodd" d="M27.8173 13.4132C27.4584 13.4132 27.1669 13.121 27.1669 12.7615V9.83995C27.1669 9.48038 27.4584 9.18823 27.8173 9.18823C28.1761 9.18823 28.4677 9.48038 28.4677 9.83995V12.7615C28.4677 13.121 28.1761 13.4132 27.8173 13.4132Z" fill="#80CAEA"/>
<path fill-rule="evenodd" clip-rule="evenodd" d="M30.1497 10.4917H19.7882C19.4294 10.4917 19.1378 10.1995 19.1378 9.83997V5.06444C19.1378 4.70487 19.4294 4.41272 19.7882 4.41272H30.1497C30.5085 4.41272 30.8001 4.70487 30.8001 5.06444V9.8512C30.8001 10.1995 30.5085 10.4917 30.1497 10.4917ZM20.4386 9.19948H29.4993V5.71616H20.4386V9.19948Z" fill="#80CAEA"/>
<path fill-rule="evenodd" clip-rule="evenodd" d="M22.3898 8.43539C22.0309 8.43539 21.7394 8.14324 21.7394 7.78368V7.10948C21.7394 6.74991 22.0309 6.45776 22.3898 6.45776C22.7486 6.45776 23.0402 6.74991 23.0402 7.10948V7.78368C23.029 8.14324 22.7486 8.43539 22.3898 8.43539Z" fill="#80CAEA"/>
<path fill-rule="evenodd" clip-rule="evenodd" d="M27.5706 8.43539C27.2117 8.43539 26.9202 8.14324 26.9202 7.78368V7.10948C26.9202 6.74991 27.2117 6.45776 27.5706 6.45776C27.9294 6.45776 28.221 6.74991 28.221 7.10948V7.78368C28.2097 8.14324 27.9182 8.43539 27.5706 8.43539Z" fill="#80CAEA"/>
<path fill-rule="evenodd" clip-rule="evenodd" d="M24.9801 8.43539C24.6213 8.43539 24.3297 8.14324 24.3297 7.78368V7.10948C24.3297 6.74991 24.6213 6.45776 24.9801 6.45776C25.3389 6.45776 25.6305 6.74991 25.6305 7.10948V7.78368C25.6193 8.14324 25.3277 8.43539 24.9801 8.43539Z" fill="#80CAEA"/>
<path fill-rule="evenodd" clip-rule="evenodd" d="M26.2025 34.8636H23.7579C22.3001 34.8636 21.1115 33.6726 21.1115 32.2118C21.1115 30.0769 22.8496 28.3352 24.9802 28.3352C27.1108 28.3352 28.8489 30.0769 28.8489 32.2118C28.8489 33.6726 27.6603 34.8636 26.2025 34.8636ZM24.9802 29.6274C23.556 29.6274 22.401 30.7848 22.401 32.2118C22.401 32.9647 23.0066 33.5714 23.7579 33.5714H26.2025C26.9538 33.5714 27.5593 32.9647 27.5593 32.2118C27.5593 30.7848 26.4043 29.6274 24.9802 29.6274Z" fill="#80CAEA"/>
<path fill-rule="evenodd" clip-rule="evenodd" d="M24.9802 26.852C24.5316 26.852 24.1055 26.6273 23.8027 26.234C23.5448 25.8857 23.399 25.4362 23.399 24.9643C23.399 24.4923 23.5448 24.0429 23.8027 23.6945C24.1055 23.3013 24.5316 23.0765 24.9802 23.0765C25.4287 23.0765 25.8548 23.3013 26.1576 23.6945C26.4155 24.0429 26.5613 24.4923 26.5613 24.9643C26.5613 25.4362 26.4155 25.8857 26.1576 26.234C25.8548 26.6273 25.4287 26.852 24.9802 26.852ZM24.9802 24.38C24.8793 24.38 24.6886 24.6047 24.6886 24.9643C24.6886 25.3238 24.8793 25.5486 24.9802 25.5486C25.0811 25.5486 25.2717 25.3238 25.2717 24.9643C25.2717 24.6159 25.0811 24.38 24.9802 24.38Z" fill="#80CAEA"/>
<path fill-rule="evenodd" clip-rule="evenodd" d="M20.1134 28.9759C19.7882 28.9759 19.4518 28.8635 19.1714 28.6388C18.8238 28.3691 18.5771 27.9758 18.4538 27.5264C18.3304 27.0769 18.3528 26.605 18.5211 26.2004C18.7117 25.7397 19.0593 25.4139 19.4966 25.3015C19.934 25.1892 20.405 25.2903 20.7974 25.5937C21.1451 25.8633 21.3918 26.2566 21.5151 26.7061C21.6385 27.1555 21.616 27.6275 21.4478 28.032C21.2572 28.4927 20.9096 28.8186 20.4722 28.9309C20.3601 28.9646 20.2367 28.9759 20.1134 28.9759ZM19.8555 26.5375C19.8443 26.5375 19.8443 26.5375 19.8331 26.5375C19.7321 26.56 19.6088 26.8297 19.6985 27.178C19.7433 27.3578 19.8443 27.5151 19.9564 27.605C20.0237 27.6612 20.091 27.6837 20.1246 27.6724C20.2255 27.65 20.3489 27.3803 20.2592 27.0319C20.2143 26.8522 20.1134 26.6948 20.0013 26.605C19.9452 26.56 19.8891 26.5375 19.8555 26.5375Z" fill="#80CAEA"/>
<path fill-rule="evenodd" clip-rule="evenodd" d="M29.8357 28.9759C29.7124 28.9759 29.6002 28.9646 29.4769 28.9309C29.0395 28.8186 28.6807 28.4815 28.5013 28.032C28.3331 27.6275 28.3106 27.1555 28.434 26.7061C28.5573 26.2566 28.8153 25.8521 29.1517 25.5937C29.5441 25.2903 30.0151 25.1892 30.4525 25.3015C30.8898 25.4139 31.2486 25.751 31.428 26.2004C31.5963 26.605 31.6187 27.0769 31.4953 27.5264C31.372 27.9758 31.1141 28.3803 30.7777 28.6388C30.4861 28.8635 30.1609 28.9759 29.8357 28.9759ZM30.0936 26.5375C30.0488 26.5375 29.9927 26.56 29.9478 26.605C29.8245 26.6948 29.7348 26.8522 29.6899 27.0319C29.6002 27.3803 29.7236 27.65 29.8245 27.6724C29.8693 27.6837 29.9366 27.6612 29.9927 27.605C30.116 27.5151 30.2058 27.3578 30.2506 27.178C30.3403 26.8297 30.217 26.56 30.116 26.5375C30.116 26.5375 30.1048 26.5375 30.0936 26.5375Z" fill="#80CAEA"/>
</svg>
