<svg width="136" height="42" viewBox="0 0 136 42" fill="none" xmlns="http://www.w3.org/2000/svg">
<path d="M18.6432 7.53095L11.1491 0.0146484H0V36.9571H14.1283L18.6432 41.476L23.1581 36.9571H37.2864V0.0146484H26.1374L18.6432 7.53095ZM29.2395 28.9843H8.04699V7.9874L18.6432 18.5315L29.2395 7.9874V28.9843Z" fill="white"/>
<path d="M86.6434 0.0146484H49.357V36.9571H63.4392L68.0002 41.476L72.5612 36.9571H86.6434V25.9109L79.0571 18.4859L86.6434 11.0609V0.0146484ZM57.404 7.9874H78.5964L67.9541 18.4859L78.5964 28.9843H57.404V7.9874Z" fill="white"/>
<path d="M98.7136 0V36.9425H112.796L117.357 41.4614L121.918 36.9425H136V0H98.7136ZM106.761 7.97275H127.938V28.9697L117.341 18.4256L106.745 28.9697V7.97275H106.761Z" fill="white"/>
</svg>
