<svg width="84" height="84" viewBox="0 0 84 84" fill="none" xmlns="http://www.w3.org/2000/svg">
<path d="M67.6032 16.3681C67.1263 20.6859 66.5533 24.907 65.0286 29.1458C63.9566 28.648 62.9173 28.1178 61.8169 27.3479C60.9701 26.7551 60.08 26.0147 59.2476 25.1824C58.696 24.6307 58.1743 24.0433 57.7096 23.4372C56.6391 22.041 55.8402 20.5102 55.0237 18.8786C59.1961 17.4045 63.3528 16.8397 67.6032 16.3681ZM53.7906 30.245C55.5971 32.0513 55.6001 34.977 53.7978 36.7793C51.9952 38.582 49.0696 38.5788 47.2632 36.7724C45.4567 34.966 45.4536 32.0404 47.2561 30.2379C49.0586 28.4354 51.9842 28.4385 53.7906 30.245ZM55.438 28.5976C52.7198 25.8792 48.3175 25.8744 45.6051 28.5868C42.8927 31.2992 42.8975 35.7016 45.6157 38.4199C48.334 41.138 52.7364 41.1428 55.4488 38.4305C58.1611 35.718 58.1563 31.3157 55.438 28.5976ZM42.1428 41.8924C41.6872 41.4368 40.9494 41.4356 40.4943 41.8898L40.4925 41.8916L31.824 50.5601C31.369 51.0152 31.3698 51.7535 31.8256 52.2095C32.2816 52.6653 33.02 52.6661 33.475 52.2111L42.1427 43.5434L42.1439 43.5422C42.5992 43.0877 42.5982 42.3487 42.1428 41.8924ZM52.8461 19.7341C53.6906 21.4268 54.6 23.211 55.8598 24.8539C56.3935 25.55 56.9844 26.2139 57.6002 26.8298C58.5276 27.7572 59.5221 28.5857 60.4825 29.2578C61.781 30.1666 63.0044 30.7787 64.1626 31.3132C63.6038 32.5805 62.9473 33.8511 62.1704 35.1283C57.9836 42.0101 50.2641 49.1469 45.7025 53.1237C42.1554 56.216 40.6659 57.2716 39.6313 57.8917L38.6707 57.0205C38.2979 56.6821 37.7596 56.5986 37.3029 56.8081L35.0847 57.826L30.8888 53.6399L26.1502 48.8965L27.1724 46.6591C27.3827 46.1987 27.2953 45.6565 26.951 45.284L26.0801 44.3427C26.7062 43.3051 27.7685 41.8122 30.8562 38.2723C34.8354 33.7105 41.9704 25.9936 48.8501 21.8067C50.1879 20.9924 51.5187 20.3103 52.8461 19.7341ZM48.6826 53.8486L48.8375 59.0031L38.3374 65.9165L40.5948 60.2394C41.8182 59.5372 43.3388 58.5187 47.3547 55.0178C47.7703 54.6554 48.2148 54.265 48.6826 53.8486ZM30.075 35.3563C29.6801 35.8005 29.3085 36.223 28.9627 36.6195C25.3605 40.7492 24.3812 42.2415 23.6706 43.4853L18.1048 45.6908L25.0308 35.1988L30.075 35.3563ZM33.2522 59.5404L32.6025 60.8535L23.2094 51.46L24.5805 50.8737L28.8499 55.1473C28.8586 55.1566 28.8675 55.1657 28.8765 55.1748L29.1166 55.4144L29.4609 55.7589C29.4719 55.7699 29.4836 55.7812 29.4949 55.7917L33.2522 59.5404ZM69.9065 14.0638C69.6372 13.7946 69.2607 13.6618 68.8827 13.7026C62.0169 14.4431 54.8723 15.1995 47.5414 19.6612C41.9311 23.0757 36.2537 28.6375 32.1333 33.0872L24.4487 32.8474C24.0448 32.8348 23.6636 33.0321 23.4411 33.3691L14.1146 47.4975C13.8342 47.9222 13.8625 48.4803 14.1842 48.8759C14.2098 48.9073 14.2368 48.9372 14.265 48.9654C14.5914 49.2921 15.0844 49.3983 15.52 49.2257L24.0529 45.8443L24.5409 46.3721L23.5043 48.6413C23.477 48.701 23.4547 48.762 23.4374 48.8238L20.7058 49.9922C20.3503 50.1441 20.0936 50.4629 20.0209 50.8428C19.9481 51.2227 20.0687 51.6143 20.3426 51.8882L32.1048 63.6505C32.3707 63.9163 32.748 64.0381 33.1186 63.9777C33.4892 63.9173 33.8076 63.682 33.974 63.3456L35.411 60.4412L37.601 59.4361L38.1899 59.9703L34.7994 68.4973C34.6261 68.9331 34.7321 69.4266 35.059 69.7537C35.0869 69.7815 35.1164 69.8082 35.1475 69.8336C35.5427 70.1558 36.1009 70.1845 36.5259 69.9047L50.6655 60.5948C51.0026 60.373 51.2005 59.9918 51.1884 59.5878L50.954 51.7866C55.3936 47.6716 60.9187 42.0209 64.316 36.4368C68.7777 29.1031 69.5308 21.9558 70.2681 15.0874C70.3088 14.7095 70.1755 14.333 69.9065 14.0638ZM21.6598 54.9412C21.2013 54.4828 20.4588 54.4822 20.0014 54.9396L14.4754 60.4655C14.018 60.9229 14.0188 61.6654 14.4771 62.1238C14.9356 62.5823 15.6781 62.5829 16.1355 62.1256L21.6615 56.5997C22.1189 56.1422 22.1182 55.3997 21.6598 54.9412ZM29.0942 62.3758C28.6358 61.9173 27.8933 61.9166 27.4359 62.374L21.9099 67.9C21.4525 68.3573 21.4532 69.0999 21.9117 69.5584C22.3701 70.0168 23.1126 70.0175 23.57 69.5602L29.096 64.0342C29.5534 63.5768 29.5527 62.8342 29.0942 62.3758ZM22.4193 61.6578C21.961 61.1992 21.2185 61.1985 20.761 61.656L14.1333 68.2837C13.6759 68.7412 13.6767 69.4835 14.1352 69.942C14.5936 70.4003 15.3361 70.4012 15.7935 69.9438L22.4212 63.3161C22.8786 62.8586 22.8778 62.1161 22.4193 61.6578Z" fill="#3F6199"/>
</svg>
