<svg width="50" height="50" viewBox="0 0 50 50" fill="none" xmlns="http://www.w3.org/2000/svg">
<path fill-rule="evenodd" clip-rule="evenodd" d="M45.7052 23.4563C45.9604 23.7126 45.9604 24.1266 45.7052 24.3818L40.9713 29.1152C40.8437 29.2433 40.6765 29.3063 40.5093 29.3063C40.3421 29.3063 40.1749 29.2428 40.0473 29.1152C39.7921 28.86 39.7921 28.4454 40.0473 28.1896L44.7812 23.4563C45.0364 23.2011 45.4499 23.2011 45.7052 23.4563ZM46.3562 24.8813C46.9281 24.3079 46.9281 23.3766 46.3562 22.8047C46.0833 22.5287 45.714 22.3766 45.3177 22.3766C44.926 22.3766 44.5567 22.5287 44.2791 22.8047L32.8932 34.1928L34.9697 36.2693L46.3562 24.8813ZM33.1927 38.0475L31.1161 35.9704L31.9697 35.1188L34.0421 37.1954L33.1927 38.0475ZM29.5234 40.4766L31.6442 38.3527L30.8083 37.5157L21.7796 46.5464C22.9281 46.9803 25.0531 46.8563 26.1223 45.7844L29.2416 42.6683C29.2546 42.473 29.2682 42.1428 29.277 41.9047C29.2947 41.4725 29.3078 41.0641 29.3385 40.849C29.3562 40.7068 29.4218 40.5761 29.5234 40.4766ZM47.2848 21.8787C46.2026 20.7959 44.4385 20.7959 43.3557 21.8787L29.7255 35.5074C29.4703 35.7636 29.4703 36.1777 29.7255 36.4329L29.8838 36.5902L20.2708 46.2011C20.152 46.3235 20.0817 46.4896 20.0817 46.6641C20.0817 46.8381 20.152 47.0047 20.2708 47.1271C20.8958 47.7521 22.0348 48.0912 23.2494 48.0912C24.6265 48.0912 26.1046 47.6574 27.051 46.71L30.3156 43.4438C30.5354 43.223 30.5442 43.0542 30.5838 41.9521C30.5927 41.7126 30.6057 41.4324 30.6145 41.2334L32.5723 39.2782L32.7307 39.4355C32.8583 39.5636 33.0255 39.6271 33.1927 39.6271C33.3598 39.6271 33.527 39.5636 33.6546 39.4355L47.2848 25.8063C47.8083 25.2834 48.0942 24.586 48.0942 23.8428C48.0942 23.0995 47.8083 22.4016 47.2848 21.8787ZM33.6062 16.4141C34.0328 15.9881 34.5916 15.7761 35.1505 15.7761C35.7093 15.7761 36.2635 15.9881 36.6906 16.4141C37.1041 16.8251 37.3286 17.3735 37.3286 17.9558C37.3286 18.5381 37.1041 19.085 36.6906 19.4975C35.8416 20.3475 34.4557 20.3475 33.6062 19.4975C33.1968 19.085 32.9682 18.5381 32.9682 17.9558C32.9682 17.373 33.1968 16.8251 33.6062 16.4141ZM35.1505 21.4433C34.2572 21.4433 33.364 21.1027 32.6822 20.4219C32.0223 19.7636 31.6614 18.8865 31.6614 17.9553C31.6614 17.023 32.0223 16.1469 32.6822 15.4881C34.0416 14.1277 36.2546 14.1277 37.6187 15.4881C38.2744 16.1469 38.6395 17.023 38.6395 17.9553C38.6395 18.886 38.2744 19.7636 37.6187 20.4225C36.9364 21.1027 36.0437 21.4433 35.1505 21.4433ZM18.9552 27.1516C19.2765 27.4771 19.2765 28.0058 18.9552 28.3324C18.6249 28.6579 18.0973 28.6579 17.7718 28.3324C17.4463 28.0058 17.4463 27.4771 17.7718 27.1516C18.0973 26.8251 18.6249 26.8251 18.9552 27.1516ZM14.3223 34.3245C10.7057 37.8094 9.14838 37.8553 8.27286 37.4251L16.4255 26.8954C16.4958 26.8027 16.5442 26.6912 16.5572 26.5735L18.0489 14.2594C18.0755 14.0475 17.9963 13.835 17.8333 13.6928C17.6749 13.5495 17.4552 13.4948 17.2484 13.5438C15.4578 13.9725 13.6187 13.4521 12.3208 12.1542C10.2791 10.1126 10.2791 6.79016 12.3208 4.74849C14.3624 2.70683 17.6838 2.70683 19.7255 4.74849C20.852 5.87349 21.4104 7.45162 21.1864 8.86776L19.7213 18.1636C19.6994 18.2985 19.7213 18.4365 19.7828 18.5584L20.9708 20.935L20.3328 28.5355L14.3223 34.3245ZM3.2088 30.9157L12.7869 29.4558L15.277 26.237L15.4223 25.0631L8.86244 27.1339C4.08432 28.6428 3.27026 29.961 3.2088 30.9157ZM24.8244 21.0636L22.2333 21.548L21.7624 27.1506L29.2942 19.849C29.4484 19.6995 29.6682 19.635 29.8791 19.6761C30.0859 19.7183 30.2661 19.8594 30.3499 20.0558C31.089 21.7386 32.6156 22.8938 34.4328 23.1443C35.8187 23.335 37.1958 22.9751 38.3135 22.1297C39.4265 21.2855 40.1437 20.0568 40.3374 18.6714C40.5265 17.2844 40.1703 15.9073 39.3213 14.7933C38.4765 13.6782 37.2489 12.9584 35.863 12.7678C34.288 12.5511 32.6906 13.0579 31.6963 14.0922L25.176 20.8735C25.0796 20.9719 24.9562 21.0386 24.8244 21.0636ZM21.4234 29.3011L29.5802 21.3975C30.5963 23.0537 32.2906 24.1699 34.2572 24.4407C34.5562 24.4818 34.8557 24.5021 35.1546 24.5021C38.3708 24.5011 41.1822 22.123 41.6354 18.8495C41.8729 17.1167 41.4244 15.3954 40.3682 14.0027C39.3078 12.6084 37.7723 11.71 36.0432 11.4709C34.0588 11.1985 32.0307 11.8542 30.7546 13.1839L24.3755 19.8157L22.0874 20.2428L21.0447 18.1605L22.4791 9.07245C22.765 7.25006 22.0656 5.23912 20.6489 3.82297C18.0973 1.27141 13.9437 1.27141 11.3921 3.82297C8.84005 6.37558 8.84005 10.5292 11.3921 13.0803C12.7958 14.4839 14.7052 15.1589 16.6453 14.9698L15.5937 23.6365L8.47078 25.886C2.61036 27.7365 1.62911 29.5751 1.96348 31.7678C1.99005 31.9391 2.08223 32.0928 2.22286 32.1959C2.33744 32.2792 2.47338 32.323 2.60984 32.323C2.64057 32.323 2.67598 32.3214 2.71088 32.3157L11.6244 30.9568L6.80671 37.1803C6.58692 37.4667 6.63953 37.8782 6.92546 38.0985C7.44474 38.5006 8.13536 38.9193 9.0989 38.9193C9.38484 38.9193 9.68849 38.8839 10.0229 38.8006C11.4177 38.4537 13.1203 37.298 15.2322 35.2672L21.4182 29.3084C21.4187 29.3058 21.4234 29.3032 21.4234 29.3011ZM17.565 9.99381C18.414 9.14381 18.414 7.75995 17.565 6.90995C16.7161 6.05891 15.3302 6.06047 14.4807 6.90995C13.6317 7.75995 13.6317 9.14381 14.4807 9.99381C15.3296 10.8443 16.7156 10.8443 17.565 9.99381ZM13.5567 5.98443C12.1927 7.34537 12.1927 9.55943 13.5567 10.9193C14.2343 11.599 15.1275 11.9396 16.0249 11.9396C16.9135 11.9396 17.8114 11.599 18.489 10.9193C19.8531 9.55891 19.8531 7.34485 18.489 5.98443C17.1291 4.62402 14.9161 4.62402 13.5567 5.98443Z" fill="#80CAEA"/>
</svg>
