<svg width="50" height="50" viewBox="0 0 50 50" fill="none" xmlns="http://www.w3.org/2000/svg">
<path d="M16 16.4444C16 17 16.1765 17.5556 16.5882 18C16.2353 18.4444 16 18.9444 16 19.5556C16 20.8889 17.1765 22 18.5882 22C19.8235 22 20.8824 21.1667 21.1176 20.0556H27.8824C28.1176 21.1667 29.1765 22 30.4118 22C31.8235 22 33 20.8889 33 19.5556C33 19 32.8235 18.4444 32.4118 18C32.7647 17.5556 33 17.0556 33 16.4444C33 15.1111 31.8235 14 30.4118 14C29.1765 14 28.1176 14.8333 27.8824 15.8889H21.1765C20.8824 14.7778 19.8824 14 18.6471 14C17.1765 14 16 15.1111 16 16.4444ZM17.7647 17.5556C17.4118 17.2778 17.1765 16.8889 17.1765 16.4444C17.1765 15.7222 17.8235 15.1111 18.5882 15.1111C19.3529 15.1111 20 15.7222 20 16.4444C20 16.7778 20.2353 17 20.5882 17H28.4118C28.7647 17 29 16.7778 29 16.4444C29 15.7222 29.6471 15.1111 30.4118 15.1111C31.1765 15.1111 31.8235 15.7222 31.8235 16.4444C31.8235 16.8889 31.5882 17.2778 31.2353 17.5556C31.0588 17.6667 31 17.8333 31 18C31 18.1667 31.0588 18.3333 31.2353 18.4444C31.5882 18.7222 31.8235 19.1111 31.8235 19.5556C31.8235 20.2778 31.1765 20.8889 30.4118 20.8889C29.6471 20.8889 29 20.2778 29 19.5556C29 19.2222 28.7647 19 28.4118 19H20.6471C20.2941 19 20.0588 19.2778 20.0588 19.5556C20.0588 20.2778 19.4118 20.8889 18.6471 20.8889C17.8824 20.8889 17.1765 20.2778 17.1765 19.5C17.1765 19.0556 17.4118 18.6667 17.7647 18.3889C17.9412 18.2778 18 18.1111 18 17.9444C18 17.8333 17.8824 17.6667 17.7647 17.5556Z" fill="#80CAEA"/>
<path d="M39.4595 7.13425H31.7297V6.03011C31.7297 5.69887 31.5135 5.47804 31.1892 5.47804H28.1081V5.20201C28.1081 3.43538 26.7027 2 24.973 2C23.2432 2 21.8378 3.43538 21.8378 5.20201V5.47804H18.7568C18.4324 5.47804 18.2162 5.69887 18.2162 6.03011V7.13425H10.5405C10.2162 7.13425 10 7.35508 10 7.68632V45.4479C10 45.7792 10.2162 46 10.5405 46H39.4595C39.7838 46 40 45.7792 40 45.4479V7.68632C40 7.41029 39.7297 7.13425 39.4595 7.13425ZM19.3514 6.58218H22.4324C22.7568 6.58218 22.973 6.36136 22.973 6.03011V5.20201C22.973 4.04266 23.8919 3.10414 25.027 3.10414C26.1622 3.10414 27.0811 4.04266 27.0811 5.20201V6.03011C27.0811 6.36136 27.2973 6.58218 27.6216 6.58218H30.6486V9.28733H19.3514V6.58218ZM18.8108 10.3915H31.1892C31.5135 10.3915 31.7297 10.1706 31.7297 9.8394V8.23839H35.2973V41.197H14.7027V8.23839H18.2703V9.8394C18.2703 10.1706 18.4865 10.3915 18.8108 10.3915ZM38.9189 44.8959H11.0811V8.23839H13.6216V41.7491C13.6216 42.0803 13.8378 42.3011 14.1622 42.3011H35.8378C36.1622 42.3011 36.3784 42.0803 36.3784 41.7491V8.23839H38.9189V44.8959Z" fill="#80CAEA"/>
<path d="M25 6C25.5523 6 26 5.55228 26 5C26 4.44771 25.5523 4 25 4C24.4477 4 24 4.44771 24 5C24 5.55228 24.4477 6 25 6Z" fill="#80CAEA"/>
<path d="M32.4198 27H16.5802C16.2321 27 16 27.4 16 28C16 28.6 16.2321 29 16.5802 29H32.4198C32.7679 29 33 28.6 33 28C33 27.4 32.7679 27 32.4198 27Z" fill="#80CAEA"/>
<path d="M32.4198 33H16.5802C16.2321 33 16 33.2 16 33.5C16 33.8 16.2321 34 16.5802 34H32.4198C32.7679 34 33 33.8 33 33.5C33 33.2 32.7679 33 32.4198 33Z" fill="#80CAEA"/>
<path d="M32.4198 37H16.5802C16.2321 37 16 37.2 16 37.5C16 37.8 16.2321 38 16.5802 38H32.4198C32.7679 38 33 37.8 33 37.5C33 37.2 32.7679 37 32.4198 37Z" fill="#80CAEA"/>
</svg>
