<svg width="32" height="32" viewBox="0 0 32 32" fill="none" xmlns="http://www.w3.org/2000/svg">
<path d="M4.42084 15.0798L9.93856 17.1436L12.0895 24.0854C12.183 24.5545 12.7442 24.6483 13.1182 24.3668L16.2044 21.834C16.485 21.5526 16.9526 21.5526 17.3267 21.834L22.8443 25.8678C23.2184 26.1492 23.7796 25.9616 23.8731 25.4925L27.988 5.79282C28.0815 5.32378 27.6139 4.85474 27.1463 5.04236L4.42084 13.8603C3.85972 14.0479 3.85972 14.8922 4.42084 15.0798ZM11.809 16.1117L22.6573 9.45134C22.8443 9.35753 23.0314 9.63896 22.8443 9.73277L13.9599 18.0817C13.6794 18.3631 13.3988 18.7384 13.3988 19.2074L13.1182 21.4588C13.1182 21.7402 12.6506 21.834 12.5571 21.4588L11.4349 17.3312C11.1543 16.8622 11.3414 16.2993 11.809 16.1117Z" fill="white"/>
</svg>
