<svg width="83" height="74" viewBox="0 0 83 74" fill="none" xmlns="http://www.w3.org/2000/svg">
<path d="M20.1377 62.1655L17.7276 58.9475H16.8649V62.1655H16.0159V55.1543H16.8649V58.1943H17.2347L20.0419 55.1543H21.0552L18.2206 58.2354L21.1511 62.1655H20.1377ZM27.8345 58.6599C27.8345 59.3994 27.701 60.0384 27.434 60.577C27.1669 61.1157 26.8006 61.531 26.335 61.8232C25.8695 62.1153 25.3377 62.2614 24.7397 62.2614C24.1418 62.2614 23.61 62.1153 23.1444 61.8232C22.6788 61.531 22.3125 61.1157 22.0455 60.577C21.7784 60.0384 21.6449 59.3994 21.6449 58.6599C21.6449 57.9205 21.7784 57.2814 22.0455 56.7428C22.3125 56.2042 22.6788 55.7888 23.1444 55.4967C23.61 55.2045 24.1418 55.0585 24.7397 55.0585C25.3377 55.0585 25.8695 55.2045 26.335 55.4967C26.8006 55.7888 27.1669 56.2042 27.434 56.7428C27.701 57.2814 27.8345 57.9205 27.8345 58.6599ZM27.0129 58.6599C27.0129 58.0528 26.9113 57.5405 26.7082 57.1228C26.5074 56.7051 26.2346 56.389 25.89 56.1745C25.5476 55.96 25.1642 55.8527 24.7397 55.8527C24.3152 55.8527 23.9306 55.96 23.586 56.1745C23.2437 56.389 22.9709 56.7051 22.7678 57.1228C22.567 57.5405 22.4665 58.0528 22.4665 58.6599C22.4665 59.267 22.567 59.7794 22.7678 60.197C22.9709 60.6147 23.2437 60.9308 23.586 61.1453C23.9306 61.3599 24.3152 61.4671 24.7397 61.4671C25.1642 61.4671 25.5476 61.3599 25.89 61.1453C26.2346 60.9308 26.5074 60.6147 26.7082 60.197C26.9113 59.7794 27.0129 59.267 27.0129 58.6599ZM29.2621 55.1543H30.2754L32.6581 60.9742H32.7403L35.123 55.1543H36.1364V62.1655H35.3421V56.8386H35.2737L33.0827 62.1655H32.3158L30.1248 56.8386H30.0563V62.1655H29.2621V55.1543ZM37.8387 55.1543H38.674V60.6729H38.7425L42.5767 55.1543H43.3984V62.1655H42.5493V56.6606H42.4809L38.6603 62.1655H37.8387V55.1543ZM44.7138 55.9075V55.1543H49.9722V55.9075H47.7675V62.1655H46.9185V55.9075H44.7138ZM51.2826 62.1655V55.1543H55.5139V55.9075H52.1316V58.2765H55.2948V59.0296H52.1316V61.4124H55.5687V62.1655H51.2826ZM56.6608 55.9075V55.1543H61.9192V55.9075H59.7145V62.1655H58.8655V55.9075H56.6608Z" fill="white"/>
<path d="M4.85841 71.8345V64.8233H7.3096C7.79801 64.8233 8.20084 64.9077 8.51808 65.0766C8.83532 65.2432 9.07154 65.468 9.22673 65.751C9.38193 66.0317 9.45953 66.3433 9.45953 66.6856C9.45953 66.9869 9.40589 67.2356 9.29862 67.4319C9.19364 67.6282 9.05442 67.7834 8.88096 67.8975C8.70979 68.0116 8.52378 68.0961 8.32294 68.1508V68.2193C8.53748 68.233 8.75316 68.3083 8.96997 68.4453C9.18679 68.5822 9.36824 68.7785 9.5143 69.0341C9.66037 69.2897 9.7334 69.6024 9.7334 69.9721C9.7334 70.3236 9.65352 70.6397 9.49376 70.9204C9.334 71.2011 9.08181 71.4237 8.73718 71.588C8.39255 71.7523 7.94408 71.8345 7.39177 71.8345H4.85841ZM5.70743 71.0813H7.39177C7.94636 71.0813 8.34006 70.974 8.57285 70.7595C8.80793 70.5427 8.92547 70.2802 8.92547 69.9721C8.92547 69.7348 8.86499 69.5157 8.74403 69.3148C8.62306 69.1117 8.45075 68.9496 8.22709 68.8287C8.00342 68.7054 7.73867 68.6438 7.43285 68.6438H5.70743V71.0813ZM5.70743 67.9044H7.28221C7.53783 67.9044 7.76834 67.8541 7.97375 67.7537C8.18144 67.6533 8.34577 67.5118 8.46673 67.3292C8.58997 67.1466 8.65159 66.9321 8.65159 66.6856C8.65159 66.3775 8.54433 66.1162 8.32979 65.9016C8.11525 65.6848 7.77519 65.5764 7.3096 65.5764H5.70743V67.9044ZM11.1285 71.8345V64.8233H15.3598V65.5764H11.9775V67.9454H15.1407V68.6986H11.9775V71.0813H15.4146V71.8345H11.1285ZM16.5067 65.5764V64.8233H21.7651V65.5764H19.5604V71.8345H18.7114V65.5764H16.5067ZM23.0754 71.8345V64.8233H27.3068V65.5764H23.9244V67.9454H27.0877V68.6986H23.9244V71.0813H27.3616V71.8345H23.0754ZM28.8371 71.8345V64.8233H31.2061C31.7562 64.8233 32.2058 64.9225 32.555 65.1211C32.9064 65.3174 33.1666 65.5833 33.3355 65.9188C33.5044 66.2543 33.5888 66.6286 33.5888 67.0416C33.5888 67.4547 33.5044 67.8302 33.3355 68.168C33.1689 68.5057 32.911 68.7751 32.5618 68.9759C32.2126 69.1745 31.7653 69.2737 31.2198 69.2737H29.5218V68.5206H31.1924C31.569 68.5206 31.8714 68.4555 32.0996 68.3254C32.3279 68.1953 32.4933 68.0196 32.596 67.7982C32.701 67.5746 32.7535 67.3224 32.7535 67.0416C32.7535 66.7609 32.701 66.5099 32.596 66.2885C32.4933 66.0671 32.3267 65.8937 32.0962 65.7681C31.8657 65.6403 31.5599 65.5764 31.1787 65.5764H29.6861V71.8345H28.8371ZM34.9565 64.8233H35.7918V70.3418H35.8603L39.6946 64.8233H40.5162V71.8345H39.6672V66.3296H39.5987L35.7781 71.8345H34.9565V64.8233ZM42.2151 71.8345V64.8233H43.0641V67.9454H46.8025V64.8233H47.6515V71.8345H46.8025V68.6986H43.0641V71.8345H42.2151ZM49.6388 71.8345H48.7487L51.3231 64.8233H52.1996L54.774 71.8345H53.8839L51.7887 65.9324H51.734L49.6388 71.8345ZM49.9675 69.0957H53.5552V69.8489H49.9675V69.0957ZM55.8661 71.8345V64.8233H58.2351C58.7851 64.8233 59.2347 64.9225 59.5839 65.1211C59.9354 65.3174 60.1956 65.5833 60.3645 65.9188C60.5334 66.2543 60.6178 66.6286 60.6178 67.0416C60.6178 67.4547 60.5334 67.8302 60.3645 68.168C60.1979 68.5057 59.94 68.7751 59.5908 68.9759C59.2416 69.1745 58.7943 69.2737 58.2488 69.2737H56.5508V68.5206H58.2214C58.598 68.5206 58.9004 68.4555 59.1286 68.3254C59.3568 68.1953 59.5223 68.0196 59.625 67.7982C59.73 67.5746 59.7825 67.3224 59.7825 67.0416C59.7825 66.7609 59.73 66.5099 59.625 66.2885C59.5223 66.0671 59.3557 65.8937 59.1252 65.7681C58.8947 65.6403 58.5888 65.5764 58.2077 65.5764H56.7151V71.8345H55.8661ZM61.9855 64.8233H62.8208V70.3418H62.8893L66.7235 64.8233H67.5452V71.8345H66.6961V66.3296H66.6277L62.8071 71.8345H61.9855V64.8233ZM69.244 64.8233H70.0794V70.3418H70.1478L73.9821 64.8233H74.8037V71.8345H73.9547V66.3296H73.8862L70.0657 71.8345H69.244V64.8233Z" fill="white"/>
<path d="M29.9577 47.8335C29.7769 47.8327 29.6014 47.7722 29.4584 47.6614C29.3155 47.5506 29.2132 47.3957 29.1673 47.2208L27.513 41.6451L26.2201 44.3656C26.1585 44.4981 26.0628 44.6119 25.9428 44.6954C25.8228 44.779 25.6829 44.8292 25.5371 44.841C25.3914 44.8529 25.2452 44.8259 25.1133 44.7628C24.9815 44.6997 24.8686 44.6028 24.7864 44.482L23.8612 43.1279H21.0366C20.8348 43.1293 20.6396 43.0564 20.4881 42.9231C20.3367 42.7897 20.2397 42.6052 20.2156 42.4049L17.6177 22.4305C17.589 22.2331 17.6349 22.0322 17.7463 21.8668L18.9289 20.1083C18.987 20.0267 19.0573 19.9543 19.1372 19.8939L22.9238 17.2102C23.0226 16.5759 23.206 15.9576 23.4691 15.372C23.4809 15.0178 23.4353 14.664 23.3343 14.3243L21.0795 15.1392C20.8955 15.2067 20.6936 15.2067 20.5097 15.1392L17.0172 13.8341L13.7637 15.8193C13.588 15.9203 13.3814 15.9538 13.1828 15.9134C12.9841 15.8731 12.807 15.7618 12.6845 15.6002C12.5621 15.4387 12.5027 15.2381 12.5175 15.0359C12.5323 14.8338 12.6203 14.6439 12.765 14.502C13.1754 14.1264 13.5041 13.6704 13.7307 13.1623C13.9573 12.6542 14.077 12.105 14.0823 11.5487C14.0976 10.5352 13.8884 9.53082 13.4696 8.6077C12.5382 10.0076 11.7674 11.508 11.1719 13.0805C10.9759 13.8709 11.3312 16.8425 11.6437 18.6991C11.6559 18.7906 11.6559 18.8833 11.6437 18.9748L8.23705 39.3597C8.20381 39.5534 8.10319 39.7291 7.95295 39.8558C7.80272 39.9825 7.61254 40.052 7.41601 40.0521H0.761961C0.554084 40.0342 0.360477 39.939 0.219405 39.7853C0.0783323 39.6315 6.10352e-05 39.4305 6.10352e-05 39.2219C6.10352e-05 39.0132 0.0783323 38.8122 0.219405 38.6584C0.360477 38.5047 0.554084 38.4095 0.761961 38.3916H6.71752L9.9894 18.8829C9.81172 17.829 9.23577 14.0608 9.56663 12.719C9.87912 11.4936 12.091 7.20459 13.0713 6.64702C13.1829 6.58113 13.3064 6.538 13.4347 6.52012C13.563 6.50224 13.6936 6.50997 13.8189 6.54286C14.8727 6.84309 15.5161 9.52064 15.5283 9.55128C15.7931 10.6002 15.8203 11.695 15.608 12.7558L16.5025 12.2043C16.6117 12.1402 16.7339 12.1013 16.8601 12.0907C16.9863 12.0801 17.1133 12.098 17.2317 12.143L20.816 13.4788L23.6161 12.4678C23.8133 12.3918 24.0317 12.3918 24.2288 12.4678C24.329 12.5158 24.4185 12.5834 24.4922 12.6665C24.5658 12.7496 24.6221 12.8466 24.6577 12.9518C24.9457 13.7912 25.3685 15.323 24.9273 16.1195C24.7166 16.6617 24.5726 17.2275 24.4984 17.8045C24.4822 17.9159 24.4434 18.0228 24.3844 18.1187C24.3254 18.2146 24.2474 18.2974 24.1553 18.3621L20.2094 21.1622L19.3149 22.5592L21.7657 41.4981H24.3024C24.4383 41.4982 24.5723 41.5312 24.6928 41.5941C24.8133 41.657 24.9169 41.7481 24.9947 41.8596L25.3501 42.3804L26.9493 39.0043C27.0207 38.8519 27.1369 38.7249 27.2825 38.6402C27.428 38.5556 27.5959 38.5174 27.7637 38.5307C27.9316 38.544 28.0913 38.6082 28.2217 38.7148C28.3521 38.8213 28.4468 38.9651 28.4933 39.1269L29.9761 44.1205L31.079 40.481C31.1203 40.3413 31.1977 40.2149 31.3036 40.1148C31.4094 40.0146 31.5398 39.9442 31.6815 39.9106C31.8233 39.877 31.9714 39.8815 32.1109 39.9236C32.2504 39.9656 32.3763 40.0438 32.4759 40.1501L34.4244 42.1659V33.8453C34.4193 33.6799 34.4639 33.5168 34.5525 33.377C34.6411 33.2373 34.7696 33.1273 34.9213 33.0613C35.0731 32.9954 35.2411 32.9764 35.4037 33.0069C35.5664 33.0375 35.7161 33.1161 35.8336 33.2326L37.9229 35.2974L41.4889 13.779C41.5208 13.5858 41.6202 13.4102 41.7695 13.2834C41.9187 13.1566 42.108 13.0869 42.3038 13.0866C42.4998 13.0852 42.6899 13.1534 42.8403 13.2791C42.9906 13.4048 43.0915 13.5798 43.1249 13.7729L46.8011 35.469L48.6025 33.4838C48.7161 33.3593 48.8647 33.2722 49.0288 33.2339C49.1928 33.1956 49.3647 33.208 49.5216 33.2694C49.677 33.3299 49.8105 33.436 49.9045 33.5738C49.9986 33.7116 50.0488 33.8746 50.0485 34.0414V43.1585H52.7199V37.877C52.7154 37.7103 52.7609 37.5462 52.8506 37.4057C52.9403 37.2653 53.07 37.1549 53.2231 37.0889C53.3761 37.023 53.5454 37.0044 53.7092 37.0357C53.8729 37.0669 54.0234 37.1465 54.1414 37.2642L56.5923 39.7151L59.1044 37.203C59.2224 37.0853 59.373 37.0056 59.5367 36.9744C59.7004 36.9431 59.8697 36.9617 60.0227 37.0277C60.1758 37.0936 60.3056 37.204 60.3952 37.3445C60.4849 37.4849 60.5304 37.6491 60.5259 37.8157V41.492H65.9668C66.1494 41.4911 66.3272 41.5508 66.4724 41.6616C66.6176 41.7725 66.7221 41.9282 66.7694 42.1047L67.3821 44.5984H67.6824L68.7975 34.9911C66.6224 34.5254 66.4018 33.925 66.3099 33.686C66.1261 33.1897 65.8687 32.6199 65.8687 32.6138C65.8081 32.478 65.7852 32.3283 65.8025 32.1806C65.8197 32.0329 65.8765 31.8925 65.9668 31.7743C66.028 31.6947 67.4985 29.783 68.4176 28.6679C68.4804 28.5868 68.5598 28.5199 68.6504 28.4718C69.3376 28.0707 70.0812 27.7754 70.8562 27.5956L71.5915 24.0848C71.6339 23.9013 71.7373 23.7376 71.8847 23.6204C72.0322 23.5032 72.215 23.4393 72.4033 23.4393C72.5917 23.4393 72.7745 23.5032 72.9219 23.6204C73.0693 23.7376 73.1727 23.9013 73.2151 24.0848L77.2713 43.2688H81.9769C82.092 43.2589 82.2078 43.273 82.3171 43.3103C82.4263 43.3475 82.5267 43.407 82.6117 43.4851C82.6968 43.5632 82.7647 43.658 82.8112 43.7637C82.8576 43.8694 82.8816 43.9836 82.8816 44.099C82.8816 44.2145 82.8576 44.3287 82.8112 44.4344C82.7647 44.54 82.6968 44.6349 82.6117 44.713C82.5267 44.791 82.4263 44.8506 82.3171 44.8878C82.2078 44.925 82.092 44.9392 81.9769 44.9293H76.5973C76.4065 44.928 76.2218 44.8618 76.0737 44.7415C75.9255 44.6212 75.8228 44.454 75.7824 44.2675L72.4064 28.2941L72.3635 28.5086C72.3252 28.6961 72.223 28.8646 72.0744 28.9853C71.9258 29.106 71.74 29.1713 71.5486 29.1703C70.8596 29.2582 70.1962 29.4877 69.6002 29.8443C68.9445 30.6408 68.0439 31.805 67.5843 32.3993L67.8049 32.9507C68.4604 33.2145 69.1456 33.3976 69.8452 33.4961C70.0562 33.5294 70.246 33.6431 70.3751 33.8132C70.5041 33.9834 70.5624 34.1969 70.5376 34.409L69.2448 45.5481C69.2208 45.7507 69.1233 45.9374 68.9709 46.0729C68.8184 46.2084 68.6216 46.2833 68.4176 46.2834L66.7265 46.2282C66.547 46.225 66.3734 46.1635 66.2319 46.053C66.0905 45.9425 65.9888 45.7889 65.9423 45.6155L65.3296 43.1647H59.7232C59.6141 43.1647 59.506 43.1431 59.4053 43.1011C59.3045 43.0592 59.2131 42.9977 59.1362 42.9202C59.0593 42.8428 58.9985 42.7509 58.9573 42.6498C58.9161 42.5487 58.8953 42.4405 58.8961 42.3314V39.8805L57.2111 41.5532C57.052 41.7032 56.8416 41.7867 56.6229 41.7867C56.4043 41.7867 56.1939 41.7032 56.0347 41.5532L54.3988 39.9173V44.0041C54.3996 44.1132 54.3788 44.2214 54.3376 44.3225C54.2964 44.4236 54.2356 44.5155 54.1587 44.5929C54.0818 44.6704 53.9903 44.7319 53.8896 44.7738C53.7888 44.8158 53.6807 44.8374 53.5716 44.8374H49.2397C49.0187 44.8374 48.8068 44.7496 48.6505 44.5933C48.4942 44.437 48.4064 44.2251 48.4064 44.0041V36.192L46.8992 37.877C46.7937 37.9913 46.6584 38.0739 46.5085 38.1153C46.3586 38.1567 46.2 38.1554 46.0508 38.1114C45.9016 38.0674 45.7677 37.9825 45.6643 37.8664C45.5608 37.7502 45.4919 37.6074 45.4654 37.4542L42.3345 18.9441L39.326 37.1294C39.2998 37.2793 39.2336 37.4194 39.1343 37.5347C39.0351 37.6501 38.9066 37.7366 38.7624 37.785C38.6184 37.8328 38.4641 37.8403 38.3162 37.8068C38.1683 37.7734 38.0323 37.7002 37.9229 37.5951L36.0848 35.806V44.2859C36.0832 44.4514 36.0324 44.6127 35.9388 44.7492C35.8452 44.8857 35.7131 44.9912 35.5593 45.0524C35.4055 45.1135 35.237 45.1274 35.0752 45.0924C34.9135 45.0574 34.7658 44.975 34.6511 44.8557L32.2615 42.3191L30.7726 47.2208C30.7258 47.3952 30.6232 47.5495 30.4805 47.6601C30.3378 47.7708 30.1628 47.8317 29.9822 47.8335" fill="white"/>
<path d="M82.1913 51.7126H0.859919C0.757309 51.722 0.653875 51.7098 0.556216 51.677C0.458557 51.6441 0.368819 51.5913 0.292725 51.5218C0.216631 51.4523 0.155853 51.3678 0.11427 51.2735C0.0726856 51.1792 0.0512085 51.0773 0.0512085 50.9743C0.0512085 50.8713 0.0726856 50.7694 0.11427 50.6751C0.155853 50.5808 0.216631 50.4962 0.292725 50.4268C0.368819 50.3573 0.458557 50.3045 0.556216 50.2716C0.653875 50.2388 0.757309 50.2266 0.859919 50.236H82.1913C82.2939 50.2266 82.3973 50.2388 82.495 50.2716C82.5927 50.3045 82.6824 50.3573 82.7585 50.4268C82.8346 50.4962 82.8954 50.5808 82.937 50.6751C82.9785 50.7694 83 50.8713 83 50.9743C83 51.0773 82.9785 51.1792 82.937 51.2735C82.8954 51.3678 82.8346 51.4523 82.7585 51.5218C82.6824 51.5913 82.5927 51.6441 82.495 51.677C82.3973 51.7098 82.2939 51.722 82.1913 51.7126Z" fill="white"/>
<path d="M47.4445 3.97007C47.409 3.86117 47.3437 3.76441 47.256 3.69077C47.1682 3.61712 47.0616 3.56954 46.9482 3.55342L44.0501 3.12452L42.7083 0.502118C42.6569 0.400141 42.578 0.314553 42.4806 0.255008C42.3831 0.195463 42.271 0.164332 42.1568 0.165127C42.0416 0.163179 41.9282 0.193765 41.8295 0.253374C41.7309 0.312983 41.6511 0.399197 41.5993 0.502118L40.2942 3.15516L37.3715 3.56568C37.2581 3.5818 37.1515 3.62938 37.0638 3.70302C36.9761 3.77667 36.9108 3.87343 36.8752 3.98232C36.8427 4.08873 36.8398 4.20199 36.8668 4.30993C36.8938 4.41788 36.9497 4.51644 37.0284 4.59503L39.1484 6.666L38.646 9.58251C38.6241 9.69738 38.6356 9.81611 38.679 9.92468C38.7224 10.0332 38.796 10.1271 38.8911 10.1952C38.9838 10.2636 39.0939 10.3045 39.2087 10.3132C39.3236 10.3218 39.4386 10.298 39.5405 10.2442L42.1568 8.86564L44.7731 10.2442C44.8631 10.2874 44.9613 10.3104 45.0611 10.3116C45.1909 10.3121 45.3174 10.2713 45.4226 10.1952C45.5176 10.1271 45.5912 10.0332 45.6347 9.92468C45.6781 9.81611 45.6895 9.69738 45.6677 9.58251L45.1652 6.666L47.2852 4.60116C47.365 4.52321 47.4221 4.42495 47.4501 4.31697C47.4782 4.209 47.4763 4.0954 47.4445 3.98845M43.9031 6.57409L44.2462 8.57766L42.4448 7.63408C42.3569 7.58793 42.2591 7.56381 42.1599 7.56381C42.0606 7.56381 41.9628 7.58793 41.875 7.63408L40.0736 8.57766L40.4167 6.57409C40.4338 6.4756 40.4266 6.37441 40.3956 6.27936C40.3647 6.18431 40.3109 6.09828 40.239 6.02878L38.7808 4.5889L40.7966 4.2948C40.8948 4.28006 40.9879 4.24168 41.0679 4.18298C41.148 4.12428 41.2126 4.04701 41.2561 3.95781L42.1568 2.11968L43.0575 3.95781C43.1016 4.04778 43.1672 4.12555 43.2484 4.1843C43.3296 4.24305 43.4239 4.281 43.5232 4.2948L45.539 4.5889L44.0807 6.01652C44.0089 6.08603 43.9551 6.17206 43.9241 6.26711C43.8932 6.36216 43.8859 6.46334 43.9031 6.56184" fill="white"/>
</svg>
