<svg width="98" height="99" viewBox="0 0 98 99" fill="none" xmlns="http://www.w3.org/2000/svg">
<path d="M83.8491 34.489C84.0925 34.936 84.2196 35.4364 84.2188 35.9446V61.5323L66.9707 59.6902L67.375 59.8689V62.4462C67.375 64.4659 66.5684 66.4029 65.1325 67.8311C63.6967 69.2592 61.7493 70.0616 59.7188 70.0616H21.4375C19.4069 70.0616 17.4595 69.2592 16.0237 67.8311C14.5879 66.4029 13.7812 64.4659 13.7812 62.4462V35.0308C13.7812 33.0111 14.5879 31.0741 16.0237 29.6459C17.4595 28.2177 19.4069 27.4154 21.4375 27.4154H59.7188C61.7493 27.4154 63.6967 28.2177 65.1325 29.6459C66.5684 31.0741 67.375 33.0111 67.375 35.0308V37.608L66.9707 37.7868L67.375 38.7014H68.375V38.2593L79.9159 33.1574M83.8491 34.489C83.6057 34.0421 83.2538 33.6629 82.8253 33.3859M83.8491 34.489L82.9709 34.9673C83.1342 35.2672 83.2193 35.6026 83.2188 35.9431V35.9446V61.5323V61.5339C83.2193 61.8743 83.1342 62.2098 82.9709 62.5097L83.8491 62.9879L82.9709 62.5097C82.8078 62.8091 82.5717 63.0639 82.2837 63.2505C81.9492 63.4651 81.5588 63.5792 81.1597 63.5785C80.8693 63.577 80.5822 63.5173 80.3158 63.403L80.3203 34.072M83.8491 34.489L82.9709 34.9673C82.8077 34.6676 82.5714 34.4127 82.2832 34.2262M82.8253 33.3859C82.3978 33.11 81.9078 32.9447 81.3997 32.9048C80.8917 32.8649 80.3817 32.9517 79.9159 33.1574M82.8253 33.3859L82.2832 34.2262M82.8253 33.3859L82.2824 34.2256C82.2826 34.2258 82.2829 34.226 82.2832 34.2262M79.9159 33.1574L80.3203 34.072M79.9159 33.1574L80.3199 34.0722L67.7793 39.616L66.375 40.2368V38.7014V35.0308C66.375 33.278 65.675 31.5959 64.4273 30.3549C63.1794 29.1137 61.4858 28.4154 59.7188 28.4154H21.4375C19.6704 28.4154 17.9768 29.1137 16.7289 30.3549C15.4812 31.5959 14.7812 33.278 14.7812 35.0308V62.4462C14.7812 64.199 15.4812 65.881 16.7289 67.1221C17.9768 68.3633 19.6704 69.0616 21.4375 69.0616H59.7188C61.4858 69.0616 63.1794 68.3633 64.4273 67.1221C65.675 65.881 66.375 64.199 66.375 62.4462V58.7756V57.2401L67.7793 57.8609L80.312 63.4013L80.3203 34.072M80.3203 34.072C80.6343 33.9334 80.9785 33.8748 81.3215 33.9017C81.6645 33.9286 81.9951 34.0403 82.2832 34.2262M77.6919 57.757L79.0938 58.3721V56.8412V40.6662V39.1353L77.6919 39.7505L67.2794 44.3197L66.6813 44.5822V45.2354V52.272V52.9252L67.2794 53.1877L77.6919 57.757ZM61.5067 64.2321C61.982 63.7594 62.25 63.1171 62.25 62.4462V35.0308C62.25 34.3599 61.982 33.7176 61.5067 33.2448C61.0316 32.7722 60.3884 32.5077 59.7188 32.5077H21.4375C20.7679 32.5077 20.1246 32.7722 19.6495 33.2448C19.1742 33.7176 18.9062 34.3599 18.9062 35.0308V62.4462C18.9062 63.1171 19.1742 63.7594 19.6495 64.2321C20.1246 64.7047 20.7679 64.9692 21.4375 64.9692H59.7188C60.3884 64.9692 61.0316 64.7047 61.5067 64.2321ZM38.8125 41.1231C38.8125 41.664 38.5965 42.1839 38.2103 42.5681C37.8239 42.9524 37.2987 43.1693 36.75 43.1693H29.0938C28.545 43.1693 28.0198 42.9524 27.6334 42.5681C27.2472 42.1839 27.0312 41.664 27.0312 41.1231C27.0312 40.5822 27.2472 40.0623 27.6334 39.6781C28.0198 39.2938 28.545 39.0769 29.0938 39.0769H36.75C37.2987 39.0769 37.8239 39.2938 38.2103 39.6781C38.5965 40.0623 38.8125 40.5822 38.8125 41.1231Z" fill="#3F6199" stroke="white" stroke-width="2"/>
</svg>
