<svg width="97" height="98" viewBox="0 0 97 98" fill="none" xmlns="http://www.w3.org/2000/svg">
<path d="M64 54.0723C64 55.9057 64 58.5 64 62.0723C64 65.6447 61.5 66.5 59.5 66.5724C57.5 66.6447 24.6 66.5724 21 66.5724C17.4 66.5724 16.1667 63.5723 16 62.0723V34.0723C16 30.0723 19.5 30.0723 21.5 30.0723C32 30.239 54.0819 30.0001 58.5 30C63 29.9999 63.8333 33.3333 64 35V42.5723M64 54.0723L80.5 61.0723C80.5 51.0857 80.5 45.4866 80.5 35.5L64 42.5723M64 54.0723V42.5723" stroke="black"/>
<path d="M28 40.5H36" stroke="black" stroke-linecap="round"/>
</svg>
