<svg width="32" height="32" viewBox="0 0 32 32" fill="none" xmlns="http://www.w3.org/2000/svg">
<path d="M27.7678 21.4589C27.7678 21.3562 27.6683 21.3562 27.6683 21.2534C27.2704 20.4315 26.3752 19.4041 25.1816 18.274C24.5848 17.7603 24.2864 17.3493 24.0874 17.1438C23.789 16.7329 23.789 16.4247 23.8885 16.0137C23.988 15.7055 24.3858 15.1918 25.0821 14.2671C25.48 13.7534 25.6789 13.4452 25.9773 13.137C27.4694 11.0822 28.1656 9.74657 27.9667 9.13013L27.8673 9.0274C27.7678 8.92466 27.6683 8.82192 27.4694 8.82192C27.2704 8.71918 26.972 8.71918 26.6736 8.82192H22.8938C22.7943 8.82192 22.7943 8.82192 22.5954 8.82192C22.4959 8.82192 22.3965 8.82192 22.3965 8.82192H22.297H22.1975L22.098 8.92465C21.9986 9.02739 21.9986 9.02739 21.9986 9.13013C21.6007 10.2603 21.1034 11.1849 20.606 12.2123C20.3076 12.726 20.0092 13.2397 19.7108 13.6507C19.4124 14.0616 19.2134 14.3699 19.0145 14.5753C18.8156 14.7808 18.6166 14.8836 18.5172 15.089C18.4177 15.1918 18.2188 15.2945 18.2188 15.1918C18.1193 15.1918 18.0198 15.1918 18.0198 15.089C17.9203 14.9863 17.8209 14.8836 17.7214 14.7808C17.6219 14.6781 17.6219 14.4726 17.5225 14.2671C17.5225 14.0616 17.5225 13.8562 17.5225 13.7534C17.5225 13.6507 17.5225 13.3425 17.5225 13.137C17.5225 12.8288 17.5225 12.6233 17.5225 12.5205C17.5225 12.2123 17.5225 11.8014 17.5225 11.3904C17.5225 10.9795 17.5225 10.6712 17.5225 10.4657C17.5225 10.2603 17.5225 9.95205 17.5225 9.74657C17.5225 9.43835 17.5225 9.23287 17.5225 9.13013C17.5225 9.02739 17.423 8.82192 17.423 8.71918C17.3235 8.61644 17.2241 8.51369 17.1246 8.41095C17.0251 8.30821 16.8262 8.30822 16.7267 8.20548C16.2294 8.10274 15.6326 8 14.9363 8C13.3448 8 12.2506 8.10274 11.8527 8.30822C11.6538 8.41096 11.4549 8.5137 11.3554 8.71918C11.1565 8.92465 11.1565 9.0274 11.2559 9.0274C11.7533 9.13014 12.1512 9.33561 12.3501 9.64383L12.4496 9.84932C12.549 9.95206 12.549 10.1575 12.6485 10.4657C12.748 10.774 12.748 11.0822 12.748 11.4931C12.748 12.1096 12.748 12.726 12.748 13.137C12.748 13.6507 12.6485 13.9589 12.6485 14.2671C12.6485 14.5753 12.549 14.7808 12.4496 14.8836C12.3501 15.089 12.3501 15.1918 12.2506 15.1918C12.2506 15.1918 12.2506 15.2945 12.1511 15.2945C12.0517 15.2945 11.9522 15.3973 11.7533 15.3973C11.6538 15.3973 11.4549 15.2945 11.3554 15.1918C11.1565 15.089 10.9575 14.8836 10.8581 14.6781C10.6591 14.4726 10.4602 14.1644 10.2612 13.7534C10.0623 13.3425 9.76388 12.9315 9.56494 12.3151L9.36602 11.9041C9.26655 11.6986 9.06762 11.2877 8.86868 10.774C8.66974 10.2603 8.4708 9.84932 8.27186 9.33562C8.17239 9.13014 8.07293 9.02739 7.97346 8.92465H7.87399C7.87399 8.92465 7.77451 8.82192 7.67504 8.82192C7.57557 8.82192 7.47611 8.71918 7.37664 8.71918H3.79575C3.39788 8.71918 3.19894 8.82191 3.09948 8.92465L3 9.0274C3 9.0274 3 9.13013 3 9.23287C3 9.33561 3.00001 9.43835 3.09948 9.64383C3.59682 10.8767 4.19363 12.1096 4.79044 13.3425C5.38726 14.4726 5.98408 15.5 6.38195 16.2192C6.8793 16.9384 7.27717 17.6575 7.77451 18.274C8.27186 18.8904 8.57026 19.3014 8.66973 19.5069C8.86867 19.7123 8.96813 19.8151 9.0676 19.9178L9.36602 20.226C9.56496 20.4315 9.86336 20.7397 10.2612 21.0479C10.6591 21.3562 11.1565 21.6644 11.6538 21.9726C12.1511 22.2808 12.748 22.4863 13.3448 22.6918C14.0411 22.8973 14.6379 23 15.2347 22.8973H16.7267C17.0251 22.8973 17.2241 22.7945 17.423 22.589L17.5225 22.4863C17.5225 22.3836 17.6219 22.3836 17.6219 22.2808C17.6219 22.1781 17.6219 22.0754 17.6219 21.8699C17.6219 21.4589 17.6219 21.1507 17.7214 20.8425C17.8209 20.5343 17.8209 20.3288 17.9204 20.1233C18.0198 19.9178 18.1193 19.8151 18.2188 19.7123C18.3182 19.6096 18.4177 19.5069 18.4177 19.5069H18.5172C18.7161 19.4041 19.0145 19.5069 19.2134 19.7123C19.5119 19.9178 19.8102 20.226 20.0092 20.5343C20.2081 20.8425 20.5066 21.1507 20.9044 21.5616C21.3023 21.9726 21.6007 22.2808 21.7996 22.3836L22.098 22.589C22.297 22.6918 22.4959 22.7945 22.7943 22.8973C23.0927 23 23.2917 23 23.4906 23L26.8726 22.8973C27.171 22.8973 27.4694 22.7945 27.6683 22.6918C27.8672 22.5891 27.9667 22.4863 27.9667 22.2808C27.9667 22.1781 27.9667 21.9726 27.9667 21.8699C27.7678 21.6644 27.7678 21.5616 27.7678 21.4589Z" fill="white"/>
</svg>
