<svg width="112" height="140" viewBox="0 0 112 140" fill="none" xmlns="http://www.w3.org/2000/svg">
<path d="M88.3271 0.75293C89.6634 1.90694 90.9576 3.11234 92.2059 4.36874L91.4965 5.07355C90.2664 3.83546 88.9908 2.64739 87.6735 1.50976L88.3271 0.75293Z" fill="white"/>
<path d="M99.0641 12.4497C101.107 15.2845 102.945 18.3088 104.549 21.5194L103.655 21.9664C102.074 18.8045 100.264 15.8262 98.2528 13.0343L99.0641 12.4497Z" fill="white"/>
<path d="M108.52 31.3486C109.555 34.6327 110.369 38.0713 110.937 41.6616L109.949 41.818C109.389 38.2759 108.587 34.8856 107.566 31.6494L108.52 31.3486Z" fill="white"/>
<path d="M111.873 52.2141C111.949 55.6253 111.819 59.1519 111.468 62.7921L110.473 62.696C110.82 59.0938 110.949 55.6069 110.873 52.2365L111.873 52.2141Z" fill="white"/>
<path d="M109.899 73.2477C109.226 76.5823 108.376 80.0009 107.339 83.5023L106.381 83.2184C107.409 79.7442 108.252 76.3544 108.919 73.0499L109.899 73.2477Z" fill="white"/>
<path d="M103.944 93.5142C103.326 95.1352 102.669 96.7722 101.973 98.4253C101.29 100.047 100.451 101.697 99.4574 103.355L98.5996 102.841C99.5705 101.221 100.388 99.6127 101.052 98.0372C101.743 96.3945 102.396 94.7681 103.009 93.158L103.944 93.5142Z" fill="white"/>
<path d="M92.7377 112.133C90.348 114.664 87.5932 117.128 84.482 119.445L83.8846 118.643C86.9505 116.36 89.6617 113.934 92.0105 111.446L92.7377 112.133Z" fill="white"/>
<path d="M75.1652 125.321C72.0468 126.975 68.6871 128.48 65.091 129.789L64.7489 128.849C68.3017 127.556 71.6191 126.07 74.6966 124.438L75.1652 125.321Z" fill="white"/>
<path d="M54.5209 132.882C51.0706 133.661 47.4504 134.266 43.6636 134.669L43.5578 133.675C47.3065 133.276 50.8884 132.677 54.3006 131.906L54.5209 132.882Z" fill="white"/>
<path d="M32.6722 135.245C29.1327 135.247 25.4709 135.078 21.6887 134.721L21.783 133.725C25.5342 134.08 29.1644 134.247 32.6717 134.245L32.6722 135.245Z" fill="white"/>
<path d="M10.7864 133.209C9.0115 132.887 7.21338 132.524 5.39219 132.12L5.60912 131.143C7.41772 131.545 9.20306 131.905 10.965 132.225L10.7864 133.209Z" fill="white"/>
<path d="M10.6427 126.677C10.832 126.476 10.8225 126.159 10.6215 125.97C10.4204 125.781 10.104 125.79 9.91467 125.991C6.34155 129.786 2.61682 129.966 1.31047 129.645C1.04232 129.579 0.771479 129.743 0.705531 130.011C0.674419 130.138 0.694467 130.265 0.752484 130.371C0.735334 130.399 0.720751 130.429 0.709156 130.462C0.615965 130.722 0.751145 131.008 1.01109 131.101C1.38268 131.234 2.19884 131.774 3.22131 133.027C4.23102 134.264 5.41358 136.163 6.53459 138.95C6.63764 139.206 6.92886 139.33 7.18505 139.227C7.44125 139.124 7.5654 138.833 7.46236 138.577C6.30986 135.711 5.07922 133.722 3.99604 132.395C3.4021 131.667 2.84326 131.127 2.3574 130.753C4.38552 130.752 7.60448 129.904 10.6427 126.677Z" fill="white"/>
</svg>
