<svg width="176" height="167" viewBox="0 0 176 167" fill="none" xmlns="http://www.w3.org/2000/svg">
<path d="M175.541 3.44462C175.649 2.9029 175.297 2.3766 174.755 2.26909L165.927 0.517142C165.386 0.409634 164.859 0.761632 164.752 1.30335C164.644 1.84507 164.996 2.37138 165.538 2.47888L173.385 4.03617L171.828 11.8831C171.72 12.4249 172.072 12.9512 172.614 13.0587C173.156 13.1662 173.682 12.8142 173.789 12.2725L175.541 3.44462ZM66.7472 141.319L65.7489 141.26L66.7472 141.319ZM73.1638 112.118L72.2316 111.756L73.1638 112.118ZM66.643 143.368L67.6421 143.41L66.643 143.368ZM0.199316 22.1771C2.75804 22.6942 5.48557 23.3405 8.35227 24.1136L8.87303 22.1826C5.96952 21.3996 3.20027 20.7431 0.59548 20.2167L0.199316 22.1771ZM24.3728 29.2685C29.3974 31.1262 34.6245 33.2727 39.9441 35.697L40.7735 33.8771C35.4098 31.4327 30.1374 29.2675 25.0664 27.3926L24.3728 29.2685ZM55.0235 43.2197C59.8922 45.8671 64.7508 48.7315 69.519 51.8047L70.6025 50.1237C65.7902 47.022 60.8886 44.1324 55.979 41.4626L55.0235 43.2197ZM83.2818 61.4962C87.745 64.9361 92.0403 68.5712 96.0902 72.3932L97.4629 70.9387C93.3603 67.0669 89.0138 63.3889 84.5027 59.9121L83.2818 61.4962ZM107.596 84.617C109.391 86.7854 111.098 89.0012 112.709 91.2631L114.338 90.1033C112.698 87.7998 110.961 85.5456 109.137 83.3418L107.596 84.617ZM112.709 91.2631C114.268 93.4531 115.56 95.6789 116.61 97.9252L118.422 97.0785C117.32 94.7202 115.966 92.3899 114.338 90.1033L112.709 91.2631ZM120.259 112.742C120.499 117.909 119.744 123.04 118.245 127.96L120.158 128.543C121.715 123.432 122.508 118.072 122.257 112.649L120.259 112.742ZM111.724 141.967C108.863 146.466 105.476 150.518 101.866 153.917L103.237 155.374C106.967 151.861 110.46 147.68 113.412 143.04L111.724 141.967ZM89.2175 162.634C83.6872 165.093 78.6286 165.505 74.8632 163.556L73.9439 165.332C78.4808 167.68 84.2378 167.037 90.0299 164.462L89.2175 162.634ZM67.9251 151.173C67.6242 148.91 67.5187 146.33 67.6421 143.41L65.6439 143.326C65.5164 146.342 65.6238 149.04 65.9426 151.437L67.9251 151.173ZM67.6421 143.41C67.6493 143.242 67.6568 143.072 67.6647 142.902L65.6669 142.809C65.6588 142.982 65.6512 143.154 65.6439 143.326L67.6421 143.41ZM67.7164 141.886C67.7257 141.718 67.7354 141.548 67.7454 141.378L65.7489 141.26C65.7387 141.433 65.7289 141.605 65.7194 141.776L67.7164 141.886ZM67.7454 141.378C67.8913 138.913 68.138 136.447 68.482 133.993L66.5013 133.715C66.15 136.222 65.898 138.74 65.7489 141.26L67.7454 141.378ZM71.6753 119.5C72.3932 117.127 73.2013 114.783 74.0959 112.48L72.2316 111.756C71.3184 114.107 70.4937 116.499 69.7609 118.921L71.6753 119.5ZM74.0959 112.48C74.9105 110.382 75.8705 108.084 77.0112 105.598L75.1935 104.764C74.0352 107.288 73.0598 109.623 72.2316 111.756L74.0959 112.48ZM83.9832 92.3418C86.3037 88.4238 89.0161 84.2298 92.1956 79.7877L90.5692 78.6236C87.3562 83.1126 84.6123 87.355 82.2624 91.3226L83.9832 92.3418ZM101.394 67.9008C104.41 64.2766 107.722 60.5268 111.364 56.6632L109.909 55.2914C106.239 59.1845 102.899 62.9652 99.857 66.6216L101.394 67.9008ZM121.986 45.9946C125.45 42.6934 129.149 39.3238 133.102 35.8922L131.791 34.3819C127.815 37.8334 124.093 41.2239 120.606 44.5469L121.986 45.9946ZM144.684 26.2563C148.468 23.2358 152.446 20.1744 156.632 17.0761L155.442 15.4686C151.237 18.5811 147.239 21.6573 143.437 24.6934L144.684 26.2563ZM168.883 8.31812C170.918 6.91226 172.995 5.49983 175.116 4.08119L174.005 2.41873C171.875 3.84292 169.789 5.26101 167.746 6.67265L168.883 8.31812Z" fill="white"/>
</svg>
