<svg width="93" height="89" viewBox="0 0 93 89" fill="none" xmlns="http://www.w3.org/2000/svg">
<path d="M20.0038 22.6521L20.001 22.6309L19.9973 22.6099C19.4462 19.4893 20.0477 16.8684 20.9813 15.193C21.3319 14.5729 21.6372 14.0859 21.9213 13.633C22.093 13.3591 22.257 13.0976 22.4184 12.8267C22.8088 12.1715 23.1679 11.4843 23.2589 10.7161C23.3556 9.89977 23.1387 9.12936 22.6694 8.31413C22.2203 7.53407 21.5069 6.65553 20.518 5.58173C19.931 4.75836 19.8201 3.59228 20.2458 2.67529C20.6777 1.74517 21.6619 1.0706 22.6855 1.00319C23.6431 0.956162 24.6291 1.43231 25.187 2.21125L25.1869 2.2113L25.1942 2.22125C25.5073 2.64715 25.8778 3.08973 26.2452 3.52842C26.432 3.75153 26.618 3.97365 26.7951 4.19205C27.3438 4.86856 27.8981 5.61251 28.4124 6.53308C30.3697 10.2225 28.604 14.3803 26.0812 17.8967L26.0481 17.9429L26.0204 17.9925C26.0015 18.0264 25.981 18.0619 25.9595 18.0993C25.8012 18.3742 25.5855 18.7486 25.5156 19.2978C25.4447 19.8548 25.5191 20.5601 25.7059 21.6178L25.7093 21.637L25.7134 21.656C26.0371 23.1467 24.8826 24.8632 23.3779 25.1259C21.8731 25.3884 20.2047 24.1643 20.0038 22.6521ZM33.0038 22.6521L33.001 22.6309L32.9973 22.6099C32.4462 19.489 33.0478 16.8679 33.9816 15.1926C34.332 14.5726 34.6373 14.0858 34.9212 13.633C35.093 13.3591 35.257 13.0976 35.4184 12.8267C35.8088 12.1715 36.1679 11.4843 36.2589 10.7161C36.3556 9.89977 36.1387 9.12936 35.6694 8.31413C35.2203 7.53407 34.5069 6.65553 33.518 5.58173C32.931 4.75837 32.8201 3.59231 33.2458 2.67532C33.6777 1.74518 34.6619 1.0706 35.6855 1.00319C36.6431 0.956162 37.6291 1.43231 38.187 2.21125L38.1869 2.2113L38.1942 2.22125C38.5073 2.64714 38.8778 3.08971 39.2451 3.52838C39.432 3.75151 39.618 3.97364 39.7951 4.19205C40.3438 4.86857 40.8981 5.61255 41.4125 6.53314C43.3697 10.2225 41.604 14.3803 39.0812 17.8967L39.0481 17.9429L39.0204 17.9925C39.0015 18.0264 38.981 18.0619 38.9595 18.0993C38.8012 18.3742 38.5855 18.7486 38.5156 19.2978C38.4447 19.8548 38.5191 20.5601 38.7059 21.6178L38.7093 21.637L38.7134 21.656C39.0371 23.1467 37.8826 24.8632 36.3779 25.1259C34.8731 25.3884 33.2047 24.1643 33.0038 22.6521ZM46.0038 22.6521L46.001 22.6309L45.9973 22.6099C45.4462 19.489 46.0478 16.8679 46.9816 15.1926C47.332 14.5726 47.6373 14.0858 47.9212 13.633C48.093 13.3591 48.257 13.0976 48.4184 12.8267C48.8088 12.1715 49.1679 11.4843 49.2589 10.7161C49.3556 9.89977 49.1387 9.12936 48.6694 8.31413C48.2203 7.53407 47.5069 6.65553 46.518 5.58173C45.931 4.75836 45.8201 3.59228 46.2458 2.67529C46.6777 1.74517 47.6619 1.0706 48.6855 1.00319C49.6431 0.956162 50.6291 1.43231 51.187 2.21125L51.1869 2.2113L51.1942 2.22125C51.5073 2.64715 51.8779 3.08974 52.2452 3.52843C52.432 3.75155 52.618 3.97365 52.7951 4.19205C53.3438 4.86854 53.898 5.61248 54.4124 6.53301C56.3697 10.2224 54.604 14.3803 52.0812 17.8967L52.0481 17.9429L52.0204 17.9925C52.0015 18.0264 51.981 18.0619 51.9595 18.0993C51.8012 18.3742 51.5855 18.7486 51.5156 19.2978C51.4447 19.8548 51.5191 20.5601 51.7059 21.6178L51.7093 21.637L51.7134 21.656C52.0371 23.1467 50.8826 24.8632 49.3779 25.1259C47.8731 25.3884 46.2047 24.1643 46.0038 22.6521ZM6.48743 29.6709L6.48743 29.671L6.50064 29.671C12.1819 29.6673 17.8985 29.6795 23.6278 29.6918C39.2777 29.7251 55.0215 29.7587 70.3935 29.4701C71.6975 29.7411 72.5544 30.18 73.1448 30.8143C73.7453 31.4593 74.1769 32.4211 74.3999 33.9411C74.3998 35.3287 74.3917 36.6677 74.3597 37.987L74.3327 39.0977L75.4401 39.0081C79.8949 38.6475 84.6467 39.2244 88.4296 42.0035C90.0698 43.3993 91.3057 45.6838 91.3 48.1188V48.1212C91.3 57.0246 86.8548 64.0689 81.3027 68.6682L81.8998 69.3891L81.3027 68.6683C76.1014 72.9774 70.0954 75.3259 64.8211 75.627L64.3265 75.6553L64.0493 76.0658C61.6665 79.595 58.8111 83.0345 55.3569 86.4739L55.3568 86.474C54.8222 87.0064 54.0601 87.3194 53.3 87.3194L53.2974 87.3194L22.1028 87.4C21.3437 87.3926 20.5831 87.0677 20.0535 86.5245L20.0535 86.5245L20.0444 86.5153C12.6905 79.1654 7.94735 71.8941 5.03096 63.5504C2.11052 55.1952 1.00105 45.7059 1 33.8841C1.05714 32.1049 1.5011 31.149 2.20926 30.588C2.97032 29.9849 4.26906 29.643 6.48743 29.6709ZM68.478 36.4401L68.4916 35.426L67.4775 35.4267L7.9212 35.4666L6.9082 35.4673L6.92197 36.4802C7.06108 46.7145 7.98384 54.7179 10.4461 61.7752C12.9147 68.8508 16.9075 74.9102 23.0875 81.2989L23.3835 81.6049L23.8092 81.6036L51.5966 81.523L52.0179 81.5218L52.3113 81.2195C58.4922 74.8518 62.4866 68.8086 64.956 61.7405C67.4188 54.6909 68.3412 46.6868 68.478 36.4401ZM85.4951 47.981L85.4767 47.7964L85.3932 47.6306C84.8316 46.5149 84.0988 45.7165 83.2153 45.1921C82.3398 44.6724 81.3829 44.4611 80.4307 44.4095C79.4856 44.3583 78.5074 44.4626 77.5652 44.6035C77.1145 44.6709 76.6598 44.7487 76.2157 44.8246L76.149 44.836C75.6798 44.9163 75.2216 44.994 74.7684 45.06L73.9857 45.174L73.9164 45.9619C73.2081 54.0056 71.674 60.8832 68.957 67.1735L68.013 69.359L70.2345 68.5032C72.7159 67.5473 75.3325 66.0954 77.6224 64.1983L77.6224 64.1984L77.632 64.1903C81.6498 60.7754 86.1946 54.9984 85.4951 47.981Z" fill="#3F6199" stroke="white" stroke-width="2"/>
</svg>
