<svg width="84" height="84" viewBox="0 0 84 84" fill="none" xmlns="http://www.w3.org/2000/svg">
<g clip-path="url(#clip0_2038_1668)">
<path d="M81.8328 24.3446L81.823 24.3362H81.8146C80.5202 23.0929 78.7948 22.399 77 22.4H60.963L62.0718 22.0164C63.1596 21.6442 64.1039 20.9413 64.7725 20.006C65.441 19.0706 65.8005 17.9497 65.8005 16.8C65.8005 15.6502 65.441 14.5293 64.7725 13.594C64.1039 12.6586 63.1596 11.9557 62.0718 11.5836L29.4 0.260358C28.944 0.104504 28.4676 0.0167594 27.986 -4.19992e-05C27.3 -0.0138245 26.6218 0.14794 26.0159 0.469899C25.4099 0.791857 24.8963 1.26333 24.5238 1.83956C24.1207 2.45362 23.8783 3.15918 23.8191 3.89138C23.7599 4.62357 23.8857 5.3589 24.185 6.02976L29.26 16.8L26.6182 22.4H7.00001C5.20807 22.3975 3.48453 23.0877 2.18961 24.3264H2.18121L2.17141 24.3348L2.15601 24.36C1.47357 25.0099 0.930502 25.7918 0.559853 26.6583C0.189205 27.5248 -0.00127328 28.4576 1.01293e-05 29.4V77C-0.00159986 77.9424 0.18873 78.8753 0.559398 79.7418C0.930066 80.6083 1.47331 81.3902 2.15601 82.04L2.16721 82.0568L2.17701 82.0652H2.18541C3.48005 83.3079 5.20545 84.0012 7.00001 84H77C78.792 84.0024 80.5155 83.3122 81.8104 82.0736H81.8188L81.8286 82.0652L81.8398 82.0484C82.5243 81.398 83.0689 80.6149 83.4404 79.7469C83.8118 78.8788 84.0022 77.9441 84 77V29.4C84.0013 28.4576 83.8108 27.5248 83.4402 26.6583C83.0695 25.7918 82.5265 25.0099 81.844 24.36L81.8328 24.3446ZM51.8966 53.2L56.9506 48.6682L80.6946 27.3882C81.0303 28.0053 81.2042 28.6974 81.2 29.4V77C81.2041 77.7029 81.0302 78.3955 80.6946 79.0132L58.7748 59.36L51.8966 53.2ZM61.1548 19.3704L28.4774 30.6964C28.3003 30.7568 28.1155 30.7917 27.9286 30.8C27.7178 30.7902 27.5119 30.7324 27.3268 30.631C27.1417 30.5296 26.9821 30.3872 26.8604 30.2148C26.7194 30.0035 26.6328 29.7607 26.6084 29.5078C26.584 29.255 26.6224 29.0001 26.7204 28.7658L31.7016 18.2H62.622C62.2914 18.7554 61.7698 19.1715 61.1548 19.3704ZM26.8604 3.38516C26.9718 3.20943 27.1249 3.06402 27.3062 2.96191C27.4875 2.8598 27.6912 2.80416 27.8992 2.79996C28.097 2.80675 28.2928 2.8426 28.4802 2.90636L61.1562 14.2324C61.7703 14.4309 62.2912 14.8458 62.622 15.4H31.7016L26.7288 4.85656C26.6257 4.61992 26.5837 4.36116 26.6067 4.10405C26.6297 3.84694 26.7169 3.59973 26.8604 3.38516ZM25.3022 25.2L24.1822 27.5926C23.8875 28.2611 23.7649 28.9928 23.8258 29.7208C23.8867 30.4489 24.1291 31.1501 24.5308 31.7604C24.7225 32.0494 24.9497 32.3132 25.207 32.5458C25.2336 32.571 25.2672 32.585 25.2938 32.6088C25.5219 32.8092 25.7717 32.9834 26.0386 33.1282C26.0974 33.159 26.1646 33.173 26.2248 33.201C26.4637 33.3188 26.7136 33.4126 26.971 33.481C27.104 33.5132 27.2426 33.5118 27.3784 33.5314C27.5633 33.567 27.7504 33.5899 27.9384 33.6H28.0266C28.4945 33.5805 28.9571 33.4932 29.4 33.341L52.8892 25.2H77C77.5451 25.1994 78.085 25.3059 78.589 25.5136L62.5142 39.921L43.8606 56.6412C43.3512 57.1058 42.6867 57.3634 41.9972 57.3634C41.3078 57.3634 40.6432 57.1058 40.1338 56.6412L35.1358 52.1612L5.41101 25.5136C5.91502 25.3059 6.45492 25.1994 7.00001 25.2H25.3022ZM3.30541 79.0132C2.9698 78.3955 2.79594 77.7029 2.80001 77V29.4C2.79581 28.6974 2.96969 28.0053 3.30541 27.3882L17.738 40.32L32.1034 53.2L25.2252 59.36L3.30541 79.0132ZM7.00001 81.2C6.45492 81.2005 5.91502 81.094 5.41101 80.8864L34.2006 55.0802L38.2606 58.7202C38.5204 58.9567 38.8016 59.1685 39.1006 59.353C39.9532 59.8755 40.9317 60.1566 41.9316 60.1662C42.9315 60.1758 43.9152 59.9136 44.7776 59.4076C44.8126 59.388 44.8504 59.3754 44.884 59.3544C45.1833 59.1714 45.4646 58.9605 45.724 58.7244L49.784 55.0844L78.589 80.8864C78.085 81.094 77.5451 81.2005 77 81.2H7.00001Z" fill="#3F6199"/>
</g>
<defs>
<clipPath id="clip0_2038_1668">
<rect width="84" height="84" fill="white"/>
</clipPath>
</defs>
</svg>
