<svg width="119" height="119" viewBox="0 0 119 119" fill="none" xmlns="http://www.w3.org/2000/svg">
<path d="M95.3721 22.5947C94.6945 28.7302 93.8802 34.7281 91.7137 40.7512C90.1904 40.044 88.7137 39.2906 87.1501 38.1966C85.9468 37.3542 84.6819 36.3021 83.4992 35.1195C82.7153 34.3355 81.9741 33.5009 81.3137 32.6396C79.7925 30.6557 78.6574 28.4805 77.4972 26.1621C83.4259 24.0674 89.3325 23.2648 95.3721 22.5947ZM75.745 42.3132C78.3119 44.8799 78.3162 49.0372 75.7551 51.5982C73.1937 54.1597 69.0367 54.1551 66.4699 51.5884C63.9029 49.0216 63.8984 44.8644 66.4597 42.3031C69.021 39.7419 73.1782 39.7462 75.745 42.3132ZM78.0859 39.9723C74.2235 36.1096 67.968 36.1027 64.1137 39.9569C60.2595 43.8111 60.2664 50.0667 64.1287 53.9294C67.9914 57.7917 74.247 57.7986 78.1011 53.9444C81.9553 50.0902 81.9485 43.8346 78.0859 39.9723ZM59.1939 58.8636C58.5466 58.2162 57.4981 58.2145 56.8515 58.86L56.8489 58.8625L44.5313 71.1801C43.8848 71.8268 43.886 72.8759 44.5337 73.5238C45.1816 74.1715 46.2308 74.1727 46.8774 73.5261L59.1938 61.2097L59.1955 61.208C59.8424 60.5622 59.8411 59.512 59.1939 58.8636ZM74.4028 27.3776C75.6029 29.7829 76.8951 32.3182 78.6853 34.6527C79.4436 35.6418 80.2832 36.5852 81.1582 37.4604C82.476 38.7781 83.8892 39.9554 85.2539 40.9104C87.099 42.2018 88.8374 43.0716 90.4832 43.8311C89.6891 45.6318 88.7563 47.4374 87.6522 49.2522C81.703 59.0309 70.734 69.172 64.2521 74.8229C59.2118 79.2169 57.0954 80.7168 55.6253 81.598L54.2603 80.36C53.7304 79.8792 52.9656 79.7605 52.3166 80.0583L49.1648 81.5046L43.2026 75.5563L36.4692 68.8161L37.9216 65.6369C38.2205 64.9828 38.0963 64.2122 37.6071 63.683L36.3695 62.3455C37.2592 60.871 38.7687 58.7497 43.1562 53.7197C48.8105 47.2375 58.949 36.2721 68.7247 30.3228C70.6257 29.1657 72.5167 28.1965 74.4028 27.3776ZM68.4867 75.8529L68.7068 83.1773L53.7866 93.0009L56.9944 84.9339C58.7327 83.9361 60.8934 82.4889 66.5998 77.5142C67.1904 76.9994 67.822 76.4446 68.4867 75.8529ZM42.0462 49.5762C41.4849 50.2073 40.957 50.8078 40.4656 51.3711C35.3471 57.2392 33.9554 59.3598 32.9458 61.1271L25.037 64.261L34.8785 49.3524L42.0462 49.5762ZM46.5608 83.9407L45.6377 85.8065L32.2904 72.4589L34.2386 71.6257L40.3053 77.6983C40.3177 77.7116 40.3303 77.7245 40.3432 77.7374L40.6843 78.0778L41.1735 78.5673C41.1892 78.583 41.2057 78.5991 41.2219 78.614L46.5608 83.9407ZM98.6449 19.3204C98.2623 18.9379 97.7273 18.7492 97.1902 18.8072C87.4342 19.8593 77.2821 20.9342 66.8651 27.2741C58.8931 32.1259 50.8258 40.029 44.9708 46.3519L34.0514 46.0111C33.4775 45.9931 32.9358 46.2736 32.6197 46.7524L19.367 66.8283C18.9687 67.4318 19.0088 68.2248 19.466 68.7869C19.5023 68.8316 19.5407 68.874 19.5808 68.9141C20.0446 69.3783 20.7451 69.5292 21.364 69.284L33.489 64.4792L34.1825 65.2291L32.7094 68.4536C32.6707 68.5384 32.639 68.6251 32.6144 68.7129L28.7329 70.3731C28.2278 70.589 27.863 71.042 27.7596 71.5819C27.6562 72.1217 27.8276 72.6781 28.2168 73.0673L44.9303 89.781C45.3082 90.1587 45.8444 90.3318 46.3709 90.246C46.8975 90.1602 47.3499 89.8258 47.5864 89.3477L49.6283 85.2207L52.7403 83.7925L53.577 84.5517L48.7592 96.6681C48.513 97.2873 48.6636 97.9886 49.1282 98.4533C49.1678 98.4929 49.2097 98.5309 49.2539 98.5669C49.8154 99.0247 50.6086 99.0655 51.2125 98.6679L71.3043 85.4389C71.7834 85.1238 72.0645 84.5821 72.0473 84.0081L71.7143 72.923C78.0228 67.0756 85.8736 59.0462 90.7011 51.1114C97.041 40.6907 98.1111 30.5346 99.1588 20.7749C99.2166 20.2379 99.0273 19.7029 98.6449 19.3204ZM30.0884 77.4055C29.437 76.754 28.3819 76.7532 27.7319 77.4032L19.8797 85.2553C19.2299 85.9052 19.2309 86.9603 19.8822 87.6117C20.5337 88.2631 21.5888 88.264 22.2387 87.6141L30.0908 79.7621C30.7408 79.1121 30.7398 78.057 30.0884 77.4055ZM40.6524 87.9697C40.001 87.3182 38.946 87.3172 38.2961 87.9671L30.4439 95.8193C29.7939 96.4692 29.795 97.5244 30.4464 98.1758C31.0978 98.8273 32.1528 98.8283 32.8028 98.1784L40.655 90.3262C41.305 89.6762 41.304 88.621 40.6524 87.9697ZM31.1677 86.9495C30.5165 86.2979 29.4614 86.2968 28.8113 86.947L19.3936 96.3646C18.7436 97.0146 18.7448 98.0695 19.3963 98.7209C20.0477 99.3722 21.1028 99.3734 21.7527 98.7235L31.1704 89.3058C31.8204 88.6557 31.8192 87.6007 31.1677 86.9495Z" fill="#3F6199"/>
</svg>
