<svg width="98" height="60" viewBox="0 0 98 60" fill="none" xmlns="http://www.w3.org/2000/svg">
<path d="M73.5 16.5565V18.0902L74.9034 17.4715L92.3068 9.79966C92.3069 9.79961 92.307 9.79956 92.3071 9.79951C92.802 9.58162 93.3444 9.48948 93.8848 9.53181C94.4254 9.57413 94.9463 9.74957 95.4002 10.0416C95.8546 10.3348 96.2271 10.7355 96.4843 11.2065C96.7417 11.6778 96.8758 12.205 96.875 12.74V12.7416V48.1508V48.1524C96.8758 48.6874 96.7417 49.2145 96.4843 49.6858C96.2272 50.1567 95.8549 50.5573 95.4007 50.8504C94.8732 51.188 94.2577 51.3675 93.6285 51.3662C93.1722 51.3639 92.7213 51.2703 92.3029 51.091C92.3016 51.0904 92.3002 51.0898 92.2988 51.0892L74.9034 43.4208L73.5 42.8022V44.3359V49.4154C73.5 51.9425 72.4879 54.3678 70.6838 56.1572C68.8794 57.9469 66.4303 58.9539 63.875 58.9539H10.75C8.19466 58.9539 5.74562 57.9469 3.9412 56.1572C2.13706 54.3678 1.125 51.9425 1.125 49.4154V11.4769C1.125 8.94983 2.13706 6.52456 3.9412 4.73511C5.74562 2.94539 8.19466 1.93848 10.75 1.93848H63.875C66.4303 1.93848 68.8794 2.94539 70.6838 4.73511C72.4879 6.52456 73.5 8.94983 73.5 11.4769V16.5565ZM88.9741 42.5752L90.375 43.1882V41.6591V19.2754V17.7463L88.9741 18.3593L74.5241 24.6823L73.925 24.9445V25.5985V35.336V35.99L74.5241 36.2521L88.9741 42.5752ZM66.0818 51.6158C66.6688 51.0336 67 50.2423 67 49.4154V11.4769C67 10.6501 66.6688 9.85875 66.0818 9.27658C65.4951 8.69469 64.7012 8.36925 63.875 8.36925H10.75C9.92383 8.36925 9.12986 8.69469 8.54319 9.27658C7.95624 9.85874 7.625 10.6501 7.625 11.4769V49.4154C7.625 50.2423 7.95624 51.0336 8.54319 51.6158C9.12986 52.1976 9.92383 52.5231 10.75 52.5231H63.875C64.7012 52.5231 65.4951 52.1976 66.0818 51.6158ZM35.25 19.9077C35.25 20.7578 34.9096 21.5748 34.301 22.1784C33.6921 22.7824 32.8646 23.1231 32 23.1231H21.375C20.5104 23.1231 19.6829 22.7824 19.074 22.1784C18.4654 21.5748 18.125 20.7578 18.125 19.9077C18.125 19.0576 18.4654 18.2406 19.074 17.637C19.6829 17.0331 20.5104 16.6923 21.375 16.6923H32C32.8646 16.6923 33.6921 17.0331 34.301 17.637C34.9096 18.2406 35.25 19.0576 35.25 19.9077Z" fill="#3F6199" stroke="white" stroke-width="2"/>
</svg>
